<svg xmlns="http://www.w3.org/2000/svg" width="1024" height="718" viewBox="0 0 1024 718" version="1.1">
	<path d="M 16.980 3.960 C 20.142 10.159, 19.708 16.731, 15.750 22.565 C 11.802 28.385, 8.358 31.030, 3.315 32.114 L -0.500 32.934 3.703 32.568 C 15.634 31.531, 23.749 15.269, 17.980 3.960 C 16.868 1.782, 15.734 0, 15.459 0 C 15.184 0, 15.868 1.782, 16.980 3.960 M 223.069 3.775 C 222.346 5.824, 221.197 8.175, 220.515 9 C 219.834 9.825, 218.573 12.525, 217.714 15 C 216.855 17.475, 215.184 21.975, 214.001 25 C 212.818 28.025, 211.488 31.625, 211.046 33 C 210.604 34.375, 209.075 38.115, 207.648 41.312 C 206.222 44.509, 203.605 53.588, 201.833 61.487 C 197.261 81.867, 198.935 84.650, 211.500 77.556 C 219.323 73.140, 233.968 65.357, 241.340 61.699 C 249.023 57.885, 266.061 51.997, 288.500 45.401 L 301.500 41.579 313 30.019 C 319.325 23.661, 328.215 15.093, 332.755 10.980 C 337.876 6.339, 341.007 2.741, 341.001 1.500 C 340.994 -0.126, 340.644 0.072, 339.127 2.559 C 338.101 4.241, 332.606 9.866, 326.916 15.059 C 321.226 20.251, 312.954 28.162, 308.535 32.637 L 300.500 40.775 290 43.874 C 279.692 46.916, 267.758 50.752, 253.120 55.728 C 249.061 57.108, 238.261 62.063, 229.120 66.740 C 201.477 80.881, 202.974 80.223, 201.408 78.924 C 199.487 77.330, 199.603 75.711, 202.605 62.213 C 204.981 51.531, 206.771 45.908, 210.472 37.500 C 211.199 35.850, 212.790 31.800, 214.010 28.500 C 219.002 14.987, 220.518 11.392, 222.150 9.203 C 223.846 6.927, 225.563 1.230, 224.787 0.454 C 224.565 0.232, 223.792 1.726, 223.069 3.775 M 379 2.099 C 377.625 3.214, 374.616 5.336, 372.314 6.813 C 364.455 11.858, 343 29.267, 343 30.600 C 343 33.615, 347.434 34.381, 366 34.574 C 377.495 34.694, 385.636 35.217, 387.500 35.956 C 389.150 36.610, 396.575 37.532, 404 38.005 C 428.129 39.542, 447.614 43.785, 465.500 51.399 C 468.800 52.803, 472.759 53.963, 474.298 53.976 C 476.038 53.991, 478.051 55.031, 479.623 56.727 L 482.150 59.454 479.986 60.420 C 477.756 61.415, 473.606 60.178, 445 49.997 C 435.289 46.540, 430.545 45.534, 414.500 43.525 C 396.829 41.313, 388.300 40.538, 385.250 40.866 C 384.563 40.940, 384 42.081, 384 43.402 C 384 46.051, 385.575 46.848, 397 49.980 C 403.937 51.882, 407.234 53.142, 424.500 60.490 C 430.550 63.065, 439.325 66.753, 444 68.685 C 463.713 76.834, 471.278 80.294, 475.969 83.308 C 478.702 85.063, 483.907 88.300, 487.537 90.500 C 491.166 92.700, 497.023 96.300, 500.552 98.500 C 504.081 100.700, 509.272 103.850, 512.086 105.500 C 514.901 107.150, 519.521 110.009, 522.352 111.854 C 525.183 113.699, 529.199 116.077, 531.276 117.138 C 535.325 119.207, 544.445 126.585, 555.101 136.412 C 564.804 145.360, 573.664 153.003, 579.260 157.250 C 583.527 160.489, 584.923 161, 589.493 161 C 599.322 161, 619.370 155.637, 634.500 148.960 C 642.200 145.561, 649.788 141.534, 651.363 140.009 C 655.337 136.160, 655.925 132.199, 656.637 104.500 C 657.214 82.054, 657.078 79.172, 654.529 60 C 651.159 34.647, 646.037 10.874, 642.540 4.349 C 639.733 -0.889, 640.128 2.238, 643.002 8 C 645.588 13.185, 650.600 37.886, 653.473 59.601 C 657.302 88.543, 656.669 129.845, 652.283 137.187 C 650.156 140.749, 649.516 141.108, 631.182 149.023 C 621.027 153.407, 614.863 155.456, 609.980 156.069 C 606.194 156.544, 601.444 157.623, 599.426 158.467 C 597.407 159.310, 593.370 160, 590.454 160 C 585.920 160, 584.455 159.477, 580.327 156.385 C 577.672 154.397, 573.025 150.371, 570 147.439 C 566.975 144.507, 562.847 140.846, 560.827 139.304 C 558.807 137.762, 552.957 132.754, 547.827 128.176 C 542.697 123.597, 537.150 119.146, 535.500 118.283 C 533.850 117.421, 529.275 114.642, 525.334 112.107 C 521.392 109.573, 515.873 106.150, 513.068 104.500 C 510.263 102.850, 505.081 99.700, 501.552 97.500 C 498.023 95.300, 492.176 91.700, 488.559 89.500 C 484.941 87.300, 478.962 83.588, 475.271 81.250 C 471.580 78.912, 467.786 77, 466.839 77 C 465.893 77, 464.840 76.550, 464.500 76 C 464.160 75.450, 463.064 75, 462.063 75 C 461.063 75, 459.731 74.381, 459.103 73.625 C 458.476 72.868, 455.833 71.673, 453.231 70.969 C 450.629 70.266, 448.039 69.339, 447.475 68.910 C 446.912 68.480, 444.212 67.376, 441.475 66.456 C 438.739 65.535, 434.025 63.649, 431 62.263 C 427.975 60.878, 424.600 59.398, 423.500 58.974 C 422.400 58.551, 419.700 57.403, 417.500 56.425 C 411.283 53.660, 405.144 51.353, 397.271 48.823 C 390.827 46.752, 387.970 44.697, 389.462 43.205 C 390.432 42.235, 404.570 43.118, 419.177 45.062 C 429.805 46.476, 436.563 47.992, 443.677 50.558 C 477.167 62.639, 483 63.911, 483 59.136 C 483 56.394, 480.048 54.253, 474.487 52.960 C 471.744 52.323, 467.250 50.904, 464.500 49.808 C 446.567 42.661, 419.665 37.018, 403.460 37.005 C 399.588 37.002, 393.738 36.275, 390.460 35.388 C 386.181 34.231, 379.425 33.725, 366.500 33.592 C 353.617 33.460, 347.805 33.025, 346.056 32.064 L 343.611 30.722 346.556 28.320 C 356.510 20.200, 373.592 7.268, 376.072 5.975 C 377.680 5.137, 379.697 3.449, 380.555 2.225 C 382.456 -0.490, 382.216 -0.509, 379 2.099 M 655.970 1.944 C 656.543 3.014, 657.505 4.194, 658.109 4.567 C 658.713 4.941, 658.434 4.066, 657.489 2.623 C 655.487 -0.432, 654.451 -0.895, 655.970 1.944 M 668.518 10.632 C 678.726 20.701, 690.330 35.877, 695.422 45.818 C 698.003 50.857, 703.037 67.300, 702.519 69 C 702.267 69.825, 702.974 71.625, 704.091 73 L 706.120 75.500 704.457 72 L 702.793 68.500 705.467 71.094 L 708.142 73.687 706.003 77.494 C 704.827 79.588, 702.081 83.417, 699.901 86.003 C 689.390 98.468, 668.803 140.639, 668.565 150.193 C 668.456 154.575, 667.986 155.372, 661.474 162.211 C 657.638 166.239, 653.983 170.427, 653.352 171.517 C 652.257 173.409, 652.153 173.370, 651.102 170.685 C 649.717 167.148, 649.703 163.471, 651.055 158.993 C 652.351 154.703, 653.827 140.989, 652.934 141.541 C 652.577 141.761, 651.992 144.317, 651.632 147.221 C 651.273 150.124, 650.560 154.750, 650.049 157.500 C 648.584 165.379, 648.761 172.971, 650.425 173.610 C 651.505 174.024, 650.897 175.411, 647.918 179.328 C 645.755 182.173, 642.786 187.085, 641.320 190.244 C 638.570 196.169, 636.978 197.371, 638.799 192.147 L 639.829 189.191 637.110 190.752 C 634.527 192.234, 634.151 192.167, 629.642 189.406 C 612.902 179.160, 609.184 176.915, 606.500 175.433 C 604.850 174.522, 602.150 172.538, 600.500 171.025 C 597.100 167.908, 589.925 163, 588.768 163 C 588.346 163, 588.007 164.012, 588.015 165.250 C 588.026 166.893, 588.262 167.134, 588.890 166.143 C 589.490 165.197, 589.957 165.122, 590.434 165.893 C 590.810 166.502, 590.836 167, 590.491 167 C 590.146 167, 590.789 168.299, 591.920 169.888 C 593.743 172.448, 593.804 172.918, 592.453 174.039 C 590.573 175.600, 581.683 173.871, 575.526 170.747 C 572.345 169.133, 571.005 168.937, 568.814 169.764 C 566.645 170.583, 565.809 170.472, 564.788 169.232 C 564.080 168.371, 561.700 166.334, 559.500 164.706 C 554.919 161.316, 555.371 161.403, 563 165.376 C 569.457 168.739, 568.940 167.886, 561.558 163 C 558.650 161.075, 553.780 157.607, 550.736 155.293 C 547.692 152.979, 532.545 142.512, 517.075 132.033 C 490.949 114.336, 486.745 111.879, 457.980 97.490 C 440.948 88.971, 426.594 82, 426.082 82 C 425.570 82, 419.380 79.572, 412.326 76.606 C 371.722 59.528, 370.055 58.922, 358.500 57.051 C 355.200 56.517, 350.250 55.566, 347.500 54.938 C 344.750 54.310, 334.850 53.706, 325.500 53.595 C 310.813 53.421, 307.071 53.714, 298 55.747 C 292.225 57.041, 285.250 58.518, 282.500 59.029 C 277.585 59.943, 259.809 65.762, 249 69.996 C 245.975 71.180, 242.304 72.523, 240.841 72.979 C 235.435 74.665, 189.117 100.525, 177.886 108.128 C 157.738 121.767, 126.571 150.625, 120.245 161.500 C 117.869 165.584, 116.893 166.446, 114.918 166.205 C 112.995 165.971, 112.807 166.121, 114 166.940 C 116.700 168.793, 117.808 168.077, 121.404 162.159 C 125.157 155.980, 149.172 131.864, 161.532 121.861 C 170.396 114.688, 193.006 99, 194.481 99 C 195.096 99, 196.156 98.444, 196.836 97.764 C 197.974 96.626, 212.536 88.559, 224.500 82.438 C 227.250 81.031, 231.300 78.784, 233.500 77.445 C 235.700 76.106, 238.850 74.593, 240.500 74.084 C 242.150 73.575, 245.975 72.180, 249 70.984 C 260.947 66.261, 280.676 60.052, 283.816 60.027 C 285.639 60.012, 287.940 59.567, 288.928 59.039 C 289.915 58.510, 294.723 57.249, 299.612 56.237 C 309.783 54.130, 338.109 53.930, 346 55.910 C 348.475 56.530, 353.650 57.481, 357.500 58.022 C 367.092 59.370, 373.465 61.321, 387.500 67.208 C 394.100 69.976, 404.450 74.288, 410.500 76.791 C 416.550 79.294, 421.927 81.715, 422.450 82.171 C 422.972 82.627, 424.121 83, 425.003 83 C 426.334 83, 438.511 88.661, 444 91.832 C 444.825 92.309, 454.881 97.286, 466.346 102.894 C 484.975 112.005, 493.143 116.936, 506.500 127.131 C 508.700 128.811, 514.325 132.436, 519 135.189 C 523.675 137.941, 529.525 141.859, 532 143.895 C 534.475 145.931, 538.525 148.772, 541 150.209 C 547.481 153.971, 554.274 159.059, 553.651 159.683 C 553.356 159.977, 551.852 159.365, 550.308 158.323 C 546.193 155.546, 543.452 154.493, 534 152.063 C 520.427 148.572, 517.879 147.842, 511 145.473 C 503.546 142.906, 496.141 141.272, 486.349 140.032 C 482.582 139.555, 474.325 138.231, 468 137.088 C 461.675 135.946, 453.703 135.009, 450.285 135.006 C 444.769 135.001, 443.676 135.346, 440.573 138.070 C 438.650 139.758, 436.079 142.796, 434.859 144.820 C 433.639 146.844, 430.968 150.352, 428.924 152.616 C 426.879 154.880, 423.938 158.705, 422.388 161.116 C 420.838 163.527, 418.204 167.178, 416.535 169.228 C 409.981 177.280, 405.628 182.918, 398.218 192.952 C 393.973 198.701, 388.217 205.901, 385.427 208.952 C 382.638 212.003, 378.921 216.612, 377.169 219.193 C 375.417 221.773, 370.468 227.623, 366.171 232.193 C 361.875 236.762, 356.958 242.525, 355.246 245 C 353.533 247.475, 349.725 252.156, 346.783 255.401 C 342.025 260.650, 341.202 261.179, 339.339 260.182 C 336.598 258.714, 336.064 256.067, 335.375 240.500 C 334.967 231.298, 335.267 224.006, 336.399 215.542 C 338.009 203.517, 338.522 187.524, 337.393 184.582 C 336.116 181.254, 332.876 183.320, 323.316 193.556 C 315.866 201.533, 313.035 203.951, 311.729 203.449 C 309.526 202.604, 309.551 199.818, 311.898 184.477 C 312.986 177.365, 314.846 169.807, 316.451 165.977 C 322.165 152.339, 323.253 149.431, 323.449 147.272 C 323.673 144.803, 326.406 141.388, 329.471 139.748 C 338.613 134.855, 375.026 131.526, 411.693 132.231 C 432.611 132.633, 436.267 132.936, 438.693 134.468 L 441.500 136.241 439.338 133.986 C 437.231 131.789, 436.524 131.719, 411.838 131.261 C 367.848 130.445, 333.184 134.387, 325.571 141.072 C 323.366 143.008, 321.979 143.568, 320.895 142.961 C 318.655 141.707, 307.223 144.789, 291 151.018 C 287.975 152.180, 283.700 153.735, 281.500 154.474 C 279.300 155.214, 275.025 156.789, 272 157.974 C 268.975 159.160, 264.700 160.726, 262.500 161.453 C 257.563 163.086, 248.302 167.032, 232 174.449 C 211.495 183.778, 209.750 186.505, 210.012 208.825 C 210.235 227.879, 210.330 227, 208.044 227 C 204.015 227, 189.821 217.236, 177.756 206.164 C 173.279 202.055, 172.197 201.376, 173.816 203.688 C 176.175 207.058, 188.726 217.555, 195.485 221.811 C 197.693 223.202, 201.175 225.441, 203.223 226.787 C 205.271 228.133, 207.592 228.987, 208.381 228.684 C 210.348 227.929, 211.100 231.244, 211.970 244.500 C 212.660 254.998, 212.700 255.147, 212.846 247.762 C 212.931 243.506, 212.511 229.905, 211.914 217.536 C 211.127 201.226, 211.131 194.134, 211.927 191.720 C 213.842 185.918, 220.502 180.624, 233 174.970 C 248.750 167.844, 257.763 164.020, 262.500 162.453 C 264.700 161.726, 268.975 160.160, 272 158.974 C 275.025 157.789, 279.300 156.214, 281.500 155.474 C 283.700 154.735, 287.975 153.180, 291 152.018 C 299.946 148.583, 307.115 146.207, 313.500 144.559 C 319.363 143.047, 319.541 143.061, 321.294 145.171 C 322.324 146.410, 322.804 148.005, 322.422 148.915 C 322.056 149.787, 320.949 152.525, 319.961 155 C 318.973 157.475, 316.936 162.425, 315.435 166 C 312.423 173.172, 308.266 197.940, 309.349 202.256 C 310.708 207.668, 312.859 206.597, 324.350 194.789 L 335.336 183.500 336.198 189.500 C 336.725 193.173, 336.659 198.579, 336.026 203.440 C 334.188 217.553, 333.724 244.732, 335.180 252.980 C 336.387 259.817, 336.747 260.546, 339.374 261.466 C 342.048 262.403, 342.555 262.134, 346.656 257.605 C 349.080 254.927, 354.087 249.029, 357.782 244.498 C 361.477 239.967, 367.974 232.237, 372.220 227.321 C 376.465 222.404, 381.190 216.759, 382.720 214.777 C 384.249 212.794, 388.906 206.971, 393.070 201.836 C 402.634 190.040, 418.713 169.089, 422.030 164.100 C 427.094 156.483, 440.079 140.083, 442.641 138.068 C 444.598 136.528, 446.704 136.004, 450.885 136.017 C 457.296 136.037, 472.127 138.313, 476.315 139.920 C 477.863 140.514, 481.076 141, 483.455 141 C 489.819 141, 503.631 143.814, 510.500 146.510 C 513.800 147.806, 519.200 149.586, 522.500 150.467 C 525.800 151.348, 530.750 152.701, 533.500 153.474 C 536.250 154.246, 540.525 155.442, 543 156.131 C 550.978 158.351, 564.853 169.330, 567.421 175.454 C 568.124 177.129, 571.466 183.371, 574.849 189.325 C 578.232 195.279, 581 200.765, 581 201.516 C 581 202.267, 581.498 203.190, 582.107 203.566 C 582.837 204.017, 583.004 203.587, 582.595 202.301 C 582.141 200.868, 582.664 199.982, 584.568 198.964 C 585.993 198.201, 588.989 194.410, 591.227 190.539 C 593.464 186.667, 596.396 181.587, 597.742 179.250 C 599.089 176.912, 599.964 175, 599.687 175 C 599.410 175, 596.433 179.706, 593.071 185.458 C 586.600 196.529, 583.578 199.724, 581.337 197.865 C 580.622 197.271, 577.051 191.156, 573.400 184.275 C 568.134 174.348, 567.046 171.579, 568.132 170.869 C 569.627 169.891, 569.768 169.921, 578.500 173.072 C 584.441 175.216, 589.901 175.772, 595.283 174.781 C 598.706 174.150, 600.019 173.020, 597.417 172.945 C 595.742 172.896, 589.847 167, 591.473 167 C 591.817 167, 594.663 168.752, 597.799 170.893 C 600.934 173.034, 606.875 176.928, 611 179.546 C 615.125 182.165, 619.625 185.060, 621 185.980 C 622.375 186.901, 626.533 189.343, 630.241 191.408 C 633.949 193.473, 637.237 195.574, 637.548 196.078 C 637.860 196.582, 634.313 205.208, 629.666 215.247 C 624.086 227.304, 619.975 237.913, 617.556 246.500 C 615.541 253.650, 613.424 260.850, 612.851 262.500 C 612.277 264.150, 611.415 267.411, 610.935 269.747 C 610.455 272.083, 608.188 277.632, 605.899 282.079 C 602.345 288.981, 601.532 289.961, 600.346 288.775 C 598.570 286.998, 597.027 273.612, 596.973 259.500 C 596.949 253.450, 596.237 244.900, 595.390 240.500 C 594.543 236.100, 593.450 230.290, 592.960 227.589 C 592.470 224.889, 590.179 218.701, 587.869 213.839 C 582.232 201.977, 581.448 201.986, 569.479 214.052 C 564.541 219.031, 557.456 225.120, 553.735 227.583 C 550.015 230.046, 544.952 233.996, 542.485 236.360 C 538.490 240.188, 538.001 241.140, 538.011 245.079 C 538.017 247.510, 538.692 251.709, 539.511 254.409 C 541.551 261.133, 541.440 265.694, 539.207 266.889 C 537.760 267.664, 537.384 267.444, 537.256 265.749 C 537.169 264.594, 537.863 263.052, 538.799 262.322 C 540.391 261.080, 540.388 261.034, 538.750 261.605 C 536.677 262.327, 536.361 260.088, 538.250 258.053 C 539.267 256.957, 539.194 256.813, 537.856 257.281 C 536.527 257.746, 536.242 257.216, 536.369 254.515 C 536.456 252.678, 536.183 251.387, 535.763 251.646 C 535.343 251.906, 535 251.444, 535 250.619 C 535 249.795, 532.910 245.032, 530.356 240.035 C 524.559 228.694, 516.983 221.195, 508.021 217.927 C 504.242 216.549, 502.286 215.333, 502.711 214.623 C 503.081 214.005, 502.646 214.098, 501.745 214.829 C 499.768 216.431, 489.018 215.426, 488.970 213.635 C 488.953 213.011, 488.481 213.287, 487.920 214.250 C 487.359 215.213, 486.239 216, 485.430 216 C 480.880 216, 471.131 221.425, 465.298 227.203 C 460.935 231.525, 459.267 232.693, 459.673 231.143 C 460.379 228.444, 468.573 219.178, 471.425 217.854 C 472.566 217.325, 475.075 216.042, 477 215.005 C 486.372 209.955, 499.778 210.050, 510.166 215.241 C 517.853 219.082, 530.362 230.807, 533.609 237.214 C 536.198 242.325, 537.572 243.636, 535.997 239.493 C 533.831 233.794, 531.796 231.060, 524.709 224.329 C 520.191 220.037, 514.752 216.033, 510.881 214.150 C 492.345 205.133, 468.332 212.261, 459.500 229.402 C 458.115 232.090, 457.858 233.410, 458.663 233.696 C 459.444 233.973, 458.851 236.258, 456.854 240.662 C 455.220 244.267, 454.062 247.395, 454.281 247.614 C 454.500 247.833, 456.347 244.459, 458.385 240.115 C 461.086 234.359, 463.662 230.719, 467.888 226.688 C 475.604 219.329, 479.216 217.924, 492.115 217.269 C 502 216.767, 503.115 216.906, 508.333 219.295 C 516.008 222.809, 523.128 229.779, 528.327 238.869 C 533.936 248.676, 534.751 251.211, 535.582 261.463 C 536.220 269.317, 536.403 269.854, 538.135 268.928 C 539.667 268.108, 540 268.288, 540 269.933 C 540 271.365, 539.501 271.795, 538.250 271.438 C 537.288 271.163, 537.547 271.486, 538.826 272.156 C 540.826 273.203, 541.061 273.873, 540.498 276.937 C 540.139 278.897, 539.462 280.895, 538.995 281.377 C 538.081 282.321, 537.971 281.960, 532.477 260 C 530.404 251.713, 527.536 243.035, 525.784 239.748 C 522.430 233.453, 515.090 226, 512.245 226 C 511.255 226, 509.407 225.273, 508.138 224.384 C 506.658 223.347, 502.807 222.579, 497.395 222.242 C 489.214 221.731, 488.737 221.826, 481.537 225.384 C 475.333 228.451, 472.468 230.810, 464.082 239.757 L 454.049 250.462 446.775 250.411 C 442.774 250.384, 423.748 249.986, 404.496 249.527 C 365.391 248.596, 366.052 248.507, 360.389 255.448 C 358.800 257.396, 355.310 261.579, 352.632 264.744 C 349.955 267.910, 346.627 272.300, 345.236 274.500 C 342.537 278.771, 335.160 288.052, 333.568 289.180 C 333.040 289.554, 331.796 289.426, 330.804 288.895 C 329.270 288.074, 329 286.579, 329 278.899 C 329 268.241, 328.112 266, 323.888 266 C 319.707 266, 315 261.240, 315 257.011 C 315 255.283, 314.495 252.886, 313.878 251.684 C 312.264 248.542, 307.837 244, 306.390 244 C 305.710 244, 303.881 242.938, 302.327 241.641 C 300.772 240.343, 297.925 238.490, 296 237.524 C 294.075 236.557, 291.516 234.867, 290.312 233.767 C 282.520 226.648, 265.304 234.683, 258.102 248.800 C 256.956 251.046, 254.953 254.454, 253.650 256.374 C 252.347 258.294, 250.043 264.298, 248.530 269.718 C 246.355 277.504, 245.401 279.571, 243.984 279.571 C 241.391 279.571, 242.104 274.311, 245.365 269.384 C 246.790 267.230, 248.262 263.900, 248.636 261.984 C 249.423 257.951, 255.574 244.940, 259.062 239.930 C 263.232 233.940, 269.371 227.901, 273.413 225.814 C 276.515 224.212, 278.733 223.872, 284.107 224.176 C 292.233 224.635, 296.276 227.334, 302.351 236.358 C 305.467 240.986, 306.468 241.856, 307.601 240.916 C 309.563 239.288, 309.363 237.649, 306.514 232.027 C 304.716 228.479, 302.253 225.854, 297.616 222.545 C 283.534 212.497, 268.439 214.400, 255.709 227.829 C 247.445 236.546, 242.764 247.900, 241.321 262.727 C 240.810 267.974, 240.977 269.054, 242.383 269.594 C 243.700 270.099, 243.803 270.533, 242.871 271.656 C 241.871 272.860, 241.294 272.706, 239.095 270.646 C 237.668 269.309, 233.800 266.533, 230.500 264.477 C 227.200 262.422, 223.089 259.411, 221.365 257.786 C 219.297 255.836, 217.426 254.945, 215.865 255.165 L 213.500 255.500 213.231 278.368 L 212.962 301.236 184.986 300.500 C 159.940 299.840, 156.748 299.935, 154.505 301.405 C 153.127 302.307, 152 303.722, 152 304.547 C 152 305.373, 154.925 308.170, 158.500 310.763 C 162.075 313.355, 165 315.994, 165 316.627 C 165 318.502, 159.126 319.006, 149 317.999 C 143.775 317.479, 131.118 317.042, 120.872 317.027 C 104.302 317.003, 102.093 317.193, 100.872 318.750 C 99.624 320.341, 99.661 320.374, 101.274 319.107 C 103.078 317.692, 119.523 317.867, 149.639 319.623 C 163.187 320.413, 166 319.879, 166 316.515 C 166 314.662, 164.545 313.043, 160 309.838 C 153.738 305.421, 152.449 302.627, 156.135 301.457 C 157.309 301.085, 170.584 301.109, 185.635 301.513 L 213 302.246 213.086 308.873 C 213.377 331.402, 215.046 384.082, 215.563 387.088 C 216.020 389.743, 215.738 391.119, 214.478 392.379 C 212.903 393.954, 212.589 393.961, 210.313 392.470 C 208.960 391.583, 190.962 382.848, 170.319 373.059 C 149.675 363.270, 131.883 354.488, 130.780 353.543 C 128.151 351.293, 129.516 349.979, 135.129 349.359 C 142.490 348.545, 143.901 348.054, 145.051 345.905 C 145.933 344.258, 145.804 343.441, 144.425 341.917 C 143.471 340.863, 142.150 340, 141.491 340 C 139.583 340, 94.849 319.174, 92.827 317.344 C 91.822 316.434, 91 315.294, 91 314.810 C 91 314.023, 101.557 301.124, 113.353 287.500 C 120.817 278.879, 131 265.984, 131 265.153 C 131 264.714, 137.077 259.061, 144.503 252.589 C 162.827 236.621, 163.691 233.223, 149.109 234.474 C 134.268 235.747, 131.500 235.673, 131.500 234 C 131.500 232.624, 135.541 229.444, 160.486 211.191 C 165.228 207.720, 169.377 204.180, 169.706 203.324 C 170.779 200.527, 168.661 196.712, 165.500 195.749 C 160.859 194.334, 149.611 189.736, 148.550 188.820 C 148.027 188.369, 146.963 188, 146.185 188 C 144.327 188, 124.623 178.558, 119.500 175.213 C 110.556 169.372, 109.664 167.354, 112.116 158.519 C 114.875 148.582, 132.747 129.765, 153.672 114.768 C 161.846 108.909, 169.426 103.781, 170.517 103.371 C 172.348 102.683, 172.385 102.774, 171 104.563 C 169.614 106.353, 169.632 106.396, 171.239 105.137 C 172.195 104.387, 172.772 103.440, 172.521 103.033 C 172.269 102.626, 174.035 100.877, 176.445 99.147 C 181.115 95.793, 182.582 95.228, 181.367 97.250 C 180.851 98.110, 181.141 98.074, 182.297 97.137 C 183.222 96.387, 183.762 95.424, 183.498 94.996 C 183.233 94.569, 184.122 93.495, 185.473 92.609 C 188.888 90.372, 189.996 90.654, 187.139 93.033 C 185.841 94.115, 185.209 95, 185.734 95 C 186.260 95, 187.505 94.100, 188.500 93 C 189.495 91.900, 189.931 91, 189.468 91 C 188.060 91, 194.306 84.923, 197.343 83.337 C 198.907 82.521, 199.961 81.628, 199.686 81.353 C 198.871 80.538, 193.863 83.535, 188.299 88.169 C 183.331 92.306, 180.054 94.752, 172.781 99.757 C 145.549 118.496, 137.102 125.151, 126.834 135.954 C 120.375 142.749, 114.932 149.484, 113.449 152.514 C 110.173 159.211, 109.197 167.125, 111.259 170.272 C 113.271 173.343, 126.061 180.713, 138.524 185.983 C 144.011 188.303, 150.075 190.866, 152 191.678 C 153.925 192.491, 157.425 194.021, 159.777 195.078 C 162.129 196.135, 164.728 197, 165.552 197 C 167.188 197, 169.365 201.600, 168.439 203.099 C 167.721 204.261, 150.542 217.132, 142.543 222.501 C 139.267 224.701, 134.816 228.178, 132.653 230.229 C 129.218 233.485, 128.892 234.165, 130.078 235.594 C 131.469 237.270, 137.247 237.221, 151.620 235.414 C 157.165 234.717, 158.771 235.691, 157.131 238.755 C 156.038 240.798, 138.264 256.566, 133.961 259.309 C 132.401 260.304, 129.780 263.454, 128.137 266.309 C 126.494 269.164, 121.854 275.245, 117.825 279.822 C 113.796 284.399, 108.475 290.553, 106 293.497 C 103.525 296.441, 98.912 301.896, 95.750 305.620 C 87.328 315.535, 87.858 317.314, 101.032 323.320 C 105.139 325.192, 111.425 328.082, 115 329.742 C 128.845 336.168, 138.629 340.499, 141.273 341.370 C 146.196 342.993, 143.745 348, 138.027 348 C 133.179 348, 128 349.832, 128 351.547 C 128 352.764, 133.881 358, 135.248 358 C 135.556 358, 142.713 361.315, 151.154 365.367 C 173.753 376.216, 184.867 381.409, 200.918 388.617 C 208.850 392.179, 212 394.577, 212 397.050 C 212 399.172, 212.344 398.936, 195 408.694 C 170.905 422.248, 142.312 438.435, 121.500 450.300 C 109.950 456.885, 96.450 464.556, 91.500 467.347 C 81.092 473.215, 63.239 485.189, 51 494.510 C 46.325 498.070, 41.617 500.987, 40.538 500.992 C 39.459 500.996, 36.689 499.148, 34.383 496.885 C 32.077 494.622, 29.632 492.956, 28.949 493.184 C 27.148 493.784, 37.852 502, 40.435 502 C 42.994 502, 49.322 498.129, 57.014 491.857 C 64.229 485.974, 81.193 474.725, 92.500 468.325 C 116.891 454.519, 168.253 425.368, 174 422.068 C 177.575 420.015, 187.996 414.099, 197.157 408.922 C 206.318 403.744, 213.570 399.056, 213.271 398.504 C 212.973 397.952, 213.927 398.647, 215.390 400.049 C 217.583 402.149, 218.201 403.909, 218.897 410.049 C 220.149 421.088, 224.046 428.457, 233.878 438.376 C 242.462 447.038, 241.544 447.931, 232.750 439.473 L 225.500 432.500 232.425 439.701 C 236.233 443.662, 239.638 446.724, 239.991 446.506 C 240.343 446.288, 248.027 453.545, 257.066 462.632 C 272.592 478.242, 288.243 492, 299.527 499.956 C 307.570 505.627, 329 523.259, 329 524.206 C 329 524.681, 327.988 524.531, 326.750 523.871 C 324.725 522.792, 324.634 522.836, 325.845 524.303 C 327.012 525.718, 326.765 526.304, 323.987 528.717 C 318.180 533.761, 292.019 560.482, 292.010 561.378 C 292.004 561.861, 300.307 553.853, 310.459 543.581 L 328.918 524.906 332.209 526.602 C 334.019 527.535, 337.674 530.196, 340.331 532.516 C 342.988 534.836, 349.414 538.916, 354.611 541.583 C 363.686 546.240, 364.447 546.447, 373.857 546.825 C 387.298 547.365, 412.683 543.377, 439.550 536.506 C 462.952 530.520, 468.733 528.544, 477.500 523.533 C 480.800 521.647, 488.737 517.456, 495.137 514.220 C 506.813 508.317, 513.965 503.678, 521.602 497.057 C 523.858 495.100, 528.989 491.250, 533.004 488.500 C 541.438 482.723, 568.639 456.693, 576.699 446.686 C 584.334 437.207, 585.056 436.994, 594.096 441.558 C 598.168 443.614, 603.750 445.899, 606.500 446.636 C 613.230 448.440, 626.330 448.398, 629.882 446.561 C 632.645 445.132, 632.725 445.182, 641.083 453.609 C 645.831 458.397, 651.335 462.915, 653.710 463.975 C 656.026 465.007, 666.151 468.558, 676.210 471.866 C 696.498 478.536, 718.952 483.192, 744.500 486.026 C 768.568 488.696, 773.289 489.510, 774.337 491.173 C 775.437 492.917, 775.680 492.446, 766.438 506.480 C 764.272 509.769, 759.560 515.619, 755.967 519.480 C 752.374 523.341, 748.273 528.300, 746.854 530.500 C 745.434 532.700, 738.249 540.812, 730.887 548.526 C 714.139 566.072, 711.493 569.190, 693.077 593.080 C 680.713 609.118, 676.076 616.158, 666.452 633.500 C 660.042 645.050, 653.870 655.507, 652.735 656.739 L 650.673 658.977 641.585 650.239 C 628.489 637.645, 621.332 631.654, 605.098 619.699 C 593.278 610.993, 590.368 609.268, 588.860 610.075 C 586.172 611.514, 585.614 615.180, 586.612 624.869 C 587.100 629.616, 587.431 644.075, 587.347 657 C 587.215 677.353, 586.913 681.563, 585.097 688.438 C 583.944 692.804, 583 698.214, 583 700.460 C 583 704.277, 583.497 704.993, 590.635 711.458 C 594.834 715.261, 597.761 717.421, 597.138 716.258 C 596.515 715.094, 593.305 711.793, 590.003 708.921 C 583.261 703.057, 582.779 701.284, 585.512 692.409 C 588.736 681.940, 590.127 640.427, 587.850 622.664 C 586.795 614.445, 586.848 613.585, 588.473 612.396 C 590.024 611.262, 591.207 611.829, 597.874 616.899 C 602.068 620.089, 606.850 623.409, 608.500 624.278 C 613.234 626.769, 626.522 637.821, 638.406 649.153 L 649.313 659.552 641.224 676.282 C 636.775 685.483, 632.205 694.195, 631.068 695.641 C 627.658 699.975, 628.348 703.287, 633.596 707.773 C 636.598 710.339, 638.470 712.880, 638.993 715.100 C 639.651 717.890, 639.813 718.051, 639.894 716 C 640.021 712.768, 636.938 707.753, 633.060 704.886 C 629.738 702.430, 629.257 700.538, 631.332 698.079 C 632.065 697.210, 636.392 688.625, 640.948 679 C 646.618 667.022, 650.275 660.553, 652.537 658.500 C 654.457 656.756, 660.707 646.708, 667.465 634.500 C 677.116 617.067, 681.634 610.202, 694.069 594.080 C 712.472 570.220, 715.226 566.970, 731.396 550.034 C 738.490 542.605, 746.127 534.045, 748.369 531.013 C 750.611 527.981, 754.983 522.737, 758.084 519.361 C 765.376 511.424, 776 495.529, 776 492.557 C 776 491.285, 775.420 489.764, 774.711 489.175 C 772.971 487.731, 762.559 486.147, 747.055 484.967 C 724.205 483.228, 697.953 477.898, 676.500 470.641 C 666.050 467.106, 655.907 463.524, 653.959 462.681 C 652.009 461.837, 647.144 457.521, 643.127 453.072 C 635.246 444.345, 632.405 442.849, 628.528 445.390 C 623.662 448.578, 603.617 446.678, 599.113 442.602 C 598.186 441.763, 595.284 440.128, 592.664 438.970 C 585.857 435.959, 583.098 436.878, 576.748 444.271 C 568.052 454.398, 540.678 482.006, 538 483.350 C 535.604 484.553, 528.606 489.751, 513.500 501.546 C 509.650 504.552, 500.875 509.968, 494 513.581 C 487.125 517.195, 479.250 521.461, 476.500 523.062 C 468.918 527.476, 462.523 529.630, 439.550 535.506 C 412.713 542.370, 387.296 546.365, 373.889 545.827 C 364.683 545.457, 363.640 545.185, 355.637 541.070 C 350.968 538.670, 344.474 534.410, 341.206 531.603 C 337.937 528.796, 332.391 524.364, 328.881 521.752 C 325.372 519.141, 318 513.133, 312.500 508.401 C 307 503.668, 300.779 498.690, 298.675 497.338 C 284.612 488.301, 234.987 440.235, 226.055 427 C 221.334 420.004, 220.968 419.002, 219.950 410.297 C 219.487 406.335, 218.296 401.855, 217.304 400.341 C 216.312 398.827, 215.613 397.456, 215.750 397.294 C 215.887 397.132, 215.993 396.438, 215.985 395.750 C 215.974 394.903, 215.669 394.975, 215.039 395.971 C 214.527 396.780, 213.780 397.113, 213.377 396.710 C 212.975 396.308, 213.660 395.034, 214.900 393.878 C 216.949 391.969, 217.107 391.125, 216.625 384.639 C 215.587 370.664, 214.144 315.037, 214.073 286.219 C 213.989 252.648, 213.867 253.068, 221.733 260.002 C 224.355 262.314, 228.175 265.062, 230.222 266.109 C 232.269 267.156, 235.532 269.406, 237.472 271.110 C 240.406 273.686, 241 274.881, 241 278.211 C 241 281.418, 241.309 282.096, 242.552 281.618 C 243.406 281.291, 243.853 281.429, 243.546 281.926 C 243.239 282.423, 243.516 283.005, 244.161 283.220 C 245.059 283.520, 245.060 284.704, 244.168 288.249 C 242.460 295.030, 242.702 298.165, 245.638 307.296 C 248.857 317.307, 259.248 338.485, 262.788 342.250 C 265.197 344.812, 265.929 345, 273.496 345 C 278.875 345, 282.264 344.528, 283.530 343.602 C 285.202 342.379, 285.747 342.442, 287.856 344.102 C 296.259 350.711, 302.137 339.833, 305.472 311.500 C 308.619 284.759, 308.485 263.639, 305.135 258.219 C 303.819 256.090, 300.510 258.141, 298.500 262.331 C 295.857 267.840, 293.060 268.263, 288.634 263.823 C 286.812 261.995, 285.137 259.949, 284.911 259.276 C 284.671 258.562, 283.606 258.286, 282.357 258.614 C 280.549 259.089, 279.940 260.588, 278.465 268.182 C 277.048 275.477, 276.818 280.444, 277.256 294.343 C 277.597 305.164, 278.332 313.162, 279.247 316 C 280.044 318.475, 281.252 323.407, 281.930 326.959 C 282.609 330.511, 283.816 334.678, 284.613 336.218 C 285.648 338.220, 285.775 339.552, 285.058 340.891 C 283.654 343.514, 281.866 344, 273.614 344 C 266.768 344, 266.231 343.831, 263.296 340.750 C 259.309 336.566, 250.057 317.930, 246.541 307 C 243.740 298.296, 243.744 298.420, 245.949 286 C 247.498 277.277, 252.139 261.464, 254.021 258.500 C 255.069 256.850, 257.096 253.322, 258.525 250.660 C 262.294 243.643, 268.763 237.041, 274.500 234.358 C 280.918 231.356, 285.076 231.357, 288.673 234.359 C 290.228 235.657, 293.075 237.520, 295 238.500 C 296.925 239.480, 299.772 241.343, 301.327 242.641 C 302.881 243.938, 304.747 245, 305.473 245 C 307.434 245, 312.890 251.628, 313.514 254.768 C 313.813 256.271, 314.567 258.850, 315.191 260.500 C 316.911 265.048, 317.167 273.013, 316.107 289 C 315.080 304.493, 314.311 309.586, 311.802 317.500 C 307.609 330.724, 307 332.900, 307 334.662 C 307 337.422, 304.324 340.797, 301.741 341.295 C 299.743 341.681, 299.785 341.742, 302.128 341.864 C 305.791 342.054, 306.717 340.542, 309.483 329.863 C 312.482 318.281, 314.837 309.436, 315.972 305.500 C 316.447 303.850, 317.145 294.119, 317.522 283.876 L 318.207 265.252 321.353 266.259 C 327.603 268.260, 327.466 267.995, 328 279.084 C 328.497 289.394, 328.518 289.465, 331.329 290.450 C 334.516 291.567, 333.658 292.373, 344.049 278.500 C 351.493 268.561, 359.371 258.891, 364.132 253.848 L 367.765 250 389.632 250 C 401.660 249.999, 421.113 250.510, 432.861 251.134 L 454.223 252.269 465.361 240.662 C 478.689 226.774, 485.436 222.829, 495.220 223.201 C 498.366 223.321, 500.456 223.718, 499.863 224.084 C 499.100 224.556, 499.108 224.949, 499.893 225.434 C 500.502 225.810, 501 225.641, 501 225.059 C 501 223.501, 505.314 223.770, 507.559 225.468 C 508.626 226.276, 510.298 226.951, 511.272 226.968 C 514.319 227.023, 521.627 234.758, 525.262 241.776 C 528.494 248.015, 529.930 252.956, 533.025 268.500 C 533.682 271.800, 535.295 277.729, 536.610 281.676 C 541.211 295.492, 539.701 306.563, 530.768 324.500 C 523.088 339.921, 522.093 341, 515.548 341 C 512.685 341, 509.527 340.357, 508.354 339.535 C 507.204 338.730, 505.888 338.392, 505.429 338.785 C 504.971 339.178, 505.376 338.375, 506.331 337 C 510.142 331.510, 512.023 325.756, 515.486 309 C 518.958 292.197, 519.085 290.863, 518.665 275.500 C 518.178 257.729, 517.038 249.514, 514.527 245.682 C 511.964 241.770, 510.289 243.323, 509.802 250.064 C 509.451 254.910, 508.844 256.554, 506.499 259.001 C 504.919 260.650, 502.845 262, 501.890 262 C 499.183 262, 494.320 257.348, 493.679 254.146 C 493.047 250.986, 490.299 249.300, 488.583 251.019 C 487.853 251.750, 487.500 262.106, 487.500 282.802 C 487.500 308.422, 487.802 315.052, 489.325 322.884 C 491.132 332.176, 490.935 336.784, 488.671 338.225 C 488.027 338.634, 484.304 338.976, 480.398 338.985 C 470.311 339.006, 467.959 337.186, 461.683 324.500 C 455.785 312.578, 454.611 306.437, 452.829 278.186 C 451.898 263.442, 451.886 258.118, 452.775 255.686 C 453.866 252.702, 453.840 252.627, 452.368 254.500 C 449.137 258.612, 452.959 306.920, 457.396 318.056 C 461.742 328.960, 466.951 337.082, 470.569 338.593 C 474.522 340.245, 488.574 340.498, 489.540 338.935 C 489.979 338.225, 490.756 338.374, 491.870 339.382 C 495.075 342.283, 498.260 342.851, 502.311 341.245 C 505.291 340.063, 506.663 339.981, 508.608 340.867 C 512.587 342.680, 521.418 342.308, 523.238 340.250 C 526.188 336.913, 537.749 312.474, 538.872 307.201 C 540.250 300.729, 540.343 289.033, 539.045 285.618 C 538.250 283.526, 538.417 283.002, 540.045 282.486 C 541.835 281.918, 541.996 280.922, 541.956 270.683 C 541.932 264.532, 541.463 257.475, 540.914 255 C 540.364 252.525, 539.659 248.441, 539.347 245.924 C 538.786 241.403, 538.843 241.292, 544.140 236.626 C 547.088 234.029, 552.425 229.943, 556 227.545 C 559.575 225.148, 566.315 219.319, 570.978 214.593 C 575.641 209.867, 580.274 206, 581.274 206 C 583.616 206, 591.020 221.594, 591.718 228 C 591.988 230.475, 592.878 234.525, 593.696 237 C 594.660 239.920, 595.493 248.804, 596.066 262.298 C 597.162 288.127, 598.334 293.169, 602.557 290.235 C 603.139 289.831, 605.264 286.125, 607.281 282 C 610.572 275.267, 612.440 269.337, 620.037 241.500 C 621.238 237.100, 624.249 229.225, 626.727 224 C 629.206 218.775, 632.513 211.800, 634.077 208.500 C 642.734 190.230, 645.714 184.774, 651.528 176.554 C 655.050 171.574, 659.910 165.835, 662.328 163.800 C 667.513 159.436, 670 154.711, 670 149.223 C 670 147.037, 671.140 142.605, 672.534 139.374 C 673.927 136.143, 675.449 132.600, 675.915 131.500 C 680.762 120.052, 695.171 94.328, 700.323 87.924 C 703.232 84.308, 706.205 79.920, 706.928 78.174 C 707.651 76.428, 708.606 75, 709.051 75 C 709.861 75, 720.527 59.819, 732.238 42 C 736.453 35.587, 743.278 27.604, 753.241 17.434 C 761.358 9.148, 768 1.780, 768 1.061 C 768 0.082, 767.664 0.034, 766.658 0.869 C 765.920 1.481, 764.982 1.649, 764.575 1.241 C 764.167 0.834, 763.983 1.175, 764.167 2 C 764.350 2.825, 764.017 3.414, 763.426 3.309 C 762.835 3.203, 756.985 8.601, 750.426 15.304 C 743.867 22.007, 741.987 24.129, 746.250 20.021 C 750.513 15.912, 754 13, 754 13.550 C 754 14.922, 739.529 29.196, 738.839 28.506 C 738.534 28.201, 737.658 28.750, 736.893 29.726 C 735.626 31.339, 735.659 31.376, 737.250 30.128 C 738.212 29.373, 739 29.205, 739 29.755 C 739 31.023, 736.487 33.154, 735.800 32.467 C 735.517 32.184, 734.658 32.750, 733.893 33.726 C 732.626 35.339, 732.659 35.376, 734.250 34.128 C 736.822 32.110, 736.394 33.567, 732.938 38.590 C 731.191 41.129, 729.406 42.751, 728.783 42.366 C 728.121 41.957, 727.978 42.155, 728.418 42.868 C 729.441 44.523, 710.972 71.988, 708.832 71.995 C 706.590 72.002, 703.712 66.988, 701.084 58.500 C 697.510 46.952, 695.090 42.010, 687.622 31.013 C 680.485 20.504, 664.690 3.348, 660 1.010 C 658.625 0.325, 662.458 4.655, 668.518 10.632 M 828.387 19.500 L 828.273 39.500 825.367 45 C 821.833 51.687, 799.505 81.664, 793.142 88.263 C 790.616 90.883, 786.289 94.194, 783.525 95.621 C 780.761 97.048, 777.600 99.005, 776.500 99.968 C 775.400 100.931, 767.616 105.629, 759.202 110.408 C 743.415 119.374, 739.450 122.300, 740.589 124.143 C 741.037 124.868, 741.508 124.797, 742.049 123.921 C 742.699 122.869, 743.148 122.878, 744.460 123.967 C 745.813 125.089, 748.048 125.021, 758.287 123.545 C 765.004 122.576, 771.678 121.222, 773.118 120.534 C 777.760 118.319, 825.427 124.634, 845.304 130.099 C 857.274 133.389, 876.529 140.557, 884.147 144.559 C 886.703 145.901, 889.268 147, 889.847 147 C 890.426 147, 892.919 148.363, 895.387 150.028 C 897.855 151.694, 902.040 154, 904.687 155.154 C 912.675 158.633, 930.066 173.546, 938.789 184.396 C 939.648 185.464, 941.653 185.994, 944.789 185.983 C 949.764 185.964, 966.413 183.481, 967.956 182.527 C 968.927 181.927, 1001.884 177.598, 1016 176.216 C 1024.316 175.402, 1024.208 175.385, 1011 175.426 C 1003.416 175.450, 998.815 175.780, 1000.500 176.179 C 1002.285 176.602, 1000.869 176.732, 997 176.500 C 992.054 176.203, 991.217 176.325, 993.500 177.008 C 995.740 177.679, 994.726 177.808, 989.500 177.519 C 984.409 177.236, 983.318 177.368, 985.500 178.001 C 987.553 178.597, 986.133 178.710, 981 178.359 C 975.873 178.008, 970.969 178.396, 965.500 179.585 C 961.100 180.543, 955.475 181.679, 953 182.111 C 949.321 182.752, 949.777 182.824, 955.500 182.507 C 965.057 181.976, 959.468 183.791, 948.888 184.654 C 940.464 185.341, 941.735 186.007, 934.263 177 C 930.360 172.297, 931.638 173.055, 939.728 180.243 C 942.234 182.471, 944.880 183.945, 946.228 183.864 L 948.500 183.728 946.247 183.294 C 945.008 183.055, 939.158 178.527, 933.247 173.232 C 927.336 167.936, 923.357 164.593, 924.405 165.802 C 926.785 168.548, 924.976 168.736, 922.500 166 C 921.505 164.900, 921.069 164, 921.532 164 C 923.194 164, 916.420 157.776, 912.645 155.835 C 910.525 154.745, 909.090 154.336, 909.454 154.926 C 910.556 156.709, 908.836 156.117, 901.500 152.188 C 897.650 150.126, 894.607 147.907, 894.738 147.256 C 894.883 146.536, 894.328 146.321, 893.324 146.706 C 892.127 147.165, 891.897 146.975, 892.490 146.015 C 893.027 145.147, 892.922 144.930, 892.186 145.385 C 891.568 145.767, 889.361 145.182, 887.281 144.084 C 885.201 142.986, 883.860 142.069, 884.300 142.044 C 884.739 142.020, 886.427 142.687, 888.050 143.526 C 889.672 144.365, 891 144.826, 891 144.551 C 891 143.298, 885.059 141.162, 882.903 141.640 C 881.217 142.014, 880.898 141.891, 881.834 141.226 C 882.910 140.461, 882.847 140.155, 881.502 139.639 C 879.057 138.701, 878.279 138.888, 880 140 C 883.575 142.310, 877.818 140.829, 868.866 137.135 C 863.715 135.009, 858.150 132.760, 856.500 132.137 L 853.500 131.003 856.697 131.321 C 858.456 131.495, 859.640 131.226, 859.329 130.723 C 859.018 130.220, 856.679 130.068, 854.132 130.385 C 850.730 130.808, 850.031 130.702, 851.500 129.983 C 853.083 129.209, 852.771 129.106, 850 129.491 C 848.075 129.758, 847.126 129.698, 847.891 129.358 C 848.779 128.963, 847.875 128.249, 845.391 127.385 C 840.712 125.756, 838.957 125.643, 841 127.102 C 842.176 127.942, 841.960 128.050, 840 127.600 C 838.625 127.285, 837.050 127.014, 836.500 126.998 C 835.950 126.982, 836.175 126.510, 837 125.948 C 838.089 125.206, 837.405 125.076, 834.500 125.474 C 831.378 125.901, 830.939 125.798, 832.500 125.003 C 834.023 124.227, 833.308 124.101, 829.500 124.473 C 825.907 124.824, 825.063 124.695, 826.500 124.016 C 827.928 123.341, 826.928 123.199, 823 123.517 C 819.039 123.839, 818.199 123.717, 820 123.082 C 822.142 122.326, 821.785 122.158, 817.500 121.907 C 814.750 121.746, 810.250 121.669, 807.500 121.737 C 803.107 121.844, 802.864 121.752, 805.500 120.976 C 807.708 120.327, 806.651 120.196, 801.500 120.481 C 796.364 120.766, 795.299 120.635, 797.500 119.990 C 799.661 119.356, 798.403 119.219, 793 119.500 C 787.541 119.784, 786.317 119.648, 788.500 119 C 790.590 118.380, 789.299 118.276, 784.242 118.657 C 777.818 119.142, 777.056 119.018, 777.609 117.577 C 778.119 116.249, 778.534 116.175, 779.867 117.176 C 781.240 118.208, 781.301 118.181, 780.250 117.002 C 778.092 114.582, 778.848 112.485, 784 106.597 C 786.750 103.455, 789 100.483, 789 99.994 C 789 99.504, 791.341 96.268, 794.203 92.802 C 799.242 86.699, 799.279 86.610, 795.366 90 C 793.145 91.925, 791.486 93.806, 791.680 94.181 C 791.874 94.555, 791.615 95.120, 791.104 95.436 C 790.593 95.751, 790.276 95.326, 790.398 94.491 C 790.679 92.582, 798.071 84.926, 799.049 85.530 C 799.448 85.777, 800.387 85.195, 801.137 84.239 C 802.370 82.665, 802.334 82.630, 800.750 83.872 C 798.622 85.541, 798.384 83.756, 800.500 82 C 801.325 81.315, 802 81.090, 802 81.500 C 802 82.715, 804.938 79.912, 807.147 76.589 C 809.015 73.780, 808.875 73.838, 805.601 77.235 C 803.620 79.290, 802 80.743, 802 80.465 C 802 79.795, 819.131 57, 819.635 57 C 819.849 57, 818.889 58.800, 817.500 61 C 813.915 66.679, 815.237 65.955, 819.783 59.750 C 824.889 52.781, 825.648 51.481, 824.025 52.485 C 823.163 53.017, 822.907 52.821, 823.245 51.889 C 823.523 51.125, 824.290 50.624, 824.949 50.775 C 825.609 50.926, 825.889 50.629, 825.571 50.115 C 825.254 49.601, 825.864 47.150, 826.928 44.669 C 828.313 41.436, 829.519 40.064, 831.181 39.829 C 834.657 39.336, 853.719 10.953, 856.064 2.778 C 857.293 -1.508, 856.390 -0.533, 853.710 5.322 C 850.581 12.157, 833.606 37.553, 831.670 38.296 C 830.859 38.608, 829.910 38.577, 829.561 38.227 C 829.212 37.878, 829.184 32.172, 829.500 25.546 C 829.816 18.921, 829.720 10.350, 829.287 6.500 C 828.679 1.089, 828.474 4.040, 828.387 19.500 M 982.597 10.250 C 981.787 22.546, 982.865 26.965, 988.811 35.722 C 996.122 46.488, 1008.824 54.118, 1019 53.857 L 1024.500 53.716 1018 53.027 C 1006.916 51.853, 996.488 45.026, 989.051 34.075 C 983.732 26.243, 982.771 21.995, 983.599 9.979 C 983.977 4.490, 984.058 0, 983.779 0 C 983.501 0, 982.969 4.612, 982.597 10.250 M 1005.147 3.687 C 1001.787 13.155, 1002.796 20.420, 1008.347 26.743 C 1011.794 30.668, 1018.105 33.981, 1022 33.911 C 1023.570 33.882, 1022.708 33.383, 1019.683 32.570 C 1014.228 31.104, 1007.580 25.391, 1005.384 20.282 C 1003.551 16.019, 1003.629 9.618, 1005.560 5.883 C 1006.419 4.224, 1006.981 2.192, 1006.810 1.370 C 1006.640 0.547, 1005.891 1.589, 1005.147 3.687 M 765.009 3.489 C 764.329 4.308, 763.449 4.777, 763.052 4.532 C 762.656 4.287, 760.415 6.040, 758.072 8.427 C 755.730 10.813, 754.228 13.023, 754.735 13.336 C 755.241 13.649, 758.307 11.227, 761.547 7.953 C 764.787 4.679, 767.169 2, 766.841 2 C 766.513 2, 765.689 2.670, 765.009 3.489 M 660 5.378 C 660 5.585, 660.788 6.373, 661.750 7.128 C 663.336 8.371, 663.371 8.336, 662.128 6.750 C 660.821 5.084, 660 4.555, 660 5.378 M 665.500 7 C 666.495 8.100, 667.535 9, 667.810 9 C 668.085 9, 667.495 8.100, 666.500 7 C 665.505 5.900, 664.465 5, 664.190 5 C 663.915 5, 664.505 5.900, 665.500 7 M 758.453 9.250 L 754.500 13.500 758.750 9.547 C 762.702 5.871, 763.460 5, 762.703 5 C 762.540 5, 760.627 6.912, 758.453 9.250 M 674 19.500 C 675.866 21.425, 677.617 23, 677.892 23 C 678.167 23, 676.866 21.425, 675 19.500 C 673.134 17.575, 671.383 16, 671.108 16 C 670.833 16, 672.134 17.575, 674 19.500 M 334.500 35.233 C 331.825 36.801, 322.039 38.307, 313.832 38.414 C 310.164 38.461, 307.389 38.725, 307.664 39 C 308.424 39.758, 322.870 40.596, 322.411 39.855 C 321.846 38.942, 324.664 38, 327.960 38 C 329.498 38, 332.409 37.309, 334.431 36.465 C 336.664 35.531, 339.555 35.143, 341.803 35.475 C 344.571 35.884, 344.997 35.785, 343.500 35.081 C 340.724 33.776, 336.875 33.841, 334.500 35.233 M 358.500 37.458 C 361.250 38.257, 365.772 38.932, 368.550 38.956 C 371.327 38.980, 374.140 39.540, 374.800 40.200 C 375.733 41.133, 376 41.133, 376 40.200 C 376 38.057, 378.780 38.931, 380.933 41.750 L 383.033 44.500 381.845 41.726 C 380.525 38.643, 379.557 38.316, 369.500 37.560 C 365.650 37.270, 360.475 36.801, 358 36.518 L 353.500 36.003 358.500 37.458 M 341.500 39.580 C 345.900 40.377, 354.900 41.462, 361.500 41.992 C 368.100 42.522, 375.075 43.191, 377 43.479 L 380.500 44.003 377 42.577 C 374.998 41.762, 369.863 41.117, 365 41.071 C 360.325 41.026, 354.925 40.579, 353 40.078 C 351.075 39.577, 345.900 38.934, 341.500 38.649 L 333.500 38.131 341.500 39.580 M 330.813 39.683 C 331.534 39.972, 332.397 39.936, 332.729 39.604 C 333.061 39.272, 332.471 39.036, 331.417 39.079 C 330.252 39.127, 330.015 39.364, 330.813 39.683 M 305.540 42.275 C 306.295 42.702, 309.745 42.641, 313.207 42.141 L 319.500 41.231 311.834 41.366 C 307.617 41.439, 304.785 41.849, 305.540 42.275 M 385.573 42.670 C 384.962 44.262, 386.424 45.952, 388.441 45.985 C 388.959 45.993, 388.509 45.339, 387.441 44.532 C 386.348 43.705, 386.046 43.050, 386.750 43.032 C 387.438 43.014, 388 42.550, 388 42 C 388 40.379, 386.269 40.857, 385.573 42.670 M 828.736 45.256 L 826.971 48.500 828.986 46.139 C 830.700 44.130, 831.616 41.984, 830.750 42.006 C 830.612 42.010, 829.706 43.472, 828.736 45.256 M 25.202 44.049 C 23.939 44.556, 21.464 46.050, 19.702 47.369 C 15.807 50.287, 13.282 51.115, 5.500 52.025 C -0.135 52.684, -0.226 52.734, 4 52.858 C 10.196 53.038, 15.481 51.415, 22.250 47.252 C 28.961 43.125, 29.815 42.198, 25.202 44.049 M 725 46 C 724.411 47.100, 724.155 48, 724.430 48 C 724.705 48, 725.411 47.100, 726 46 C 726.589 44.900, 726.845 44, 726.570 44 C 726.295 44, 725.589 44.900, 725 46 M 719.872 53.750 C 718.629 55.336, 718.664 55.371, 720.250 54.128 C 721.916 52.821, 722.445 52, 721.622 52 C 721.415 52, 720.627 52.788, 719.872 53.750 M 821 54.500 C 820.293 55.352, 819.940 56.273, 820.215 56.548 C 820.490 56.823, 821.293 56.352, 822 55.500 C 822.707 54.648, 823.060 53.727, 822.785 53.452 C 822.510 53.177, 821.707 53.648, 821 54.500 M 812.872 67.750 C 811.629 69.336, 811.664 69.371, 813.250 68.128 C 814.916 66.821, 815.445 66, 814.622 66 C 814.415 66, 813.627 66.787, 812.872 67.750 M 809.872 71.750 C 808.629 73.336, 808.664 73.371, 810.250 72.128 C 811.916 70.821, 812.445 70, 811.622 70 C 811.415 70, 810.627 70.787, 809.872 71.750 M 195.359 86.923 C 193.632 87.976, 191.913 89.332, 191.540 89.936 C 190.979 90.843, 197.439 86.895, 198.891 85.443 C 199.867 84.467, 198.333 85.109, 195.359 86.923 M 188.872 88.750 C 187.629 90.336, 187.664 90.371, 189.250 89.128 C 190.213 88.373, 191 87.585, 191 87.378 C 191 86.555, 190.179 87.084, 188.872 88.750 M 783.854 96.956 C 781.298 98.561, 778.864 99.565, 778.444 99.187 C 778.023 98.809, 777.957 98.989, 778.297 99.586 C 778.664 100.230, 771.560 104.867, 760.826 110.989 C 742.861 121.236, 742.756 121.316, 745.423 122.714 C 747.747 123.931, 749.483 123.908, 758.304 122.542 C 774.856 119.979, 774 120.310, 774 116.480 C 774 114.631, 774.408 112.866, 774.907 112.558 C 775.405 112.249, 775.562 112.958, 775.255 114.133 C 774.853 115.670, 775.089 116.138, 776.098 115.806 C 776.869 115.551, 777.640 114.399, 777.810 113.244 C 777.981 112.090, 779.829 109.200, 781.917 106.823 C 785.822 102.378, 790.642 93.985, 789.270 94.019 C 788.847 94.029, 786.409 95.351, 783.854 96.956 M 163.872 109.750 C 162.629 111.336, 162.664 111.371, 164.250 110.128 C 165.213 109.373, 166 108.585, 166 108.378 C 166 107.555, 165.179 108.084, 163.872 109.750 M 159.872 112.750 C 158.629 114.336, 158.664 114.371, 160.250 113.128 C 161.213 112.373, 162 111.585, 162 111.378 C 162 110.555, 161.179 111.084, 159.872 112.750 M 152.139 118.033 C 150.841 119.115, 150.209 120, 150.734 120 C 151.260 120, 152.505 119.100, 153.500 118 C 155.787 115.473, 155.195 115.487, 152.139 118.033 M 142.872 124.750 C 141.629 126.336, 141.664 126.371, 143.250 125.128 C 144.213 124.373, 145 123.585, 145 123.378 C 145 122.555, 144.179 123.084, 142.872 124.750 M 130.554 136.750 C 125.099 142.662, 122.557 145.700, 124.904 143.500 C 129.326 139.356, 141.486 126, 140.838 126 C 140.636 126, 136.008 130.838, 130.554 136.750 M 665 132.495 C 662.525 133.801, 659.375 135.350, 658 135.937 C 655.720 136.910, 655.794 136.952, 658.835 136.404 C 662.762 135.697, 674.058 129.972, 671.352 130.061 C 670.333 130.094, 667.475 131.189, 665 132.495 M 118.405 150.250 L 116.500 152.500 118.750 150.595 C 120.864 148.805, 121.455 148, 120.655 148 C 120.465 148, 119.453 149.012, 118.405 150.250 M 898 148.393 C 898 148.609, 898.698 149.054, 899.552 149.382 C 900.442 149.723, 900.843 149.555, 900.493 148.989 C 899.906 148.038, 898 147.583, 898 148.393 M 114.459 156.067 C 114.096 156.653, 114.014 157.348, 114.276 157.610 C 114.538 157.872, 115.019 157.392, 115.345 156.543 C 116.021 154.781, 115.445 154.471, 114.459 156.067 M 914.173 159.294 C 919.897 163.651, 921.499 164.617, 920.603 163.167 C 919.816 161.893, 911.504 156, 910.493 156 C 910.138 156, 911.794 157.482, 914.173 159.294 M 662.437 162.250 L 659.500 165.500 662.750 162.563 C 664.538 160.948, 666 159.485, 666 159.313 C 666 158.540, 665.175 159.221, 662.437 162.250 M 521 168.708 C 493.362 173.528, 452.674 194.492, 436.186 212.407 C 428.753 220.483, 433.052 224.312, 441.420 217.069 C 458.818 202.011, 521.329 184.817, 543.664 188.946 C 546.801 189.526, 551.760 190, 554.684 190 C 559.892 190, 560 189.941, 560 187.080 C 560 184.744, 558.649 182.938, 553.250 178.056 C 543.953 169.649, 540.170 167.967, 530.934 168.136 C 526.845 168.211, 522.375 168.469, 521 168.708 M 928 170.500 C 929.292 171.875, 930.574 173, 930.849 173 C 931.124 173, 930.292 171.875, 929 170.500 C 927.708 169.125, 926.426 168, 926.151 168 C 925.876 168, 926.708 169.125, 928 170.500 M 521 169.708 C 509.888 171.646, 493.472 177.338, 480 183.924 C 465.815 190.859, 459.553 194.674, 449.776 202.338 C 439.176 210.647, 434.542 215.450, 435.552 217.084 C 436.093 217.960, 435.840 218.153, 434.715 217.721 C 433.589 217.289, 433.268 217.534, 433.651 218.533 C 434.288 220.192, 436.683 219.214, 441.221 215.440 C 446.036 211.437, 468.500 201.262, 480.676 197.570 C 507.449 189.452, 534.686 185.491, 547.501 187.852 C 555.907 189.401, 557.666 189.304, 558.478 187.250 C 559 185.931, 557.492 183.955, 552.360 179.230 C 543.226 170.822, 539.192 168.964, 530.434 169.136 C 526.620 169.211, 522.375 169.469, 521 169.708 M 6.750 172.743 C 10.738 172.932, 17.263 172.932, 21.250 172.743 C 25.238 172.553, 21.975 172.397, 14 172.397 C 6.025 172.397, 2.762 172.553, 6.750 172.743 M 1014.728 173.722 C 1016.503 173.943, 1019.653 173.946, 1021.728 173.730 C 1023.802 173.513, 1022.350 173.333, 1018.500 173.328 C 1014.650 173.324, 1012.952 173.501, 1014.728 173.722 M 7 174.996 C 13.866 175.810, 28.624 176.257, 27.917 175.631 C 27.687 175.428, 21.425 175.029, 14 174.744 C 5.284 174.410, 2.803 174.499, 7 174.996 M 1007.269 174.693 C 1008.242 174.947, 1009.592 174.930, 1010.269 174.656 C 1010.946 174.382, 1010.150 174.175, 1008.500 174.195 C 1006.850 174.215, 1006.296 174.439, 1007.269 174.693 M 242 178.943 C 236.135 182.052, 229 188.922, 229 191.463 C 229 195.203, 231.404 196.183, 242.739 197.063 C 259.649 198.375, 272.197 201.600, 293 209.977 C 301.724 213.490, 307.969 215.226, 309.614 214.595 C 310.588 214.221, 311.020 213.022, 310.817 211.256 C 310.572 209.128, 309.731 208.251, 307.124 207.409 C 305.267 206.809, 301.667 204.627, 299.124 202.561 C 296.581 200.495, 291.350 197.007, 287.500 194.811 C 283.650 192.616, 279.825 190.408, 279 189.905 C 278.175 189.402, 275.025 187.815, 272 186.378 C 250.023 175.934, 248.426 175.538, 242 178.943 M 239.360 182.347 C 231.260 188.356, 229.312 190.686, 230.637 192.786 C 231.998 194.944, 235.121 195.777, 242.308 195.900 C 252.943 196.083, 273.829 201.041, 287 206.509 C 301.161 212.388, 303.438 213.149, 305.608 212.735 C 306.885 212.490, 308.106 212.788, 308.320 213.395 C 308.535 214.003, 308.719 213.257, 308.730 211.738 C 308.746 209.572, 308.183 208.842, 306.125 208.356 C 304.681 208.016, 301.975 206.559, 300.111 205.119 C 291.074 198.137, 289.107 196.811, 283.901 194.196 C 280.822 192.649, 277.128 190.459, 275.692 189.330 C 274.256 188.200, 271.601 186.724, 269.791 186.048 C 267.981 185.372, 262.900 183.281, 258.500 181.401 C 254.100 179.522, 249.312 177.987, 247.860 177.992 C 246.320 177.997, 242.779 179.811, 239.360 182.347 M 407.872 180.750 C 406.629 182.336, 406.664 182.371, 408.250 181.128 C 409.212 180.373, 410 179.585, 410 179.378 C 410 178.555, 409.179 179.084, 407.872 180.750 M 969 180.039 C 967.432 180.566, 968.924 180.666, 973 180.307 C 976.575 179.992, 979.688 179.570, 979.917 179.367 C 980.736 178.645, 971.451 179.216, 969 180.039 M 138 183 C 138.825 183.533, 139.950 183.969, 140.500 183.969 C 141.050 183.969, 140.825 183.533, 140 183 C 139.175 182.467, 138.050 182.031, 137.500 182.031 C 136.950 182.031, 137.175 182.467, 138 183 M 193.500 189.645 C 179.778 196.056, 176.931 197.049, 173.500 196.625 C 170.399 196.242, 169.913 196.363, 171.338 197.165 C 174.406 198.890, 178.855 197.576, 194 190.471 C 201.975 186.729, 209.724 183.678, 211.219 183.689 C 212.715 183.701, 213.701 183.325, 213.410 182.855 C 212.389 181.202, 209.358 182.236, 193.500 189.645 M 636 193.059 C 636 193.641, 636.450 193.840, 637 193.500 C 637.550 193.160, 638 192.684, 638 192.441 C 638 192.198, 637.550 192, 637 192 C 636.450 192, 636 192.477, 636 193.059 M 273 217.935 C 263.661 220.786, 252.816 230.883, 247.996 241.212 C 245.333 246.921, 242 259.517, 242 263.874 C 242 264.833, 242.635 266.487, 243.412 267.549 C 244.781 269.421, 244.854 269.404, 245.797 266.990 C 246.333 265.621, 247.486 262.025, 248.359 259 C 250.371 252.034, 259.068 236.684, 263.848 231.664 C 269.278 225.960, 275.750 222.996, 282.717 223.022 C 291.030 223.054, 295.898 225.600, 301.136 232.656 C 303.521 235.870, 305.479 238.800, 305.487 239.167 C 305.494 239.533, 305.950 240.208, 306.500 240.667 C 307.068 241.140, 307.179 241.107, 306.759 240.592 C 306.351 240.093, 306.519 239.080, 307.131 238.342 C 307.950 237.355, 307.948 237, 307.122 237 C 306.505 237, 306 236.579, 306 236.065 C 306 235.551, 305.477 233.863, 304.839 232.315 C 304.200 230.767, 303.735 229.206, 303.807 228.846 C 303.878 228.486, 303.275 227.644, 302.468 226.973 C 301.661 226.303, 301 226.028, 301 226.362 C 301 226.696, 298.653 225.193, 295.784 223.021 C 288.913 217.821, 279.937 215.817, 273 217.935 M 503.750 226.662 C 504.438 226.940, 505.563 226.940, 506.250 226.662 C 506.938 226.385, 506.375 226.158, 505 226.158 C 503.625 226.158, 503.063 226.385, 503.750 226.662 M 661.500 236.404 C 644.595 241.773, 634.986 253.698, 634.167 270.324 C 633.643 280.957, 635.203 286.011, 640.522 290.914 C 645.613 295.606, 650.002 296.987, 659.849 296.994 C 668.959 297.001, 672.274 295.518, 678.968 288.440 C 685.868 281.144, 688.978 274.260, 688.990 266.250 C 688.998 261.357, 688.674 260, 687.500 260 C 686.414 260, 686 258.883, 686 255.950 C 686 252.096, 683.411 245.256, 682.353 246.314 C 682.078 246.589, 682.561 248.184, 683.426 249.857 C 687.110 256.980, 683.321 265, 676.272 265 C 671.735 265, 667 260.714, 667 256.607 C 667 252.620, 672.327 247, 676.106 247 C 683.446 247, 683.224 240.739, 675.756 237.124 C 670.814 234.731, 667.322 234.555, 661.500 236.404 M 663 236.938 C 657.041 238.766, 648.091 244.157, 644.598 248.023 C 642.518 250.326, 639.508 254.975, 637.909 258.355 C 635.491 263.466, 635.001 265.783, 635.001 272.128 C 635 276.476, 635.611 281.206, 636.422 283.128 C 638.245 287.453, 643.473 292.470, 648.218 294.449 C 653.160 296.511, 665.158 296.493, 669.531 294.418 C 674.139 292.232, 682.262 283.390, 685.459 277.080 C 687.759 272.541, 688.030 271.088, 687.446 266.413 C 687.074 263.436, 686.450 261, 686.059 261 C 685.668 261, 684.292 262.125, 683 263.500 C 679.692 267.021, 673.318 266.980, 669.077 263.411 C 666.615 261.340, 666 260.047, 666 256.946 C 666 251.998, 670.838 246.008, 674.854 245.985 C 681.314 245.947, 681.150 241.219, 674.577 238.037 C 670.200 235.918, 667.242 235.638, 663 236.938 M 511.564 245.707 C 511.022 247.132, 511.136 247.247, 512.124 246.267 C 512.808 245.588, 513.115 244.781, 512.807 244.474 C 512.499 244.166, 511.940 244.721, 511.564 245.707 M 512.250 247.708 C 511.563 247.960, 511 249.269, 511 250.615 C 511 257.242, 505.356 263.808, 500.670 262.632 C 497.199 261.761, 493 258.122, 493 255.986 C 493 253.352, 491.440 252.703, 489.581 254.562 C 487.341 256.802, 487.278 301.724, 489.498 313.326 C 490.322 317.631, 491.168 324.806, 491.380 329.272 C 491.707 336.197, 492.091 337.656, 493.993 339.195 C 496.819 341.484, 500.554 341.508, 502.537 339.250 C 509.844 330.927, 510.356 329.585, 514.969 306.655 C 517.843 292.370, 518.066 289.864, 517.673 276.292 C 517.234 261.140, 515.852 249.394, 514.347 248.022 C 513.881 247.597, 512.938 247.456, 512.250 247.708 M 954.115 251.908 C 950.662 254.094, 958.150 264.388, 968.942 272.290 C 971.999 274.529, 974.831 276.842, 975.235 277.430 C 977.314 280.458, 974.263 322.041, 971.472 328.722 C 970.662 330.659, 969.989 333.652, 969.975 335.372 C 969.961 337.092, 968.592 343.675, 966.933 350 C 965.274 356.325, 963.540 363.975, 963.079 367 C 962.242 372.488, 959.384 383.124, 957.977 385.988 C 957.149 387.671, 955.141 392.435, 953.966 395.500 C 953.544 396.600, 952.254 399.633, 951.100 402.239 C 949.945 404.846, 949.001 407.321, 949.002 407.739 C 949.004 408.158, 947.600 411.875, 945.882 416 C 942.029 425.254, 941.283 427.100, 930.123 455 C 925.174 467.375, 916.214 488.075, 910.213 501 C 904.212 513.925, 898.794 526.075, 898.172 528 C 896.874 532.018, 888.487 578.536, 886.904 590.500 C 883.175 618.679, 882.499 619.610, 875.695 605.933 C 872.131 598.768, 871.092 597.453, 868.785 597.187 C 866.565 596.931, 865.563 597.622, 863.285 600.981 C 859.261 606.914, 852.864 615.403, 845.939 624 C 842.617 628.125, 839.177 632.850, 838.295 634.500 C 833.606 643.275, 821.171 657.541, 805.898 671.667 C 790.142 686.241, 763.022 707.840, 754.346 712.725 C 752.061 714.011, 749.586 715.804, 748.846 716.708 C 746.079 720.089, 757.931 712.335, 774 700.252 C 805.033 676.916, 826.863 654.930, 842.260 631.500 C 844.790 627.650, 849.401 621.575, 852.506 618 C 855.611 614.425, 859.355 609.555, 860.826 607.177 C 865.289 599.964, 867.536 597.608, 869.305 598.287 C 870.892 598.896, 877 609.842, 877 612.077 C 877 613.056, 878.323 614.954, 883.015 620.708 C 884.411 622.419, 884.238 626.668, 882.500 633.339 C 881.675 636.506, 881 641.014, 881 643.356 C 881 653.214, 871.163 698.220, 866.963 707.583 C 865.333 711.215, 864.046 715.157, 864.102 716.343 C 864.179 717.969, 864.396 717.761, 864.980 715.500 C 865.406 713.850, 866.902 710.025, 868.304 707 C 871.011 701.161, 877.693 672.505, 880.430 655 C 881.333 649.225, 882.487 642.025, 882.995 639 C 885.094 626.506, 885.284 622.900, 883.973 620.450 C 882.898 618.440, 882.916 617.286, 884.078 613.765 L 885.482 609.509 886.174 612.505 C 886.554 614.152, 886.625 612.959, 886.330 609.854 C 885.694 603.135, 886.822 596.271, 888.033 599.500 C 888.445 600.600, 888.557 598.800, 888.281 595.500 C 887.903 590.991, 889.068 582.209, 892.967 560.155 C 895.821 544.014, 898.740 529.164, 899.454 527.155 C 900.168 525.145, 906.360 511.350, 913.213 496.500 C 920.066 481.650, 928.510 462.375, 931.977 453.668 C 935.523 444.761, 938.596 438.346, 939.001 439.002 C 939.505 439.817, 939.911 439.675, 940.349 438.532 C 940.716 437.576, 940.566 437.150, 939.989 437.507 C 938.161 438.636, 938.972 435.969, 945.097 420.700 C 961.800 379.060, 960.676 382.344, 965.640 360.689 C 966.900 355.196, 967.651 353.415, 968.171 354.689 C 968.579 355.685, 968.714 354.475, 968.472 352 C 968.117 348.374, 968.216 347.986, 968.981 350 C 969.741 352.003, 969.838 351.606, 969.468 348 C 969.121 344.614, 969.248 343.995, 969.980 345.500 C 970.724 347.031, 970.839 346.561, 970.466 343.500 C 970.139 340.818, 970.256 340.142, 970.821 341.446 C 971.609 343.265, 971.707 343.232, 972.318 340.946 C 972.678 339.601, 972.972 337.600, 972.971 336.500 C 972.970 334.812, 972.803 334.734, 971.900 336 C 970.767 337.590, 970.970 336.193, 973.498 325 C 974.606 320.092, 974.792 319.823, 975.224 322.500 C 975.490 324.150, 975.575 321.900, 975.412 317.500 C 975.178 311.174, 975.294 310.337, 975.963 313.500 C 976.608 316.546, 976.743 315.354, 976.526 308.500 C 976.327 302.163, 976.457 300.832, 976.966 304 C 977.364 306.475, 977.477 301.525, 977.217 293 C 976.957 284.475, 976.352 277.072, 975.872 276.550 C 974.523 275.081, 974.841 274.002, 976.442 274.616 C 977.235 274.920, 978.053 276.369, 978.260 277.835 C 978.467 279.301, 978.606 277.125, 978.568 273 C 978.494 264.869, 979.434 260, 981.078 260 C 981.650 260, 981.880 260.385, 981.589 260.856 C 981.298 261.326, 982.284 261.545, 983.780 261.342 C 986.163 261.018, 986.252 261.095, 984.500 261.963 C 982.951 262.730, 983.402 262.843, 986.500 262.466 C 989.601 262.088, 990.050 262.201, 988.500 262.970 C 987.025 263.701, 987.748 263.805, 991.250 263.367 C 993.862 263.040, 998.138 263.131, 1000.750 263.569 L 1005.500 264.365 1002 265.129 C 999.513 265.672, 1000.382 265.781, 1005 265.507 C 1009.485 265.241, 1010.725 265.388, 1009 265.983 C 1007.314 266.565, 1009.103 266.745, 1014.500 266.537 C 1020.681 266.299, 1021.477 266.402, 1018 266.990 L 1013.500 267.751 1018.265 267.625 C 1025.596 267.433, 1023.926 265.578, 1015.773 264.857 C 1011.773 264.504, 1007.233 263.716, 1005.685 263.107 C 1004.137 262.498, 1000.185 262, 996.903 262 C 993.621 262, 989.320 261.325, 987.346 260.500 C 985.371 259.675, 982.798 258.997, 981.628 258.994 C 980.458 258.990, 978.150 258.266, 976.500 257.384 C 972.230 255.101, 960.034 250.997, 957.575 251.015 C 956.434 251.024, 954.877 251.425, 954.115 251.908 M 955.750 252.689 C 954.788 252.941, 954 253.464, 954 253.851 C 954 256.577, 964.236 267.512, 969.182 270.068 C 971.207 271.115, 973.206 272.540, 973.624 273.236 C 974.091 274.013, 973.636 273.922, 972.442 273 C 970.642 271.609, 970.601 271.628, 971.883 273.262 C 972.849 274.493, 973.630 274.722, 974.475 274.021 C 975.140 273.469, 975.980 273.238, 976.342 273.509 C 976.704 273.779, 976.834 273.759, 976.631 273.465 C 976.429 273.170, 976.863 270.133, 977.596 266.715 C 979.227 259.116, 979.233 259, 978.031 259 C 977.499 259, 977.288 259.788, 977.562 260.750 C 977.858 261.785, 977.599 261.628, 976.929 260.365 C 975.593 257.844, 973.543 256.694, 965.593 254.001 C 959.603 251.972, 958.870 251.874, 955.750 252.689 M 282.250 259.720 C 281.563 259.966, 281 261.399, 281 262.905 C 281 264.411, 280.263 267.807, 279.362 270.452 C 277.993 274.467, 277.809 278.246, 278.243 293.380 C 278.610 306.170, 279.213 312.677, 280.295 315.500 C 281.137 317.700, 282.075 321.585, 282.378 324.134 C 282.682 326.683, 283.658 330.733, 284.548 333.134 C 285.438 335.535, 286.269 338.271, 286.395 339.213 C 286.715 341.614, 289.984 345, 291.981 345 C 295.316 345, 299.552 337.974, 301.928 328.500 C 305.455 314.439, 307.989 272.740, 305.817 264.512 C 304.353 258.965, 301.655 257.291, 300.471 261.193 C 299.415 264.670, 295.937 268, 293.360 268 C 292.100 268, 289.532 266.650, 287.653 265 C 285.774 263.350, 283.620 261.993, 282.868 261.985 C 281.782 261.973, 281.804 261.777, 282.971 261.039 C 284.646 259.980, 284.136 259.047, 282.250 259.720 M 974.252 263.500 C 974.263 265.700, 974.468 266.482, 974.707 265.238 C 974.946 263.994, 974.937 262.194, 974.687 261.238 C 974.437 260.282, 974.241 261.300, 974.252 263.500 M 124.250 261.689 C 125.213 261.941, 126.787 261.941, 127.750 261.689 C 128.713 261.438, 127.925 261.232, 126 261.232 C 124.075 261.232, 123.287 261.438, 124.250 261.689 M 117.813 262.683 C 118.534 262.972, 119.397 262.936, 119.729 262.604 C 120.061 262.272, 119.471 262.036, 118.417 262.079 C 117.252 262.127, 117.015 262.364, 117.813 262.683 M 109.750 263.662 C 110.438 263.940, 111.563 263.940, 112.250 263.662 C 112.938 263.385, 112.375 263.158, 111 263.158 C 109.625 263.158, 109.063 263.385, 109.750 263.662 M 103 265.129 C 105.258 265.602, 103.838 265.734, 99 265.500 C 94.301 265.273, 92.807 265.405, 95 265.854 C 98.197 266.509, 97.921 266.635, 91.811 267.307 C 88.132 267.712, 83.182 267.825, 80.811 267.557 C 77.257 267.157, 77.027 267.220, 79.500 267.917 L 82.500 268.763 79.644 268.882 C 78.074 268.947, 74.024 269.744, 70.644 270.654 C 66.799 271.688, 60.275 272.343, 53.207 272.404 C 46.996 272.457, 42.946 272.749, 44.207 273.053 C 45.888 273.458, 44.899 273.925, 40.500 274.802 C 37.200 275.460, 33.150 276.171, 31.500 276.383 C 29.850 276.594, 31.820 276.595, 35.877 276.385 C 39.935 276.176, 44.885 275.582, 46.877 275.066 C 48.870 274.550, 55.662 273.600, 61.971 272.955 C 68.279 272.310, 74.474 271.390, 75.737 270.910 C 80.265 269.188, 118.202 264.908, 122.897 265.589 C 125.429 265.956, 127.161 265.897, 126.747 265.459 C 126.333 265.020, 120.033 264.601, 112.747 264.528 C 104.960 264.450, 100.943 264.698, 103 265.129 M 993.250 264.689 C 994.212 264.941, 995.788 264.941, 996.750 264.689 C 997.712 264.438, 996.925 264.232, 995 264.232 C 993.075 264.232, 992.288 264.438, 993.250 264.689 M 8 266 C 13.996 266.443, 15.052 266.682, 11.583 266.814 C 8.879 266.916, 6.916 267.249, 7.220 267.554 C 7.525 267.858, 12.437 267.751, 18.137 267.316 L 28.500 266.524 21.500 265.886 C 17.650 265.536, 11.125 265.276, 7 265.311 L -0.500 265.373 8 266 M 85.750 266.662 C 86.438 266.940, 87.563 266.940, 88.250 266.662 C 88.938 266.385, 88.375 266.158, 87 266.158 C 85.625 266.158, 85.063 266.385, 85.750 266.662 M 24.269 268.693 C 25.242 268.947, 26.592 268.930, 27.269 268.656 C 27.946 268.382, 27.150 268.175, 25.500 268.195 C 23.850 268.215, 23.296 268.439, 24.269 268.693 M 70.813 268.683 C 71.534 268.972, 72.397 268.936, 72.729 268.604 C 73.061 268.272, 72.471 268.036, 71.417 268.079 C 70.252 268.127, 70.015 268.364, 70.813 268.683 M 63.269 269.693 C 64.242 269.947, 65.592 269.930, 66.269 269.656 C 66.946 269.382, 66.150 269.175, 64.500 269.195 C 62.850 269.215, 62.296 269.439, 63.269 269.693 M 55.750 270.662 C 56.438 270.940, 57.563 270.940, 58.250 270.662 C 58.938 270.385, 58.375 270.158, 57 270.158 C 55.625 270.158, 55.063 270.385, 55.750 270.662 M 49.813 271.683 C 50.534 271.972, 51.397 271.936, 51.729 271.604 C 52.061 271.272, 51.471 271.036, 50.417 271.079 C 49.252 271.127, 49.015 271.364, 49.813 271.683 M 35.750 273.662 C 36.438 273.940, 37.563 273.940, 38.250 273.662 C 38.938 273.385, 38.375 273.158, 37 273.158 C 35.625 273.158, 35.063 273.385, 35.750 273.662 M 28.813 274.683 C 29.534 274.972, 30.397 274.936, 30.729 274.604 C 31.061 274.272, 30.471 274.036, 29.417 274.079 C 28.252 274.127, 28.015 274.364, 28.813 274.683 M 499.702 277.250 C 497.918 278.578, 496 286.766, 496 293.060 C 496 295.675, 496.801 297.799, 498.589 299.923 C 501.538 303.428, 503.951 303.816, 506.345 301.171 C 508.653 298.621, 508.726 281.482, 506.443 278.223 C 504.701 275.736, 502.219 275.378, 499.702 277.250 M 500.089 278.911 C 497.834 281.166, 496.228 292.902, 497.629 296.886 C 498.846 300.348, 503.279 302.843, 505.273 301.188 C 507.462 299.371, 507.659 282.655, 505.530 279.405 C 503.626 276.500, 502.594 276.406, 500.089 278.911 M 845.500 277.721 C 840.058 279.050, 832.941 283.251, 829.683 287.057 C 822.732 295.178, 819.124 312.005, 822.161 322.142 C 823.759 327.475, 828.764 333.007, 835.141 336.489 C 839.694 338.975, 841.877 339.477, 849.646 339.822 C 861.339 340.343, 867.040 338.567, 874.123 332.200 C 881.168 325.865, 883.978 319.629, 883.990 310.297 C 884.008 297.532, 880.228 294.071, 873.866 301.027 C 870.925 304.241, 869.547 305, 866.650 305 C 861.584 305, 856 300.036, 856 295.531 C 856 291.133, 859.151 287.382, 863.535 286.559 C 865.499 286.191, 867.355 285.239, 867.660 284.445 C 867.964 283.650, 868.896 283, 869.729 283 C 872.092 283, 869.215 279.989, 865.282 278.345 C 862.209 277.060, 849.805 276.669, 845.500 277.721 M 845 278.935 C 831.395 283.089, 823.143 294.784, 822.223 311.219 C 821.713 320.335, 823.811 325.870, 829.753 331.088 C 836.259 336.800, 842.418 338.982, 852 338.968 C 862.075 338.954, 866.604 337.249, 873.530 330.866 C 880.398 324.535, 883 318.726, 883 309.724 C 883 302.293, 882.063 299.820, 878.823 298.699 C 877.205 298.139, 874.501 300.168, 875.515 301.181 C 875.788 301.455, 875.062 302.539, 873.901 303.589 C 872.379 304.967, 870.304 305.500, 866.461 305.500 C 861.927 305.500, 860.674 305.061, 858.066 302.563 C 855.603 300.203, 855 298.805, 855 295.448 C 855 290.404, 858.038 286, 861.517 286 C 862.821 286, 865.151 284.839, 866.694 283.419 C 868.237 282, 868.938 281.127, 868.250 281.478 C 867.563 281.830, 867 281.714, 867 281.220 C 867 278.455, 851.757 276.872, 845 278.935 M 290.736 285.250 C 288.339 287.070, 287 291.405, 287 297.343 C 287 303.430, 289.033 307, 292.500 307 C 296.423 307, 298 303.519, 298 294.859 C 298 290.627, 297.727 286.452, 297.393 285.582 C 296.667 283.689, 293.030 283.508, 290.736 285.250 M 292.375 286.037 C 288.091 287.662, 286.225 301.083, 289.829 304.345 C 294.175 308.278, 297 304.360, 297 294.400 C 297 286.623, 295.930 284.688, 292.375 286.037 M 872.064 287.707 C 873.834 289.196, 876.153 291.784, 877.218 293.457 C 878.974 296.215, 879.094 296.266, 878.500 294 C 877.804 291.343, 871.770 285, 869.938 285 C 869.338 285, 870.294 286.218, 872.064 287.707 M 978.252 290.500 C 978.263 292.700, 978.468 293.482, 978.707 292.238 C 978.946 290.994, 978.937 289.194, 978.687 288.238 C 978.437 287.282, 978.241 288.300, 978.252 290.500 M 599.452 295.093 C 598.572 296.794, 598.030 298.363, 598.247 298.580 C 598.464 298.797, 599.390 297.406, 600.305 295.487 C 602.361 291.175, 601.649 290.845, 599.452 295.093 M 503 300 C 502.175 300.533, 501.950 300.969, 502.500 300.969 C 503.050 300.969, 504.175 300.533, 505 300 C 505.825 299.467, 506.050 299.031, 505.500 299.031 C 504.950 299.031, 503.825 299.467, 503 300 M 98.924 302.750 L 96.500 305.500 99.250 303.076 C 101.820 300.810, 102.459 300, 101.674 300 C 101.495 300, 100.258 301.238, 98.924 302.750 M 595.723 301.171 C 592.017 302.524, 590.408 305.694, 583.504 325.246 C 578.640 339.020, 579.244 353.054, 585.322 367.500 C 587.174 371.900, 589.002 376.776, 589.385 378.336 C 589.768 379.896, 591.251 382.342, 592.680 383.771 C 594.110 385.201, 597.158 389.999, 599.454 394.435 C 613.018 420.636, 618.921 429.758, 627.647 438 L 632.411 442.500 627.726 437 C 625.149 433.975, 621.285 429.250, 619.140 426.500 C 615.055 421.264, 597 388.759, 597 386.640 C 597 385.967, 599.047 383.410, 601.549 380.958 C 611.292 371.411, 615.279 360.379, 616.580 339.372 C 617.192 329.495, 617.018 327.417, 615.030 320.872 C 613.057 314.375, 612.003 312.700, 606.146 306.762 C 602.491 303.056, 599.275 300.054, 599 300.091 C 598.725 300.128, 597.250 300.614, 595.723 301.171 M 512.491 302.015 C 511.221 304.070, 504.511 306.137, 501 305.556 C 499.075 305.237, 496.613 304.961, 495.529 304.943 C 494.444 304.924, 492.691 304.142, 491.633 303.205 C 489.786 301.568, 489.754 301.587, 490.847 303.670 C 492.530 306.880, 503.229 307.926, 508.880 305.433 C 511.102 304.453, 513.149 303.054, 513.429 302.325 C 514.028 300.764, 513.393 300.555, 512.491 302.015 M 592.963 305.052 C 591.767 306.731, 589.903 310.444, 588.819 313.302 C 581.424 332.814, 580.021 340.744, 581.876 352.544 C 583.128 360.509, 591.638 381.749, 594.230 383.378 C 595.663 384.278, 596.817 383.620, 600.955 379.545 C 607.183 373.410, 612.464 363.499, 614.032 355 C 614.692 351.425, 615.292 342.875, 615.366 336 C 615.484 325.009, 615.228 322.896, 613.250 318.500 C 612.012 315.750, 608.851 311.475, 606.226 309 C 603.601 306.525, 602.363 305.175, 603.476 306 C 605.479 307.484, 605.480 307.477, 603.616 305.274 C 602.580 304.049, 601.374 303.269, 600.935 303.540 C 600.497 303.811, 599.856 303.575, 599.510 303.016 C 598.292 301.046, 595.111 302.035, 592.963 305.052 M 710.223 307.557 C 707.286 309.614, 707.418 311.783, 710.687 315.195 C 712.818 317.419, 714.267 318, 717.687 318 C 726.631 318, 728.988 309.935, 720.872 307.105 C 716.470 305.571, 712.838 305.725, 710.223 307.557 M 93.872 308.750 C 92.629 310.336, 92.664 310.371, 94.250 309.128 C 95.916 307.821, 96.445 307, 95.622 307 C 95.415 307, 94.627 307.788, 93.872 308.750 M 710.523 308.974 C 708.854 310.819, 708.844 311.113, 710.381 313.458 C 713.084 317.585, 719.775 318.082, 723.428 314.429 C 724.629 313.229, 724.748 312.397, 723.937 310.883 C 721.781 306.854, 713.507 305.677, 710.523 308.974 M 493 311.474 C 501.252 316.241, 501.650 316.347, 507.181 315.245 L 512.500 314.186 506.453 314.699 C 501.001 315.162, 500.101 314.956, 497.309 312.606 C 495.605 311.173, 493.376 310.007, 492.356 310.015 C 490.839 310.027, 490.957 310.293, 493 311.474 M 287 311.967 C 286.175 312.510, 284.600 312.718, 283.500 312.429 C 281.704 311.958, 281.677 312.016, 283.237 312.995 C 284.486 313.779, 285.542 313.780, 287.001 313 C 289.813 311.495, 295.824 312.803, 297.107 315.200 C 299.354 319.399, 291.136 323.279, 288 319.500 C 287.315 318.675, 285.798 318.029, 284.628 318.063 L 282.500 318.127 284.648 318.993 C 285.829 319.470, 287.093 320.341, 287.457 320.930 C 287.820 321.518, 289.822 322, 291.904 322 C 297.664 322, 300.765 317.641, 297.750 313.782 C 296.219 311.822, 289.056 310.613, 287 311.967 M 301.158 316 C 301.158 317.375, 301.385 317.938, 301.662 317.250 C 301.940 316.563, 301.940 315.438, 301.662 314.750 C 301.385 314.063, 301.158 314.625, 301.158 316 M 348.500 327.871 C 339.765 333.296, 336.693 342.190, 340.852 350.016 C 345.111 358.032, 355.944 360.812, 361.249 355.250 C 368.101 348.068, 367.651 336.715, 360.199 328.750 C 357.123 325.462, 352.890 325.144, 348.500 327.871 M 345.826 331.794 C 341.572 335.852, 340.722 337.285, 340.289 341.128 C 339.945 344.177, 340.295 346.670, 341.353 348.715 C 345.627 356.980, 355.059 359.752, 360.191 354.250 C 363.961 350.208, 365 347.669, 365 342.500 C 365 337.158, 363.965 334.773, 359.684 330.250 C 355.196 325.509, 352.047 325.860, 345.826 331.794 M 973.079 332.583 C 973.127 333.748, 973.364 333.985, 973.683 333.188 C 973.972 332.466, 973.936 331.603, 973.604 331.271 C 973.272 330.939, 973.036 331.529, 973.079 332.583 M 862.760 355.020 C 854.994 356.981, 845.476 362.718, 839.779 368.872 C 831.992 377.283, 828.994 386.232, 829.015 401.003 C 829.024 407.503, 829.500 412.303, 830.265 413.609 C 830.944 414.769, 832.941 418.426, 834.703 421.737 C 838.450 428.779, 847.238 437.154, 854.500 440.605 C 858.772 442.634, 860.956 442.971, 869.500 442.913 C 883.618 442.819, 888.866 440.747, 899.054 431.247 C 903.236 427.347, 905.692 423.868, 908.586 417.747 C 912.468 409.536, 912.485 409.445, 912.492 397 C 912.500 384.742, 912.435 384.375, 909.128 378.036 C 905.007 370.139, 895.301 359.808, 889.248 356.878 C 884.163 354.416, 869.283 353.373, 862.760 355.020 M 862.655 356.105 C 856.167 357.629, 846.394 363.807, 840.643 370.019 C 832.767 378.526, 830.678 384.433, 830.216 399.500 C 829.862 411.052, 829.945 411.642, 832.434 415.308 C 833.855 417.403, 835.898 420.839, 836.972 422.945 C 839.413 427.729, 848.920 436.357, 855.419 439.686 C 859.970 442.017, 861.167 442.178, 871.419 441.849 C 881.656 441.521, 882.873 441.265, 887.396 438.497 C 896.566 432.883, 903.791 425.247, 907.687 417.051 C 910.970 410.145, 911.316 408.560, 911.739 398.500 L 912.202 387.500 908.098 379.369 C 902.740 368.751, 892.676 358.872, 884.851 356.548 C 879.200 354.870, 868.793 354.662, 862.655 356.105 M 967.079 359.583 C 967.127 360.748, 967.364 360.985, 967.683 360.188 C 967.972 359.466, 967.936 358.603, 967.604 358.271 C 967.272 357.939, 967.036 358.529, 967.079 359.583 M 966.079 363.583 C 966.127 364.748, 966.364 364.985, 966.683 364.188 C 966.972 363.466, 966.936 362.603, 966.604 362.271 C 966.272 361.939, 966.036 362.529, 966.079 363.583 M 965.136 368 C 965.046 369.375, 964.741 371.625, 964.458 373 L 963.944 375.500 965.018 373.039 C 965.609 371.685, 965.914 369.435, 965.696 368.039 L 965.300 365.500 965.136 368 M 963.116 377.168 C 963.052 378.086, 962.741 379.661, 962.424 380.668 C 961.879 382.404, 961.909 382.407, 962.992 380.719 C 963.620 379.739, 963.931 378.164, 963.683 377.219 C 963.277 375.670, 963.221 375.665, 963.116 377.168 M 957.459 393.067 C 957.096 393.653, 957.014 394.348, 957.276 394.610 C 957.538 394.872, 958.019 394.392, 958.345 393.543 C 959.021 391.781, 958.445 391.471, 957.459 393.067 M 955.459 398.067 C 955.096 398.653, 955.014 399.348, 955.276 399.610 C 955.538 399.872, 956.019 399.392, 956.345 398.543 C 957.021 396.781, 956.445 396.471, 955.459 398.067 M 949.459 413.067 C 949.096 413.653, 949.014 414.348, 949.276 414.610 C 949.538 414.872, 950.019 414.392, 950.345 413.543 C 951.021 411.781, 950.445 411.471, 949.459 413.067 M 947.459 418.067 C 947.096 418.653, 947.014 419.348, 947.276 419.610 C 947.538 419.872, 948.019 419.392, 948.345 418.543 C 949.021 416.781, 948.445 416.471, 947.459 418.067 M 945.459 423.067 C 945.096 423.653, 945.014 424.348, 945.276 424.610 C 945.538 424.872, 946.019 424.392, 946.345 423.543 C 947.021 421.781, 946.445 421.471, 945.459 423.067 M 220.500 430.004 C 218.661 430.791, 218.701 430.869, 221 430.978 C 222.783 431.063, 221.636 431.833, 217 433.662 C 213.425 435.073, 206.450 437.910, 201.500 439.968 C 167.960 453.911, 102.874 479.040, 101.884 478.428 C 101.207 478.010, 100.953 478.115, 101.296 478.670 C 101.940 479.713, 93.991 484, 91.414 484 C 90.571 484, 90.100 484.354, 90.368 484.786 C 90.852 485.569, 89.598 485.868, 84.095 486.282 C 82.498 486.402, 81.368 486.786, 81.584 487.136 C 81.800 487.486, 78.045 489.456, 73.239 491.513 C 68.432 493.571, 61.350 496.838, 57.500 498.774 C 53.650 500.709, 49.375 502.638, 48 503.061 C 46.335 503.572, 46.093 503.857, 47.275 503.914 C 48.251 503.961, 52.301 502.361, 56.275 500.359 C 66.006 495.455, 83.903 488, 85.946 488 C 86.853 488, 91.175 486.268, 95.548 484.151 C 99.922 482.034, 111.150 477.252, 120.500 473.525 C 129.850 469.798, 138.850 466.169, 140.500 465.461 C 154.008 459.666, 218.009 434.239, 222 433.081 C 223.375 432.682, 224.500 431.751, 224.500 431.011 C 224.500 429.290, 223.033 428.920, 220.500 430.004 M 941.459 433.067 C 941.096 433.653, 941.014 434.348, 941.276 434.610 C 941.538 434.872, 942.019 434.392, 942.345 433.543 C 943.021 431.781, 942.445 431.471, 941.459 433.067 M 937.459 443.067 C 937.096 443.653, 937.014 444.348, 937.276 444.610 C 937.538 444.872, 938.019 444.392, 938.345 443.543 C 939.021 441.781, 938.445 441.471, 937.459 443.067 M 638.500 450 C 640.648 452.200, 642.631 454, 642.906 454 C 643.181 454, 641.648 452.200, 639.500 450 C 637.352 447.800, 635.369 446, 635.094 446 C 634.819 446, 636.352 447.800, 638.500 450 M 168 451 C 167.099 451.582, 166.975 451.975, 167.691 451.985 C 168.346 451.993, 169.160 451.550, 169.500 451 C 170.267 449.758, 169.921 449.758, 168 451 M 163 453 C 162.099 453.582, 161.975 453.975, 162.691 453.985 C 163.346 453.993, 164.160 453.550, 164.500 453 C 165.267 451.758, 164.921 451.758, 163 453 M 250 458.500 C 253.543 462.075, 256.667 465, 256.942 465 C 257.217 465, 254.543 462.075, 251 458.500 C 247.457 454.925, 244.333 452, 244.058 452 C 243.783 452, 246.457 454.925, 250 458.500 M 933.459 453.067 C 933.096 453.653, 933.014 454.348, 933.276 454.610 C 933.538 454.872, 934.019 454.392, 934.345 453.543 C 935.021 451.781, 934.445 451.471, 933.459 453.067 M 650.069 465.417 C 648.795 466.951, 634.884 469.568, 623.279 470.456 C 611.569 471.352, 606.148 472.845, 604.286 475.686 C 602.742 478.042, 602.771 478.435, 604.770 482.345 C 607.211 487.122, 610.778 494.937, 619.217 513.998 C 622.503 521.422, 627.204 531.885, 629.663 537.250 C 635.576 550.150, 634.600 554.132, 626.898 548.527 C 625.029 547.167, 621.040 544.899, 618.034 543.487 C 615.028 542.074, 611.762 540.190, 610.777 539.298 C 608.895 537.595, 608.307 537.237, 599.802 532.624 C 596.886 531.042, 593.203 528.831, 591.618 527.712 C 588.480 525.495, 585.796 526.207, 585.164 529.423 C 584.831 531.116, 589.797 544.946, 592.647 550.262 C 594.102 552.976, 593.709 557, 591.990 557 C 590.569 557, 583.759 552.842, 580.215 549.810 C 578.409 548.265, 576.539 547, 576.060 547 C 575.581 547, 573.357 545.538, 571.118 543.750 C 559.431 534.419, 552.534 530, 549.659 530 C 547.338 530, 541.170 535.679, 539.098 539.723 C 537.100 543.622, 527.921 554.069, 526.996 553.497 C 526.506 553.194, 526.283 553.871, 526.500 555 C 526.717 556.129, 526.492 556.804, 525.998 556.499 C 523.425 554.909, 531.044 512.505, 536.941 495.595 C 538.073 492.347, 538.970 488.747, 538.934 487.595 C 538.898 486.443, 538.226 487.886, 537.441 490.803 C 536.656 493.719, 535.594 496.891, 535.080 497.851 C 533.485 500.831, 530.241 514.855, 527.642 530 C 523.987 551.305, 523.515 556.082, 524.974 556.984 C 525.931 557.576, 525.943 558.238, 525.027 559.950 C 524.324 561.263, 523.979 565.154, 524.174 569.579 C 524.353 573.663, 524.178 577.004, 523.785 577.002 C 522.027 576.997, 520.733 582.047, 519.973 591.876 C 518.495 610.977, 516.827 623.486, 515.653 624.266 C 514.231 625.211, 506.482 616.866, 501.011 608.500 C 494.353 598.317, 493.092 597, 490.005 597 C 486.863 597, 483.341 599.910, 464 618.484 C 443.146 638.512, 438.886 641.651, 419.341 651.392 C 409.528 656.283, 400.301 661.124, 398.835 662.150 C 395.133 664.741, 392.353 663.458, 386.368 656.394 C 383.690 653.235, 378.054 646.895, 373.843 642.307 C 369.631 637.718, 362.930 630.129, 358.950 625.441 L 351.714 616.918 354.287 611.709 C 355.702 608.844, 357.340 604.025, 357.927 601 C 359.417 593.321, 362 565.127, 362 556.539 C 362 552.242, 362.498 548.842, 363.250 547.998 C 364.313 546.806, 364.239 546.794, 362.750 547.921 C 361.368 548.966, 361 550.758, 361 556.435 C 361 566.620, 358.174 595.290, 356.414 602.959 C 355.599 606.511, 354.307 610.111, 353.544 610.959 C 352.780 611.806, 351.861 613.681, 351.501 615.124 C 350.941 617.368, 351.982 619.104, 358.673 627.082 C 362.978 632.215, 370.114 640.259, 374.532 644.957 C 378.949 649.656, 384.455 655.805, 386.768 658.622 C 389.471 661.915, 392.002 663.950, 393.856 664.321 C 395.442 664.638, 397.010 665.708, 397.341 666.699 C 397.672 667.690, 398.507 669.275, 399.198 670.222 C 402.650 674.954, 395.793 673.602, 361.712 662.831 C 350.677 659.344, 348.539 658.948, 346.121 659.950 C 343.847 660.892, 342.518 660.791, 339.078 659.415 C 335.479 657.974, 332.547 657.807, 319.669 658.309 C 306.996 658.802, 302.197 659.471, 290.500 662.378 C 272.584 666.831, 269.717 668.164, 253.738 679.477 C 239.192 689.776, 214.950 713.034, 215.059 716.586 C 215.115 718.427, 215.163 718.424, 216.309 716.500 C 216.964 715.400, 223.116 708.749, 229.980 701.721 C 239.027 692.456, 245.970 686.480, 255.225 679.993 C 271.853 668.339, 273.470 667.574, 290.271 663.418 C 302.160 660.478, 306.984 659.802, 319.604 659.311 C 332.521 658.808, 335.369 658.975, 339.277 660.468 C 341.790 661.428, 344.338 661.909, 344.940 661.537 C 346.917 660.315, 351 659.940, 351 660.980 C 351 661.541, 350.663 661.947, 350.250 661.882 C 344.160 660.920, 346.353 664.128, 362.581 679.920 C 378.863 695.764, 387.293 703, 389.467 703 C 390.176 703, 391.366 703.736, 392.113 704.637 C 396.564 709.999, 429.130 716.834, 431.553 712.914 C 432.022 712.155, 430.608 712.022, 426.862 712.472 C 419.839 713.315, 403.490 710.033, 397.735 706.625 C 395.406 705.246, 391.849 703.200, 389.830 702.079 C 385.830 699.858, 367.920 683.707, 356 671.572 C 349.847 665.307, 348.769 663.755, 350 662.925 C 352.121 661.495, 359.130 662.569, 366.129 665.396 C 369.415 666.724, 378.493 669.540, 386.302 671.655 L 400.500 675.500 407.545 682.500 C 417.540 692.431, 432.059 709.024, 433.062 711.662 C 434.450 715.315, 437.968 716.734, 447 717.287 C 451.946 717.590, 454.245 717.479, 452.500 717.022 C 450.850 716.590, 446.991 716.183, 443.924 716.118 C 439.483 716.024, 437.906 715.529, 436.174 713.686 C 434.978 712.413, 434 710.886, 434 710.292 C 434 709.699, 429.718 704.634, 424.485 699.036 C 419.252 693.438, 415.228 688.440, 415.544 687.929 C 416.827 685.853, 422.916 687.577, 439.314 694.659 C 442.512 696.040, 450.323 698.482, 456.671 700.085 C 469.855 703.415, 477.236 703.677, 509.784 701.969 C 534.928 700.651, 541.753 699.224, 555 692.514 C 563.993 687.960, 561.646 687.031, 580 702.399 C 581.953 704.035, 581.844 703.756, 579.500 701.122 C 577.850 699.268, 573.839 695.516, 570.587 692.783 C 565.708 688.684, 564.185 687.913, 561.876 688.375 C 559.556 688.839, 558.858 688.478, 557.789 686.262 C 557.080 684.792, 553.909 681.622, 550.742 679.218 C 543.705 673.875, 528.295 656.894, 522.249 647.819 C 518.769 642.596, 517.649 639.868, 517.112 635.318 C 516.735 632.117, 516.036 628.868, 515.560 628.097 C 514.989 627.173, 515.257 626.285, 516.347 625.489 C 518.518 623.901, 519.772 616.903, 520.492 602.365 C 521.492 582.166, 521.838 580.152, 524.628 578.324 C 526.916 576.825, 527.563 576.829, 533.112 578.371 C 536.416 579.290, 543.584 582.282, 549.041 585.021 C 554.499 587.759, 559.540 590, 560.245 590 C 561.773 590, 571.446 596.291, 575.048 599.627 C 578.488 602.813, 590.155 609.779, 587.441 607.026 C 583.439 602.967, 564.283 590.107, 561.045 589.305 C 559.645 588.959, 553.610 586.281, 547.632 583.353 C 541.655 580.425, 534.118 577.483, 530.882 576.815 L 525 575.600 525 569.926 C 525 562.645, 527.120 556.716, 531.430 551.945 C 533.315 549.859, 536.959 544.963, 539.527 541.064 C 544.326 533.780, 547.235 531, 550.059 531 C 551.581 531, 559.814 536.577, 580.383 551.538 C 590.105 558.610, 595.005 560.022, 594.995 555.750 C 594.992 554.513, 592.967 548.612, 590.495 542.638 C 585.619 530.854, 585.372 529.760, 587.250 528.220 C 588.156 527.476, 591.390 528.945, 599 533.557 C 604.775 537.057, 611.525 541.016, 614 542.355 C 616.475 543.693, 620.908 546.411, 623.850 548.394 C 626.939 550.476, 630.427 552, 632.100 552 C 634.664 552, 635 551.648, 635 548.960 C 635 547.288, 634.031 544.026, 632.847 541.710 C 631.664 539.395, 624.682 524.019, 617.333 507.542 C 604.294 478.308, 604.016 477.539, 605.836 475.719 C 608.188 473.367, 613.044 472.277, 626.681 471.038 C 642.990 469.557, 649.874 468.103, 651.059 465.889 C 652.252 463.660, 651.733 463.412, 650.069 465.417 M 927.624 468.539 C 926.659 471.053, 926.943 471.702, 928.122 469.675 C 928.706 468.671, 928.973 467.639, 928.715 467.382 C 928.458 467.124, 927.966 467.645, 927.624 468.539 M 924.954 474.086 C 924.340 475.233, 924.026 476.360, 924.257 476.590 C 924.487 476.820, 925.189 475.882, 925.816 474.504 C 927.194 471.480, 926.523 471.154, 924.954 474.086 M 273 481.378 C 273 481.585, 273.788 482.373, 274.750 483.128 C 276.336 484.371, 276.371 484.336, 275.128 482.750 C 273.821 481.084, 273 480.555, 273 481.378 M 88.335 489.571 C 87.956 490.556, 89.024 492.512, 91.200 494.821 C 93.108 496.844, 95.960 501.123, 97.538 504.330 C 99.266 507.840, 101.473 510.710, 103.085 511.544 C 106.947 513.541, 111 518.742, 111 521.701 C 111 523.446, 112.576 525.776, 116 529.094 C 118.750 531.758, 121 534.388, 121 534.937 C 121 536.380, 133.384 550.366, 136.427 552.360 C 137.842 553.287, 139 553.865, 139 553.643 C 139 553.421, 135.361 549.492, 130.914 544.911 C 126.466 540.330, 121.971 534.902, 120.923 532.849 C 119.876 530.796, 117.439 527.911, 115.509 526.439 C 113.579 524.967, 112 522.894, 112 521.832 C 112 518.382, 109.033 514.046, 104.876 511.422 C 101.820 509.493, 100.108 507.317, 97.994 502.677 C 96.446 499.280, 93.777 495.167, 92.064 493.538 C 90.350 491.909, 89.171 489.997, 89.443 489.288 C 89.715 488.580, 89.712 488, 89.437 488 C 89.162 488, 88.666 488.707, 88.335 489.571 M 284 490.378 C 284 490.585, 284.788 491.373, 285.750 492.128 C 287.336 493.371, 287.371 493.336, 286.128 491.750 C 284.821 490.084, 284 489.555, 284 490.378 M 288 493.378 C 288 493.585, 288.788 494.373, 289.750 495.128 C 291.336 496.371, 291.371 496.336, 290.128 494.750 C 288.821 493.084, 288 492.555, 288 493.378 M 294 498.378 C 294 498.585, 294.788 499.373, 295.750 500.128 C 297.336 501.371, 297.371 501.336, 296.128 499.750 C 294.821 498.084, 294 497.555, 294 498.378 M 38 504 C 38.825 504.533, 39.950 504.969, 40.500 504.969 C 41.050 504.969, 40.825 504.533, 40 504 C 39.175 503.467, 38.050 503.031, 37.500 503.031 C 36.950 503.031, 37.175 503.467, 38 504 M 304 506.378 C 304 506.585, 304.788 507.373, 305.750 508.128 C 307.336 509.371, 307.371 509.336, 306.128 507.750 C 304.821 506.084, 304 505.555, 304 506.378 M 308 509.378 C 308 509.585, 308.788 510.373, 309.750 511.128 C 311.336 512.371, 311.371 512.336, 310.128 510.750 C 308.821 509.084, 308 508.555, 308 509.378 M 313 513.378 C 313 513.585, 313.788 514.373, 314.750 515.128 C 316.336 516.371, 316.371 516.336, 315.128 514.750 C 313.821 513.084, 313 512.555, 313 513.378 M 320 519.500 C 321.292 520.875, 322.574 522, 322.849 522 C 323.124 522, 322.292 520.875, 321 519.500 C 319.708 518.125, 318.426 517, 318.151 517 C 317.876 517, 318.708 518.125, 320 519.500 M 325.879 531.097 C 323.339 533.473, 322.897 534.103, 324.827 532.597 C 326.656 531.169, 328.521 530, 328.970 530 C 329.419 530, 330.045 529.325, 330.362 528.500 C 331.210 526.290, 330.700 526.585, 325.879 531.097 M 900.374 528.467 C 900.065 529.274, 900.004 530.511, 900.240 531.217 C 900.476 531.923, 900.906 531.263, 901.196 529.750 C 901.762 526.797, 901.295 526.068, 900.374 528.467 M 194 530.544 C 182.827 532.577, 169.638 536.634, 163.203 540.017 C 144.542 549.830, 121.185 568.154, 113.500 579.012 C 111.850 581.343, 108.895 585.106, 106.932 587.375 C 99.735 595.698, 94.224 603.815, 86.573 617.370 C 78.957 630.861, 78.666 631.626, 75.918 645.370 C 73.849 655.716, 72.678 666.111, 71.546 684.184 C 70.696 697.760, 70.059 711.035, 70.132 713.684 C 70.204 716.333, 71.076 705.675, 72.069 690 C 73.334 670.027, 74.660 657.299, 76.501 647.458 C 79.118 633.465, 79.158 633.362, 87.571 618.463 C 108.056 582.185, 132.767 557.418, 165.474 540.382 C 179.428 533.114, 205.847 528.413, 218.500 530.947 C 223.744 531.997, 240.958 538.955, 253.704 545.177 C 259.942 548.222, 266 553.760, 266 556.417 C 266 559.573, 269.735 561.028, 280.415 562.035 C 293.811 563.298, 295.146 565.243, 296.538 585.533 C 297.112 593.886, 296.972 595.778, 295.704 596.831 C 294.422 597.895, 293.179 597.200, 287.841 592.435 C 271.758 578.080, 259.720 571, 251.394 571 C 244.413 571, 207.254 581.440, 198 586.002 C 194.975 587.493, 181.025 593.799, 167 600.016 C 152.975 606.232, 140.876 611.887, 140.113 612.582 C 139.351 613.276, 138.973 614.486, 139.273 615.270 C 140.317 617.990, 155.255 617.316, 178.285 613.510 C 189.953 611.581, 201.975 609.340, 205 608.529 C 208.025 607.718, 218.949 605.693, 229.276 604.028 C 244.816 601.522, 250.951 601, 264.870 601 C 279.162 601, 282.572 601.305, 287.584 603.029 C 290.940 604.183, 293.620 604.641, 293.803 604.091 C 293.980 603.560, 294.884 603.783, 295.813 604.588 C 296.741 605.392, 300.425 608.397, 304 611.266 C 313.188 618.638, 332.905 637.915, 334.590 641.174 C 335.985 643.872, 335.957 643.917, 332.459 644.574 C 330.171 645.003, 327.422 644.679, 324.707 643.659 C 319.275 641.618, 305.953 640, 294.588 640 C 287.498 640, 282.787 640.748, 272.061 643.579 C 259.248 646.960, 250.747 650.733, 239.500 658.030 C 237.850 659.101, 235.825 660.319, 235 660.738 C 224.740 665.948, 218.706 670.535, 205.896 682.857 C 191.631 696.580, 181.116 708.935, 179.027 714.428 C 177.362 718.807, 178.380 718.453, 181.005 713.739 C 182.304 711.407, 185.697 706.565, 188.545 702.977 C 194.048 696.044, 218.800 671.790, 223 669.213 C 224.375 668.370, 227.075 666.697, 229 665.495 C 230.925 664.294, 238.350 659.897, 245.500 655.725 C 257.123 648.943, 259.983 647.748, 272.500 644.440 C 286.332 640.784, 286.668 640.747, 300.500 641.330 C 310.138 641.737, 316.680 642.556, 321.497 643.960 C 331.974 647.015, 337 646.592, 337 642.658 C 337 640.288, 314.439 617.561, 302.308 607.709 C 296.718 603.169, 294.669 602.045, 292.827 602.507 C 291.534 602.832, 288.809 602.400, 286.771 601.549 C 283.900 600.349, 279.089 600, 265.431 600 C 249.975 600, 245.125 600.438, 226.149 603.544 C 214.242 605.494, 202.025 607.744, 199 608.545 C 186.623 611.821, 156.599 616.139, 150.823 615.474 C 142.990 614.572, 142.472 612.587, 149.259 609.489 C 191.680 590.124, 204.922 584.338, 212.500 581.862 C 226.046 577.434, 247.082 572.007, 250.712 572.003 C 258.692 571.995, 270.983 579.281, 286.788 593.388 C 293.460 599.343, 294.975 599.939, 297.059 597.429 C 299.065 595.012, 296.709 569.435, 294.164 566 C 291.918 562.967, 287.042 561.134, 281 561.051 C 273.214 560.944, 269.154 559.305, 267.629 555.654 C 265.087 549.570, 257.629 545.025, 234 535.160 C 218.671 528.760, 209.574 527.711, 194 530.544 M 898.764 535 C 898.359 536.375, 898.050 538.850, 898.077 540.500 C 898.126 543.480, 898.133 543.483, 899.111 541.035 C 899.652 539.679, 899.961 537.204, 899.797 535.535 C 899.505 532.554, 899.487 532.545, 898.764 535 M 305.984 550.750 L 294.500 562.500 306.250 551.016 C 312.712 544.700, 318 539.413, 318 539.266 C 318 538.546, 316.650 539.836, 305.984 550.750 M 897.079 546.583 C 897.127 547.748, 897.364 547.985, 897.683 547.188 C 897.972 546.466, 897.936 545.603, 897.604 545.271 C 897.272 544.939, 897.036 545.529, 897.079 546.583 M 896.158 553 C 896.158 554.375, 896.385 554.938, 896.662 554.250 C 896.940 553.563, 896.940 552.438, 896.662 551.750 C 896.385 551.063, 896.158 551.625, 896.158 553 M 894.764 558 C 894.359 559.375, 894.050 561.850, 894.077 563.500 C 894.126 566.480, 894.133 566.483, 895.111 564.035 C 895.652 562.679, 895.961 560.204, 895.797 558.535 C 895.505 555.554, 895.487 555.545, 894.764 558 M 893.158 569 C 893.158 570.375, 893.385 570.938, 893.662 570.250 C 893.940 569.563, 893.940 568.438, 893.662 567.750 C 893.385 567.063, 893.158 567.625, 893.158 569 M 892.158 575 C 892.158 576.375, 892.385 576.938, 892.662 576.250 C 892.940 575.563, 892.940 574.438, 892.662 573.750 C 892.385 573.063, 892.158 573.625, 892.158 575 M 891.158 580 C 891.158 581.375, 891.385 581.938, 891.662 581.250 C 891.940 580.563, 891.940 579.438, 891.662 578.750 C 891.385 578.063, 891.158 578.625, 891.158 580 M 890.195 587.500 C 890.215 589.150, 890.439 589.704, 890.693 588.731 C 890.947 587.758, 890.930 586.408, 890.656 585.731 C 890.382 585.054, 890.175 585.850, 890.195 587.500 M 889.195 593.500 C 889.215 595.150, 889.439 595.704, 889.693 594.731 C 889.947 593.758, 889.930 592.408, 889.656 591.731 C 889.382 591.054, 889.175 591.850, 889.195 593.500 M 477.825 607.512 C 472.146 612.744, 461.444 622.635, 454.041 629.492 L 440.583 641.960 419.851 652.505 C 398.240 663.497, 395.878 665.397, 399.514 668.862 C 401.126 670.398, 401.159 670.354, 400.036 668.164 C 399.377 666.880, 399.039 665.628, 399.284 665.382 C 400.381 664.286, 402.138 670.930, 401.197 672.612 C 400.396 674.043, 400.922 674.886, 404.017 677.127 C 406.110 678.643, 409.066 681.443, 410.588 683.350 C 412.949 686.309, 413.815 686.742, 416.501 686.306 C 419.598 685.804, 425.619 687.744, 439.314 693.659 C 442.512 695.040, 450.323 697.482, 456.671 699.085 C 469.831 702.408, 477.247 702.676, 509.500 700.987 C 532.269 699.796, 537.938 698.823, 548.750 694.251 C 558.585 690.093, 559.478 687.921, 553.250 683.308 C 551.188 681.780, 545.296 676.248, 540.157 671.015 C 524.363 654.930, 516 642.376, 516 634.754 C 516 629.657, 514.142 626.300, 506.893 618.301 C 503.574 614.638, 500.011 609.982, 498.977 607.954 C 496.238 602.586, 492.096 598, 489.986 598 C 488.976 598, 483.503 602.280, 477.825 607.512 M 887.195 606.500 C 887.215 608.150, 887.439 608.704, 887.693 607.731 C 887.947 606.758, 887.930 605.408, 887.656 604.731 C 887.382 604.054, 887.175 604.850, 887.195 606.500 M 141.270 614.069 C 141.190 615.131, 141.546 616, 142.062 616 C 143.201 616, 143.316 613.314, 142.208 612.628 C 141.772 612.359, 141.350 613.007, 141.270 614.069 M 885.079 617.583 C 885.127 618.748, 885.364 618.985, 885.683 618.188 C 885.972 617.466, 885.936 616.603, 885.604 616.271 C 885.272 615.939, 885.036 616.529, 885.079 617.583 M 334.771 651.750 C 336.387 653.813, 337.964 656.175, 338.276 657 C 338.681 658.074, 338.865 657.925, 338.921 656.473 C 338.964 655.358, 337.675 652.995, 336.056 651.223 C 332.023 646.807, 331.171 647.157, 334.771 651.750 M 870.079 686.583 C 870.127 687.748, 870.364 687.985, 870.683 687.188 C 870.972 686.466, 870.936 685.603, 870.604 685.271 C 870.272 684.939, 870.036 685.529, 870.079 686.583 M 632 705.378 C 632 705.585, 632.788 706.373, 633.750 707.128 C 635.336 708.371, 635.371 708.336, 634.128 706.750 C 632.821 705.084, 632 704.555, 632 705.378 M 1.762 717.707 C 3.006 717.946, 4.806 717.937, 5.762 717.687 C 6.718 717.437, 5.700 717.241, 3.500 717.252 C 1.300 717.263, 0.518 717.468, 1.762 717.707 M 12.750 717.737 C 15.638 717.939, 20.363 717.939, 23.250 717.737 C 26.138 717.535, 23.775 717.370, 18 717.370 C 12.225 717.370, 9.863 717.535, 12.750 717.737 M 462.784 717.738 C 465.689 717.941, 470.189 717.939, 472.784 717.734 C 475.378 717.528, 473 717.363, 467.500 717.365 C 462 717.368, 459.878 717.536, 462.784 717.738 " stroke="none" fill="black" fill-rule="evenodd"/>
</svg>