<svg xmlns="http://www.w3.org/2000/svg" width="429" height="547" viewBox="0 0 429 547" version="1.1">
	<path d="M 27 272.972 L 27 545.944 13.250 546.252 L -0.500 546.561 13.750 546.781 L 28 547 28 273.500 C 28 123.075, 27.775 0, 27.500 0 C 27.225 0, 27 122.837, 27 272.972 M 367.455 25.490 C 365.520 26.984, 365.520 27.016, 367.441 28.500 C 368.509 29.325, 369.760 30, 370.223 30 C 371.835 30, 372.262 26.834, 370.841 25.413 C 369.598 24.170, 369.151 24.180, 367.455 25.490 M 259.754 26.037 C 253.103 27.688, 241.987 34.208, 237.893 38.859 C 235.735 41.310, 232.514 46.270, 230.735 49.881 C 227.889 55.655, 227.459 57.615, 227.158 66.156 C 226.860 74.627, 226.605 75.808, 225.158 75.403 C 224.246 75.147, 224.454 75.445, 225.620 76.064 C 226.786 76.683, 228.243 78.869, 228.858 80.922 C 230.454 86.247, 237.184 96.276, 241.237 99.367 C 247.519 104.159, 249.799 103.056, 258.718 90.910 C 265.997 80.997, 285.283 68.846, 295.887 67.492 C 311.950 65.441, 313.644 62.897, 307.661 49.805 C 303.410 40.503, 294.049 31.333, 285.317 27.919 C 278.850 25.391, 266.129 24.454, 259.754 26.037 M 368.176 25.891 C 367.171 26.512, 367.210 26.929, 368.364 27.887 C 369.982 29.230, 371.271 28.057, 370.158 26.255 C 369.761 25.613, 368.887 25.452, 368.176 25.891 M 260.474 26.930 C 258.809 27.329, 254.181 29.372, 250.188 31.470 C 241.793 35.882, 235.423 42.402, 231.295 50.808 C 228.749 55.992, 228.500 57.481, 228.500 67.500 C 228.500 77.664, 228.723 78.948, 231.436 84.396 C 234.840 91.230, 243.902 101, 246.837 101 C 247.943 101, 249.895 99.571, 251.174 97.824 C 252.453 96.077, 257.386 90.683, 262.136 85.839 C 269.695 78.128, 272.065 76.402, 281.136 71.995 C 287.973 68.673, 293.372 66.749, 297 66.342 C 305.521 65.385, 306.166 64.831, 304.297 60.073 C 303.445 57.906, 301.005 54.732, 298.874 53.019 C 294.756 49.710, 294.005 47.071, 296.575 44.938 C 297.962 43.786, 297.515 43.061, 292.825 38.858 C 289.896 36.234, 288.073 34.067, 288.772 34.043 C 289.472 34.019, 292.285 36.348, 295.022 39.219 C 299.911 44.344, 300.937 45.697, 299.050 44.531 C 298.125 43.959, 296 46.934, 296 48.801 C 296 49.314, 297.792 50.920, 299.981 52.369 C 302.281 53.891, 304.242 56.116, 304.624 57.637 L 305.285 60.271 306.684 57.885 L 308.083 55.500 307.404 58 C 307.031 59.375, 306.536 61.004, 306.305 61.621 C 306.074 62.237, 306.609 63.020, 307.494 63.360 C 308.380 63.699, 308.848 63.563, 308.536 63.058 C 308.223 62.552, 308.425 61.856, 308.984 61.510 C 312.624 59.260, 305.528 45.627, 296.074 36.708 C 292.162 33.019, 288.345 30, 287.590 30 C 286.836 30, 284.257 29.110, 281.859 28.022 C 277.331 25.967, 266.745 25.427, 260.474 26.930 M 265.622 30.313 C 263.479 32.028, 262.911 33.145, 263.400 34.685 C 264.164 37.092, 266.909 37.674, 281 38.418 C 290.146 38.902, 290.039 38.869, 278.119 37.558 C 264.152 36.021, 262.586 35.086, 266.730 30.760 C 269.949 27.400, 269.492 27.216, 265.622 30.313 M 272.750 28.662 C 273.438 28.940, 274.563 28.940, 275.250 28.662 C 275.938 28.385, 275.375 28.158, 274 28.158 C 272.625 28.158, 272.063 28.385, 272.750 28.662 M 285.031 33.500 C 285.031 34.050, 285.467 35.175, 286 36 C 286.533 36.825, 286.969 37.050, 286.969 36.500 C 286.969 35.950, 286.533 34.825, 286 34 C 285.467 33.175, 285.031 32.950, 285.031 33.500 M 302.215 49.969 C 303.312 52.186, 304.364 54, 304.552 54 C 305.329 54, 302.745 48.033, 301.532 47.027 C 300.800 46.419, 301.101 47.718, 302.215 49.969 M 255.635 53.073 C 252.313 55.686, 252.296 58.375, 255.579 62.277 C 257.650 64.737, 258.035 65.997, 257.535 68.666 C 256.961 71.724, 257.192 72.124, 260.424 73.665 C 263.510 75.137, 264.459 75.177, 268.219 73.995 C 270.573 73.255, 273.429 71.829, 274.564 70.825 C 275.700 69.821, 277.387 69, 278.314 69 C 280.744 69, 280.478 64.523, 277.905 62.126 C 276.528 60.843, 276.023 59.504, 276.430 58.219 C 276.772 57.144, 276.601 55.080, 276.050 53.632 C 275.079 51.078, 274.801 51, 266.660 51 C 259.686 51, 257.825 51.350, 255.635 53.073 M 256.174 54.314 C 253.465 57.199, 253.460 57.119, 256.584 61.706 C 258.547 64.589, 259.050 66.340, 258.676 69 C 258.405 70.925, 258.415 71.906, 258.698 71.180 C 259.072 70.221, 259.611 70.427, 260.663 71.930 C 262.336 74.318, 264.586 74.536, 268.635 72.702 C 277.959 68.479, 280.019 65.456, 275.867 62.093 C 274.127 60.685, 273.933 59.993, 274.816 58.345 C 275.411 57.233, 275.643 55.351, 275.332 54.162 C 274.811 52.168, 274.130 52, 266.558 52 C 259.270 52, 258.105 52.260, 256.174 54.314 M 91.149 61.320 C 90.191 62.474, 90.286 62.896, 91.618 63.407 C 93.799 64.244, 94.405 63.547, 93.267 61.512 C 92.473 60.093, 92.189 60.068, 91.149 61.320 M 88.079 62.583 C 88.127 63.748, 88.364 63.985, 88.683 63.188 C 88.972 62.466, 88.936 61.603, 88.604 61.271 C 88.272 60.939, 88.036 61.529, 88.079 62.583 M 301.500 70.536 C 281.824 74.192, 263.009 88.020, 253.903 105.516 C 250.648 111.770, 248.978 113.988, 247.500 114.020 C 245.653 114.060, 245.630 114.163, 247.201 115.356 C 248.744 116.529, 248.774 117.153, 247.524 122.074 C 246.766 125.058, 246.238 131.179, 246.351 135.676 C 246.655 147.768, 248.100 148.743, 266.282 149.129 C 270.562 149.219, 274.344 149.747, 274.686 150.301 C 275.029 150.856, 274.881 151.044, 274.357 150.720 C 273.833 150.397, 272.751 150.545, 271.952 151.051 C 271.044 151.625, 277.241 151.906, 288.500 151.801 C 301.565 151.679, 304.307 151.474, 298.500 151.053 L 290.500 150.472 296 149.778 C 299.025 149.397, 308.475 148.838, 317 148.536 C 344.683 147.557, 372.551 143.928, 376.550 140.782 C 378.703 139.088, 379 138.064, 379 132.322 C 379 123.773, 376.791 115.445, 371.774 105.077 C 359.702 80.127, 329.575 65.320, 301.500 70.536 M 176.250 71.110 C 175.563 71.820, 175 74.110, 175 76.200 C 175 79.864, 175.123 80, 178.441 80 C 180.334 80, 182.160 79.550, 182.500 79 C 183.513 77.361, 186.774 77.851, 191.783 80.395 C 198.131 83.619, 217.815 98.659, 226.681 107.060 C 235.943 115.835, 238.346 117.381, 241.493 116.591 C 246.956 115.220, 243.177 109.280, 229.965 98.471 C 223.881 93.494, 223.165 92.560, 224.099 90.815 C 224.684 89.723, 224.901 88.567, 224.581 88.248 C 224.261 87.928, 223.993 88.079, 223.985 88.583 C 223.976 89.088, 223.597 90.087, 223.142 90.804 C 222.519 91.787, 220.372 90.777, 214.408 86.694 C 195.929 74.044, 179.794 67.454, 176.250 71.110 M 301.500 71.550 C 288.667 73.957, 278.570 79.420, 267.835 89.766 C 260.328 97.001, 258.019 99.998, 254.386 107.230 C 251.974 112.032, 250 116.814, 250 117.858 C 250 118.902, 249.364 121.278, 248.586 123.139 C 247.663 125.350, 247.261 129.398, 247.428 134.824 C 247.788 146.556, 248.423 147.075, 263.403 147.878 C 280.414 148.791, 329.274 147.429, 346 145.577 C 366.283 143.330, 372.607 142.097, 375.494 139.826 C 377.674 138.111, 378 137.070, 378 131.822 C 378 123.634, 375.636 115.116, 370.779 105.810 C 357.539 80.438, 329.100 66.374, 301.500 71.550 M 177.200 72.200 C 175.360 74.040, 175.749 77.786, 177.848 78.452 C 178.865 78.775, 180.931 78.398, 182.439 77.616 C 184.936 76.321, 185.687 76.420, 190.840 78.731 C 197.856 81.877, 216.775 95.877, 227.257 105.680 C 236.713 114.523, 239.204 116.243, 241.359 115.416 C 243.610 114.552, 243.436 113.671, 240.266 109.904 C 233.407 101.753, 213.177 86.632, 197.142 77.671 C 189.164 73.212, 185.667 72.106, 184.747 73.750 C 184.517 74.162, 184.451 73.975, 184.601 73.333 C 185.136 71.044, 179.256 70.144, 177.200 72.200 M 212.250 73.220 C 211.012 73.817, 210 75.158, 210 76.201 C 210 79.645, 219.544 86.773, 222.590 85.604 C 224.992 84.682, 224.301 78.511, 221.411 75.077 C 218.707 71.863, 216.142 71.343, 212.250 73.220 M 212.637 74.276 C 210.995 75.477, 211.203 79, 212.916 79 C 213.302 79, 214.491 79.708, 215.559 80.574 C 216.626 81.440, 216.868 81.820, 216.095 81.420 C 215.164 80.936, 214.935 81.085, 215.415 81.862 C 215.813 82.506, 216.506 82.805, 216.956 82.527 C 217.405 82.249, 218.307 82.665, 218.960 83.452 C 220.673 85.515, 223 84.217, 223 81.198 C 223 78.282, 218.493 73, 216.004 73 C 215.112 73, 213.597 73.574, 212.637 74.276 M 206 78 C 205.099 78.582, 204.975 78.975, 205.691 78.985 C 206.346 78.993, 207.160 78.550, 207.500 78 C 208.267 76.758, 207.921 76.758, 206 78 M 281.170 82.984 C 279.308 85.502, 279.157 86.279, 280.204 87.955 C 280.886 89.048, 282.582 90.363, 283.972 90.879 C 285.363 91.395, 290.550 93.406, 295.500 95.349 C 300.450 97.291, 306.750 99.417, 309.500 100.074 C 312.250 100.730, 317.031 102.332, 320.125 103.633 C 323.219 104.935, 326.337 106, 327.054 106 C 327.771 106, 329.740 106.437, 331.429 106.971 C 371.612 119.675, 372 119.911, 372 131.739 C 372 135.667, 372.450 139.160, 373 139.500 C 374.167 140.221, 374.199 135.933, 373.085 128.086 C 371.952 120.107, 369.368 118.264, 350.873 112.246 C 342.418 109.494, 333.475 106.702, 331 106.042 C 328.525 105.381, 324.250 103.930, 321.500 102.817 C 318.750 101.705, 314.700 100.416, 312.500 99.953 C 307.827 98.969, 299.950 96.250, 291.500 92.703 C 288.200 91.318, 284.702 89.928, 283.727 89.615 C 281.098 88.770, 280.569 86.307, 282.413 83.492 C 284.478 80.340, 286.329 80.363, 293.626 83.630 C 303.264 87.946, 358.218 106.006, 361.481 105.930 C 363.142 105.891, 365.400 105.443, 366.500 104.933 C 367.898 104.286, 366.995 104.167, 363.500 104.538 C 359.078 105.007, 355.092 103.924, 329 95.164 C 312.775 89.717, 296.857 84.077, 293.626 82.630 C 286.049 79.238, 283.894 79.299, 281.170 82.984 M 178.500 82.896 C 176.244 83.391, 175.910 83.717, 177.153 84.209 C 178.062 84.568, 179.637 84.233, 180.653 83.463 C 181.669 82.693, 182.275 82.103, 182 82.150 C 181.725 82.198, 180.150 82.533, 178.500 82.896 M 226.872 85.750 C 225.629 87.336, 225.664 87.371, 227.250 86.128 C 228.213 85.373, 229 84.585, 229 84.378 C 229 83.555, 228.179 84.084, 226.872 85.750 M 275.103 88 C 275.032 89.925, 274.080 94.353, 272.987 97.839 C 268.741 111.385, 270.042 113.577, 287.500 122.281 C 297.138 127.086, 302.956 129.609, 326.500 139.193 C 329.250 140.312, 332.317 141.649, 333.317 142.164 C 336.702 143.908, 340.117 144.998, 339.605 144.171 C 339.126 143.394, 336.672 142.276, 326 137.972 C 296.534 126.089, 276.940 116.824, 273.723 113.255 C 272.698 112.117, 272.042 110.028, 272.173 108.313 C 272.390 105.468, 272.554 105.370, 276.026 106.005 C 278.020 106.369, 282.993 108.492, 287.076 110.722 C 294.832 114.958, 307.260 120.630, 320 125.749 C 324.125 127.406, 332.468 130.841, 338.540 133.381 C 344.612 135.921, 350.073 138, 350.675 138 C 351.277 138, 352.533 139.164, 353.465 140.587 C 355.405 143.547, 356.711 143.197, 355.082 140.153 C 354.488 139.044, 352.989 137.846, 351.751 137.492 C 350.513 137.138, 344.325 134.682, 338 132.034 C 331.675 129.385, 323.350 125.995, 319.500 124.499 C 308.827 120.352, 297.450 115.182, 287.500 109.957 C 282.550 107.358, 277.337 104.965, 275.917 104.639 C 272.943 103.956, 272.574 102.059, 274.431 97 C 277.010 89.976, 277.813 86.997, 276.991 87.505 C 276.529 87.791, 275.945 87.231, 275.692 86.262 C 275.439 85.293, 275.174 86.075, 275.103 88 M 396 86.500 C 394.945 87.771, 395.173 88, 397.500 88 C 399.827 88, 400.055 87.771, 399 86.500 C 398.315 85.675, 397.640 85, 397.500 85 C 397.360 85, 396.685 85.675, 396 86.500 M 186.929 87.478 C 176.608 93.091, 171.683 116.561, 177.475 132.530 C 179.853 139.086, 185.040 146, 187.580 146 C 188.740 146, 192.171 142.369, 198.788 134.135 C 202.430 129.604, 214.368 122, 217.840 122 C 221.377 122, 226.735 119.364, 227.999 117.001 C 228.950 115.224, 228.830 114.465, 227.330 112.786 C 224.724 109.870, 201.974 92.029, 196.681 88.750 C 191.670 85.647, 190.563 85.502, 186.929 87.478 M 185.043 90.953 C 183.036 93.128, 180.180 97.862, 178.697 101.473 C 175.255 109.853, 174.922 122.506, 177.917 131.038 C 179.965 136.871, 185.225 144, 187.480 144 C 188.233 144, 189.895 142.616, 191.174 140.923 C 197.979 131.923, 202.598 127.825, 210.264 123.988 C 214.646 121.795, 219.451 120, 220.941 120 C 222.499 120, 224.598 118.993, 225.878 117.630 L 228.104 115.260 221.802 109.803 C 212.288 101.564, 201.854 93.493, 198.420 91.717 C 196.734 90.845, 194.770 89.427, 194.055 88.566 C 191.907 85.979, 188.900 86.775, 185.043 90.953 M 187.323 91.250 C 185.068 93.755, 183.650 96, 184.322 96 C 184.564 96, 185.964 94.425, 187.432 92.500 C 190.444 88.552, 190.383 87.851, 187.323 91.250 M 263 97.474 C 263 98.220, 268.756 101.005, 270.200 100.958 C 270.915 100.935, 269.925 100.054, 268 99 C 264.452 97.058, 263 96.615, 263 97.474 M 257 104.480 C 257 104.743, 258.688 105.870, 260.750 106.982 C 262.813 108.095, 265.625 109.776, 267 110.719 L 269.500 112.432 267.500 110.110 C 264.979 107.183, 257 102.904, 257 104.480 M 364 107.378 C 364 107.585, 364.788 108.373, 365.750 109.128 C 367.336 110.371, 367.371 110.336, 366.128 108.750 C 364.821 107.084, 364 106.555, 364 107.378 M 369 112.941 C 369 114.559, 369.356 116.102, 369.791 116.371 C 370.226 116.640, 370.402 115.316, 370.182 113.430 C 369.691 109.227, 369 108.941, 369 112.941 M 270.145 119.540 C 269.920 130.465, 274.459 144.811, 278.651 146.420 C 280.269 147.041, 280.275 146.962, 278.741 145.266 C 274.757 140.864, 271.769 131.910, 271.025 122.148 C 270.306 112.697, 270.288 112.643, 270.145 119.540 M 244 121.441 C 244 122.784, 244.520 124.203, 245.155 124.595 C 245.862 125.033, 246.038 124.870, 245.608 124.175 C 245.223 123.552, 245.394 122.132, 245.989 121.021 C 246.856 119.401, 246.766 119, 245.535 119 C 244.574 119, 244 119.913, 244 121.441 M 18.196 125.467 C 16.108 126.619, 16.061 126.798, 17.696 127.370 C 18.688 127.717, 20.063 128.263, 20.750 128.584 C 21.578 128.970, 22 128.294, 22 126.583 C 22 123.730, 21.572 123.605, 18.196 125.467 M 220.500 125.402 C 206.043 129.986, 195.230 141.210, 191.542 155.460 C 189.609 162.931, 189.634 171.303, 191.604 176.500 C 192.439 178.700, 193.555 181.925, 194.085 183.668 C 194.615 185.410, 196.628 188.222, 198.559 189.918 C 201.662 192.642, 202.792 193.004, 208.285 193.033 C 211.956 193.052, 216.751 193.891, 220 195.082 C 223.025 196.192, 226.850 197.458, 228.500 197.896 C 230.150 198.335, 233.775 199.850, 236.555 201.265 C 244 205.052, 247.706 205.483, 253.062 203.188 C 255.558 202.118, 259.266 199.672, 261.300 197.753 C 266.457 192.890, 266.232 190.192, 260.125 183.690 C 257.444 180.836, 254.284 176.585, 253.102 174.244 C 251.920 171.903, 250.097 169.453, 249.051 168.800 C 247.283 167.696, 247.267 167.516, 248.824 166.251 C 250.297 165.055, 250.230 165.021, 248.269 165.970 C 242.567 168.731, 225.629 162.959, 218.250 155.741 C 214.599 152.170, 214 150.998, 214 147.429 C 214 143.759, 214.555 142.757, 218.750 138.850 C 223.506 134.420, 225.812 133.224, 233.750 131.072 C 237.533 130.046, 238 129.595, 238 126.960 L 238 124 231.250 124.067 C 227.537 124.104, 222.700 124.705, 220.500 125.402 M 222 125.937 C 216.628 127.581, 209.116 132.059, 208.507 133.979 C 208.154 135.091, 207.080 136, 206.120 136 C 203.513 136, 199.679 140.608, 195.358 148.935 C 191.664 156.053, 191.500 156.779, 191.500 165.977 C 191.500 173.066, 191.917 176.228, 193.092 178.042 C 193.967 179.394, 194.963 181.637, 195.305 183.028 C 195.647 184.418, 197.307 186.878, 198.993 188.494 C 201.648 191.037, 203.099 191.526, 209.780 192.128 C 218.197 192.887, 234.947 197.929, 239.114 200.958 C 244.873 205.145, 251.599 204.333, 257.750 198.709 C 258.988 197.577, 260 197.010, 260 197.448 C 260 197.886, 260.670 197.689, 261.489 197.009 C 262.308 196.329, 262.751 195.405, 262.473 194.956 C 262.195 194.506, 262.425 193.856, 262.984 193.510 C 265.030 192.245, 263.871 189.898, 258 183.419 C 254.700 179.778, 252 176.022, 252 175.073 C 252 171.965, 247.493 168.928, 240.805 167.528 C 231.092 165.496, 222.017 161.326, 217.250 156.704 C 213.423 152.994, 213 152.110, 213 147.827 C 213 143.943, 213.564 142.428, 216.070 139.573 C 219.964 135.139, 224.492 132.340, 230.810 130.464 C 237.154 128.580, 238.191 126.459, 233.173 125.629 C 228.557 124.866, 225.197 124.959, 222 125.937 M 24 127.500 C 24 128.325, 24.450 129, 25 129 C 25.550 129, 26 128.325, 26 127.500 C 26 126.675, 25.550 126, 25 126 C 24.450 126, 24 126.675, 24 127.500 M 386.250 128.662 C 383.931 129.598, 384.978 133.210, 388.503 136.438 L 392.005 139.647 389.661 141.849 C 385.116 146.119, 367.639 149.697, 337.589 152.510 C 317.263 154.413, 316.395 154.395, 314 152 C 312.581 150.581, 312 150.405, 312 151.393 C 312 153.777, 309.062 154.232, 290.302 154.755 C 262.605 155.528, 240.970 152.998, 235.878 148.390 C 233.982 146.674, 234.012 146.572, 237.442 143.060 C 240.054 140.385, 240.790 138.913, 240.352 137.240 C 239.546 134.158, 235.349 134.292, 228.717 137.610 C 221.435 141.254, 219 143.729, 219 147.487 C 219 155.166, 232.322 161.124, 257.500 164.706 C 272.903 166.897, 324.115 167.183, 340 165.167 C 371.674 161.148, 399.148 152.713, 405.064 145.192 C 409.444 139.623, 406.296 133.377, 397.440 130.063 C 392.060 128.050, 388.783 127.640, 386.250 128.662 M 387.147 129.837 C 385.389 131.017, 386.935 134.072, 390.459 136.381 C 397.955 141.293, 387.741 146.719, 364 150.437 C 351.553 152.386, 321.985 155.112, 315 154.954 C 311.975 154.885, 301.086 155.152, 290.802 155.546 C 257.686 156.816, 233 152.970, 233 146.541 C 233 145.909, 234.540 143.900, 236.422 142.075 C 238.311 140.244, 239.607 138.140, 239.315 137.379 C 237.489 132.619, 220 141.783, 220 147.500 C 220 154.520, 236.070 161.060, 261 164.184 C 275.131 165.955, 325.999 165.944, 340 164.167 C 362.282 161.340, 387.452 155.132, 394.485 150.730 C 396.444 149.503, 399.493 147.586, 401.260 146.469 C 405.795 143.603, 406.962 139.781, 404.379 136.248 C 400.935 131.535, 390.434 127.628, 387.147 129.837 M 215.813 132.683 C 216.534 132.972, 217.397 132.936, 217.729 132.604 C 218.061 132.272, 217.471 132.036, 216.417 132.079 C 215.252 132.127, 215.015 132.364, 215.813 132.683 M 206 134 C 205.099 134.582, 204.975 134.975, 205.691 134.985 C 206.346 134.993, 207.160 134.550, 207.500 134 C 208.267 132.758, 207.921 132.758, 206 134 M 212 134 C 211.099 134.582, 210.975 134.975, 211.691 134.985 C 212.346 134.993, 213.160 134.550, 213.500 134 C 214.267 132.758, 213.921 132.758, 212 134 M 243 135 C 242.411 136.100, 242.155 137, 242.430 137 C 242.705 137, 243.411 136.100, 244 135 C 244.589 133.900, 244.845 133, 244.570 133 C 244.295 133, 243.589 133.900, 243 135 M 205 139 C 204.411 140.100, 204.155 141, 204.430 141 C 204.705 141, 205.411 140.100, 206 139 C 206.589 137.900, 206.845 137, 206.570 137 C 206.295 137, 205.589 137.900, 205 139 M 249 137.480 C 249 138.285, 256.815 142, 258.508 142 C 259.381 142, 261.199 143.191, 262.548 144.646 C 264.386 146.630, 265 146.887, 265 145.672 C 265 144.031, 260.266 141, 257.705 141 C 256.938 141, 255.495 140.100, 254.500 139 C 252.914 137.248, 249 136.166, 249 137.480 M 242 138.393 C 242 138.609, 242.698 139.054, 243.552 139.382 C 244.442 139.723, 244.843 139.555, 244.493 138.989 C 243.906 138.038, 242 137.583, 242 138.393 M 32.200 145.200 C 31.360 146.040, 31.345 146.711, 32.146 147.676 C 33.568 149.390, 34.650 149.355, 35.334 147.573 C 36.110 145.549, 33.687 143.713, 32.200 145.200 M 29.079 146.583 C 29.127 147.748, 29.364 147.985, 29.683 147.188 C 29.972 146.466, 29.936 145.603, 29.604 145.271 C 29.272 144.939, 29.036 145.529, 29.079 146.583 M 32.500 146 C 32.160 146.550, 32.610 147, 33.500 147 C 34.390 147, 34.840 146.550, 34.500 146 C 34.160 145.450, 33.710 145, 33.500 145 C 33.290 145, 32.840 145.450, 32.500 146 M 190.813 147.683 C 191.534 147.972, 192.397 147.936, 192.729 147.604 C 193.061 147.272, 192.471 147.036, 191.417 147.079 C 190.252 147.127, 190.015 147.364, 190.813 147.683 M 307.079 151.583 C 307.127 152.748, 307.364 152.985, 307.683 152.188 C 307.972 151.466, 307.936 150.603, 307.604 150.271 C 307.272 149.939, 307.036 150.529, 307.079 151.583 M 378.535 164.374 C 377.230 165.679, 375.002 169.036, 373.585 171.833 C 370.346 178.225, 360.290 189.049, 352.981 194.013 C 343.637 200.358, 334.091 205, 330.385 205 C 326.626 205, 319.977 207.419, 318.887 209.183 C 316.438 213.146, 324.346 221.285, 336.342 227.148 L 344.500 231.136 355 230.796 C 364.294 230.496, 366.267 230.096, 372.180 227.314 C 381.439 222.957, 386.961 217.536, 391.603 208.246 C 395.419 200.608, 395.474 200.340, 395.487 189 C 395.498 179.091, 395.181 176.808, 393.196 172.500 C 388.634 162.598, 383.279 159.630, 378.535 164.374 M 380.445 165.282 C 379.375 166.537, 378.837 167.122, 379.250 166.582 C 379.663 166.042, 379.990 165.127, 379.978 164.550 C 379.966 163.972, 379.101 164.612, 378.056 165.972 C 377.011 167.332, 376.378 168.803, 376.650 169.243 C 376.921 169.682, 375.986 171.416, 374.572 173.097 C 373.157 174.778, 372 176.552, 372 177.040 C 372 178.808, 359.422 191.318, 353.818 195.123 C 344.433 201.497, 334.886 205.990, 330.718 205.995 C 325.047 206.002, 320 208.422, 320 211.133 C 320 214.490, 328.376 221.932, 337.146 226.367 L 344.793 230.235 355.146 229.775 C 360.841 229.522, 366.625 228.787, 368 228.141 C 378.955 222.995, 385.263 217.608, 389.544 209.742 C 391.949 205.323, 392.103 204.549, 390.774 203.577 C 388.432 201.864, 385.008 195.757, 385.004 193.285 C 385.002 192.003, 385.948 190.571, 387.250 189.885 C 392.048 187.359, 391.877 186.792, 382.857 175.315 C 378.664 169.979, 377.850 168.573, 380.291 170.881 C 382.257 172.741, 385.359 176.456, 387.183 179.137 C 389.114 181.975, 391.044 183.805, 391.802 183.517 C 392.518 183.245, 392.829 183.468, 392.493 184.011 C 392.157 184.555, 392.414 185, 393.063 185 C 393.934 185, 393.911 185.403, 392.975 186.530 C 391.987 187.720, 391.964 188.662, 392.869 190.780 C 393.942 193.289, 393.916 193.352, 392.533 191.582 C 391.265 189.959, 390.646 189.840, 388.517 190.810 C 385.487 192.191, 385.427 192.956, 387.957 197.917 C 392.441 206.706, 395.491 201.698, 394.825 186.638 C 394.396 176.935, 392.466 171.718, 387.099 165.750 C 384.091 162.406, 382.965 162.327, 380.445 165.282 M 257 166.378 C 257 166.585, 257.788 167.373, 258.750 168.128 C 260.336 169.371, 260.371 169.336, 259.128 167.750 C 257.821 166.084, 257 165.555, 257 166.378 M 355.500 167.026 C 353.300 167.470, 350.292 168.299, 348.815 168.867 C 343.130 171.056, 312.878 172.385, 296.762 171.153 C 274.726 169.469, 262.533 169.610, 260.571 171.571 C 258.342 173.801, 258.560 174.668, 262.506 179.278 C 265.114 182.325, 265.690 183.593, 264.756 184.229 C 263.828 184.860, 263.902 185.007, 265.039 184.792 C 265.886 184.631, 268.361 185.908, 270.539 187.629 C 276.668 192.471, 289.715 198.919, 298 201.201 C 308.507 204.094, 321.957 203.302, 334.412 199.056 C 339.313 197.385, 344.038 195.393, 344.912 194.629 C 345.785 193.866, 347.850 192.557, 349.500 191.721 C 353.916 189.484, 361.059 182.904, 365.937 176.582 C 369.305 172.216, 370.088 170.488, 369.593 168.513 C 369.025 166.250, 368.491 166.011, 364.231 166.110 C 361.629 166.170, 357.700 166.582, 355.500 167.026 M 353.084 168.943 C 347.801 170.373, 347.095 170.794, 349.084 171.326 C 353.216 172.432, 356.961 172.069, 359.785 170.289 L 362.500 168.578 360.500 170.905 C 358.633 173.078, 358.069 173.179, 352 172.432 C 348.425 171.992, 340.775 171.827, 335 172.066 C 320.933 172.648, 291.617 172.615, 275 172 L 261.500 171.500 261.161 173.902 C 260.895 175.778, 262.327 177.746, 267.705 182.902 C 275.382 190.260, 291.174 198.899, 300.921 201.073 C 312.885 203.741, 334.223 200.059, 343.967 193.646 C 345.910 192.367, 348.775 190.539, 350.332 189.583 C 357.945 184.914, 369.515 171.507, 368.412 168.632 C 367.594 166.500, 361.665 166.620, 353.084 168.943 M 371.813 167.683 C 372.534 167.972, 373.397 167.936, 373.729 167.604 C 374.061 167.272, 373.471 167.036, 372.417 167.079 C 371.252 167.127, 371.015 167.364, 371.813 167.683 M 193 170.759 C 193 171.357, 194.132 173.191, 195.515 174.835 C 197.295 176.950, 197.660 177.972, 196.765 178.333 C 195.901 178.681, 195.988 178.867, 197.039 178.921 C 197.885 178.964, 200.360 179.911, 202.539 181.024 C 204.717 182.138, 208.197 183.322, 210.272 183.656 C 212.347 183.990, 214.286 184.654, 214.581 185.131 C 215.523 186.655, 220.950 186.066, 225 184 C 229.435 181.738, 234.982 181.387, 236.859 183.250 C 237.868 184.252, 238.001 184.192, 237.529 182.950 C 237.120 181.874, 237.990 180.899, 240.369 179.764 C 242.497 178.749, 243.742 177.466, 243.650 176.383 C 243.558 175.310, 244.462 174.362, 246 173.919 C 247.375 173.523, 247.970 173.155, 247.321 173.100 C 246.673 173.045, 245.436 172.293, 244.571 171.429 C 243.143 170, 243 170.073, 243 172.232 C 243 176.049, 237.163 181, 232.663 181 C 230.604 181, 227.156 181.900, 225 183 C 220.772 185.157, 216.493 185.607, 215.500 184 C 215.160 183.450, 213.754 183, 212.376 183 C 207.514 183, 200.248 178.975, 196.557 174.237 C 194.601 171.726, 193 170.161, 193 170.759 M 256.166 172.876 C 255.092 173.557, 255.141 173.840, 256.416 174.329 C 257.418 174.714, 258 174.398, 258 173.469 C 258 171.769, 257.942 171.750, 256.166 172.876 M 263.250 174.392 C 264.212 175.123, 265 176.218, 265 176.825 C 265 177.433, 266.012 178.461, 267.250 179.110 C 269.433 180.256, 269.448 180.233, 267.750 178.317 C 266.788 177.231, 266 175.864, 266 175.278 C 266 174.693, 265.288 173.941, 264.418 173.607 C 261.867 172.628, 261.368 172.964, 263.250 174.392 M 326.063 174.589 C 325.997 176.775, 329.491 179, 332.988 179 C 334.030 179, 335.144 179.424, 335.464 179.942 C 335.785 180.460, 338.174 181.169, 340.773 181.517 C 343.373 181.865, 346.130 182.352, 346.900 182.601 C 349.248 183.358, 344.241 187.783, 337.271 191.109 C 333.822 192.755, 331 194.331, 331 194.610 C 331 194.889, 331.520 194.797, 332.155 194.405 C 332.833 193.985, 333.039 194.128, 332.654 194.752 C 332.293 195.335, 331.106 195.579, 330.015 195.294 C 326.861 194.469, 322.996 195.839, 323.032 197.769 C 323.061 199.372, 323.165 199.366, 324.438 197.687 C 325.503 196.283, 326.591 196.020, 329.267 196.522 C 331.832 197.003, 332.867 196.789, 333.288 195.691 C 333.600 194.878, 335.913 193.185, 338.428 191.929 C 349.091 186.604, 352.002 181.025, 344.143 180.978 C 342.139 180.966, 338.538 180.066, 336.141 178.978 C 333.743 177.890, 330.916 177, 329.859 177 C 328.799 177, 327.529 175.990, 327.031 174.750 C 326.160 172.583, 326.124 172.577, 326.063 174.589 M 309 174.965 C 309 177.363, 320.835 181.040, 328 180.868 L 332.500 180.760 328.250 179.738 C 325.913 179.176, 324 178.275, 324 177.735 C 324 177.196, 323.343 177.300, 322.541 177.966 C 320.579 179.594, 315.236 178.350, 313.712 175.910 C 312.484 173.944, 309 173.245, 309 174.965 M 321 174.393 C 321 174.609, 321.698 175.054, 322.552 175.382 C 323.442 175.723, 323.843 175.555, 323.493 174.989 C 322.906 174.038, 321 173.583, 321 174.393 M 310 175.393 C 310 175.609, 310.698 176.054, 311.552 176.382 C 312.442 176.723, 312.843 176.555, 312.493 175.989 C 311.906 175.038, 310 174.583, 310 175.393 M 355.100 176.379 C 354.470 177.138, 352.503 178.097, 350.728 178.510 C 348.499 179.029, 348.046 179.399, 349.262 179.706 C 350.231 179.951, 350.787 180.535, 350.498 181.004 C 350.208 181.472, 350.932 182.161, 352.107 182.534 C 353.696 183.038, 354.916 182.488, 356.871 180.384 L 359.500 177.556 356.754 179.949 C 353.734 182.580, 351.784 182.054, 354.187 179.256 C 356.037 177.103, 357.269 175, 356.681 175 C 356.441 175, 355.730 175.621, 355.100 176.379 M 101.441 177.096 C 101.068 177.699, 101.469 178.898, 102.331 179.760 C 103.594 181.022, 104.190 181.087, 105.390 180.091 C 106.210 179.411, 106.635 178.212, 106.334 177.427 C 105.688 175.744, 102.413 175.523, 101.441 177.096 M 103 178 C 101.793 178.780, 101.951 178.972, 103.809 178.985 C 105.097 178.993, 105.845 178.558, 105.500 178 C 104.757 176.798, 104.861 176.798, 103 178 M 240.507 177.989 C 240.157 178.555, 240.558 178.723, 241.448 178.382 C 243.180 177.717, 243.497 177, 242.059 177 C 241.541 177, 240.843 177.445, 240.507 177.989 M 241.750 180.572 C 238.680 182.237, 238.196 185.053, 240.571 187.429 C 243.015 189.873, 247.713 189.378, 250.732 186.359 L 253.373 183.718 250.631 181.359 C 247.477 178.646, 245.606 178.480, 241.750 180.572 M 241.861 181.937 C 239.943 183.511, 239.706 184.215, 240.601 185.687 C 242.334 188.541, 247.159 188.524, 249.854 185.655 L 252.146 183.216 249.850 181.608 C 246.830 179.492, 244.735 179.579, 241.861 181.937 M 270 181.378 C 270 181.585, 270.788 182.373, 271.750 183.128 C 273.336 184.371, 273.371 184.336, 272.128 182.750 C 270.821 181.084, 270 180.555, 270 181.378 M 199 183 C 198.099 183.582, 197.975 183.975, 198.691 183.985 C 199.346 183.993, 200.160 183.550, 200.500 183 C 201.267 181.758, 200.921 181.758, 199 183 M 254.459 184.067 C 254.096 184.653, 254.014 185.348, 254.276 185.610 C 254.538 185.872, 255.019 185.392, 255.345 184.543 C 256.021 182.781, 255.445 182.471, 254.459 184.067 M 203 185.941 C 203 186.459, 203.450 187.160, 204 187.500 C 204.550 187.840, 205 187.670, 205 187.122 C 205 186.575, 206.463 185.945, 208.250 185.723 C 211.067 185.374, 210.934 185.299, 207.250 185.160 C 204.912 185.072, 203 185.423, 203 185.941 M 266.158 188 C 266.158 189.375, 266.385 189.938, 266.662 189.250 C 266.940 188.563, 266.940 187.438, 266.662 186.750 C 266.385 186.063, 266.158 186.625, 266.158 188 M 253.575 191.579 C 251.416 192.369, 249.424 193.242, 249.148 193.519 C 248.307 194.360, 255.303 192.756, 258.500 191.374 C 262.749 189.539, 258.683 189.708, 253.575 191.579 M 361 193.500 C 359.980 194.729, 360.049 195, 361.378 195 C 362.270 195, 363 194.325, 363 193.500 C 363 192.675, 362.830 192, 362.622 192 C 362.415 192, 361.685 192.675, 361 193.500 M 239.250 195.467 C 234.489 197.571, 235.286 198.009, 240.480 196.141 C 244.646 194.643, 245.078 194.650, 246.663 196.234 C 248.268 197.839, 248.254 198.064, 246.433 200.114 L 244.500 202.291 246.810 201.078 C 248.509 200.186, 249.038 199.156, 248.810 197.183 C 248.558 195.002, 247.938 194.456, 245.500 194.265 C 243.850 194.136, 241.037 194.677, 239.250 195.467 M 253.500 195 C 252.400 195.473, 252.026 195.891, 252.668 195.930 C 253.311 195.968, 254.490 196.251, 255.289 196.557 C 256.088 196.864, 257.011 196.414, 257.340 195.557 C 257.996 193.846, 256.643 193.649, 253.500 195 M 204 196.564 C 204 197.262, 204.563 198.060, 205.250 198.338 C 205.938 198.615, 203.889 198.878, 200.697 198.921 C 191.576 199.045, 181.349 201.797, 170.500 207.046 C 158.984 212.618, 152.570 217.798, 146.963 226.055 C 142.869 232.083, 141.887 236.831, 144.317 238.848 C 145.317 239.678, 146.939 238.949, 151.067 235.815 C 158.229 230.377, 176.598 221.735, 186 219.379 C 191.846 217.914, 197.029 217.512, 209.500 217.555 C 226.183 217.613, 231.416 218.463, 243.197 223.033 C 249.273 225.390, 254 225.130, 254 222.438 C 254 220.015, 245.704 211.822, 239.381 208 C 236.196 206.075, 229.970 203.273, 225.545 201.774 C 219.666 199.782, 217.542 198.609, 217.657 197.418 C 217.771 196.225, 217.516 196.084, 216.707 196.893 C 215.195 198.405, 212.673 198.295, 213.269 196.742 C 213.613 195.845, 212.354 195.457, 208.876 195.390 C 205.553 195.325, 204 195.700, 204 196.564 M 206.265 197.185 C 207.885 198.214, 212 198.225, 212 197.200 C 212 196.760, 210.432 196.400, 208.515 196.400 C 206.446 196.400, 205.531 196.719, 206.265 197.185 M 270.524 198.221 C 267.875 200.504, 267.679 201.045, 268.743 203.143 C 269.401 204.439, 270.065 207.075, 270.219 209 C 270.441 211.763, 270.973 212.567, 272.750 212.820 C 274.758 213.105, 274.991 212.729, 274.912 209.320 C 274.864 207.219, 274.527 203.285, 274.162 200.578 L 273.500 195.655 270.524 198.221 M 319.872 197.750 C 318.629 199.336, 318.664 199.371, 320.250 198.128 C 321.212 197.373, 322 196.585, 322 196.378 C 322 195.555, 321.179 196.084, 319.872 197.750 M 251 200 C 250.175 200.533, 249.950 200.969, 250.500 200.969 C 251.050 200.969, 252.175 200.533, 253 200 C 253.825 199.467, 254.050 199.031, 253.500 199.031 C 252.950 199.031, 251.825 199.467, 251 200 M 270.046 199.950 C 268.885 200.685, 268.823 201.336, 269.738 203.185 C 270.368 204.458, 271.187 207.038, 271.558 208.918 C 272.630 214.351, 274.324 209.988, 273.491 203.937 C 272.785 198.800, 272.459 198.424, 270.046 199.950 M 349.571 200.571 C 347.203 202.940, 347.662 205.545, 351.148 209.515 C 355.564 214.545, 358.390 214.035, 358.813 208.132 C 359.313 201.164, 353.629 196.514, 349.571 200.571 M 186.500 201.884 C 177.661 204.077, 165.458 210.168, 158.179 216.021 C 148.611 223.715, 141.399 236.274, 145.200 238.624 C 145.952 239.088, 146.119 238.564, 145.713 237.012 C 145.290 235.393, 145.425 235.025, 146.171 235.771 C 146.917 236.517, 148.602 235.850, 151.865 233.516 C 156.682 230.072, 166.591 224.965, 173.500 222.367 C 195.124 214.234, 223.642 213.941, 242.437 221.660 C 247.427 223.709, 249.454 224.103, 251.137 223.352 C 253.292 222.390, 253.262 222.295, 249.416 218.017 C 244.228 212.246, 232.448 204.628, 226.374 203.116 C 223.693 202.449, 220.118 201.475, 218.429 200.952 C 213.402 199.394, 194.286 199.952, 186.500 201.884 M 349.807 202.525 C 348.777 204.785, 349.009 205.414, 352.024 208.525 C 353.877 210.436, 355.715 212, 356.108 212 C 356.502 212, 357.133 210.172, 357.511 207.938 C 358.043 204.785, 357.804 203.441, 356.443 201.938 C 354.022 199.262, 351.179 199.514, 349.807 202.525 M 195.500 202.702 C 204.132 203.858, 216.587 209.710, 217.885 213.219 C 218.510 214.908, 218.776 214.975, 219.828 213.707 C 220.842 212.486, 220.243 211.727, 216.273 209.198 C 210.151 205.298, 200.560 201.958, 196.035 202.150 C 192.691 202.292, 192.662 202.321, 195.500 202.702 M 282.268 205.207 C 281.692 205.918, 280.923 212.125, 280.558 219 C 280.194 225.875, 279.675 232.850, 279.404 234.500 C 278.953 237.256, 279.018 237.337, 280.207 235.500 C 281.033 234.222, 281.681 228.474, 282 219.581 C 282.667 201.004, 284.473 200.112, 285.455 217.874 C 286.136 230.177, 286.067 230.933, 284.086 232.914 C 281.094 235.906, 281.502 237.817, 284.526 234.975 C 287.024 232.628, 287.049 232.446, 286.776 218.564 C 286.542 206.660, 286.258 204.479, 284.908 204.220 C 284.032 204.052, 282.845 204.496, 282.268 205.207 M 316 204.378 C 316 204.585, 316.788 205.373, 317.750 206.128 C 319.336 207.371, 319.371 207.336, 318.128 205.750 C 316.821 204.084, 316 203.555, 316 204.378 M 302 211.640 C 302 213.092, 301.218 214.852, 300.261 215.551 C 298.910 216.539, 298.442 218.681, 298.161 225.161 C 297.927 230.538, 297.288 234.075, 296.363 235.119 C 294.640 237.062, 292.437 248.090, 293.315 250.378 C 293.657 251.270, 294.765 252, 295.778 252 C 297.303 252, 297.925 250.416, 299.412 242.750 C 300.399 237.662, 301.813 232.128, 302.555 230.451 C 304.336 226.422, 305.700 213.449, 304.248 214.347 C 303.665 214.707, 303.406 215.835, 303.672 216.853 C 304.327 219.358, 302.252 230.226, 300.967 231.020 C 300.401 231.370, 299.147 235.802, 298.180 240.869 C 296.542 249.459, 294.932 252.602, 294.178 248.685 C 293.640 245.890, 296.015 236.233, 297.555 234.954 C 298.574 234.108, 299 231.598, 299 226.434 C 299 220.423, 299.334 218.880, 300.866 217.807 C 301.892 217.088, 302.792 216.162, 302.866 215.750 C 303.196 213.906, 303.220 213.397, 303.052 211.750 C 302.954 210.787, 303.401 210, 304.044 210 C 304.688 210, 304.955 210.675, 304.638 211.500 C 304.322 212.325, 304.499 213, 305.031 213 C 305.564 213, 306 212.100, 306 211 C 306 209.667, 305.333 209, 304 209 C 302.505 209, 302 209.667, 302 211.640 M 198 221.542 C 196.625 222.305, 193.814 222.945, 191.754 222.965 C 183.651 223.041, 157.951 234.460, 152.250 240.518 C 149.117 243.847, 148.996 244.285, 148.894 252.735 C 148.836 257.556, 148.870 262.738, 148.969 264.250 C 149.081 265.945, 148.642 267.012, 147.825 267.032 C 146.877 267.055, 146.961 267.415, 148.123 268.299 C 149.781 269.562, 151.035 275.228, 151.302 282.669 C 151.384 284.963, 151.688 286.698, 151.976 286.525 C 152.264 286.352, 153.625 289.638, 154.999 293.827 C 158.205 303.596, 165.175 311.614, 171.721 313.063 C 177.101 314.254, 216.400 313.392, 218.950 312.027 C 220.005 311.462, 222.059 311, 223.514 311 C 224.969 311, 229.098 309.824, 232.689 308.387 C 236.281 306.950, 240.258 305.713, 241.526 305.637 C 242.794 305.562, 243.656 305.324, 243.442 305.109 C 243.227 304.894, 244.985 303.493, 247.348 301.994 C 249.994 300.316, 252.333 297.778, 253.438 295.385 C 254.425 293.248, 256.193 290.701, 257.366 289.725 C 258.749 288.575, 258.972 288.047, 258 288.225 C 257.085 288.393, 256.658 287.915, 256.906 287 C 257.129 286.175, 257.354 283.402, 257.406 280.838 C 257.475 277.420, 257.810 276.432, 258.661 277.136 C 259.405 277.752, 260.038 277.747, 260.423 277.124 C 260.754 276.589, 260.271 276.005, 259.349 275.826 C 258.325 275.627, 257.629 274.470, 257.558 272.850 C 257.465 270.708, 257.832 270.269, 259.471 270.562 C 261.248 270.879, 261.303 270.773, 259.916 269.712 C 258.295 268.472, 255.640 251.660, 257.219 252.636 C 257.649 252.901, 258 252.690, 258 252.166 C 258 251.642, 257.350 250.964, 256.555 250.660 C 255.761 250.355, 254.833 248.394, 254.494 246.303 C 253.703 241.421, 250.163 233.138, 247.637 230.260 C 243.564 225.621, 231.556 222.623, 212.500 221.489 C 208.650 221.260, 204.375 220.866, 203 220.614 C 201.625 220.362, 199.375 220.779, 198 221.542 M 271.278 222.122 C 269.742 223.658, 270.811 226, 273.048 226 C 275.305 226, 276.204 224.695, 275.396 222.590 C 274.684 220.734, 272.872 220.528, 271.278 222.122 M 196.873 223.099 C 196.118 223.578, 194.272 223.976, 192.771 223.985 C 184.437 224.031, 158.817 235.268, 153.398 241.253 C 150.171 244.817, 150.004 245.371, 150.071 252.253 C 150.219 267.358, 152.582 283.651, 156.045 293.441 C 159.104 302.089, 166.277 310.459, 171.936 311.983 C 176.691 313.263, 213.514 312.516, 217.339 311.061 C 218.874 310.478, 221.487 310, 223.145 310 C 224.802 310, 228.936 308.916, 232.329 307.591 C 235.723 306.265, 239.467 304.900, 240.649 304.555 C 244.758 303.358, 250.950 298.007, 252.903 293.964 C 255.143 289.328, 256.215 282.244, 256.265 271.750 C 256.305 263.210, 254.486 248.777, 253.026 246.048 C 252.462 244.994, 252 243.184, 252 242.026 C 252 239.196, 248.746 233.014, 245.819 230.284 C 240.799 225.601, 231.017 223.585, 208.873 222.669 C 203.029 222.427, 197.629 222.621, 196.873 223.099 M 272.510 224.016 C 272.856 224.575, 273.557 224.774, 274.069 224.457 C 275.456 223.600, 275.198 223, 273.441 223 C 272.584 223, 272.165 223.457, 272.510 224.016 M 194 225.552 C 191.525 226.332, 188.289 226.976, 186.809 226.985 C 185.329 226.993, 183.840 227.450, 183.500 228 C 183.160 228.550, 181.671 229.007, 180.191 229.015 C 178.711 229.024, 176.825 229.467, 176 230 C 173.716 231.476, 179.588 231.297, 182.316 229.807 C 183.517 229.151, 186.750 228.256, 189.500 227.818 C 197.267 226.581, 218.134 226.100, 220.757 227.098 C 222.053 227.590, 225.516 230.267, 228.454 233.045 C 235.867 240.056, 237.977 245.380, 239.353 260.545 C 239.505 262.220, 239.935 264.085, 240.309 264.690 C 240.683 265.295, 240.386 266.022, 239.650 266.304 C 238.913 266.587, 237.732 268.884, 237.025 271.409 C 236.017 275.010, 235.283 276.002, 233.620 276.008 C 232.167 276.014, 230.791 277.322, 229.245 280.170 C 228.004 282.454, 227.184 284.517, 227.421 284.754 C 227.658 284.992, 228.572 283.794, 229.452 282.093 C 230.830 279.427, 233 277.872, 233 279.550 C 233 282.706, 226.572 289.726, 221.199 292.438 C 219.383 293.355, 217.655 294.734, 217.360 295.504 C 217.065 296.274, 215.289 297.409, 213.415 298.028 C 211.540 298.647, 208.162 300.694, 205.908 302.577 C 203.655 304.459, 201.119 306, 200.273 306 C 199.428 306, 197.250 306.918, 195.434 308.041 C 193.618 309.163, 190.189 310.500, 187.816 311.010 L 183.500 311.939 188.354 311.581 C 191.094 311.378, 194.361 310.374, 195.854 309.276 C 197.309 308.205, 199.663 307.040, 201.084 306.687 C 202.505 306.334, 205.380 304.685, 207.472 303.023 C 210.102 300.932, 212.389 299.995, 214.888 299.985 C 217.292 299.974, 218.046 299.682, 217.143 299.110 C 214.833 297.646, 217.512 296.990, 220.772 298.220 C 223.334 299.187, 224.548 299.059, 228.160 297.439 C 234.835 294.445, 239 290.163, 242.653 282.540 C 246.676 274.145, 246.887 270.208, 243.528 266.216 C 242.168 264.600, 241.336 262.997, 241.679 262.654 C 242.022 262.312, 242.895 262.812, 243.619 263.766 C 244.860 265.399, 244.938 265.393, 244.968 263.656 C 244.986 262.642, 244.115 261.581, 243.033 261.298 C 240.826 260.721, 240.424 259.704, 239.489 252.328 C 238.549 244.909, 234.082 236.217, 228.643 231.222 C 222.756 225.816, 221.408 225.332, 210.469 224.689 C 204.738 224.352, 203.124 224.440, 206 224.931 L 210.500 225.700 206.309 225.850 C 204.004 225.932, 201.840 225.550, 201.500 225 C 200.711 223.723, 199.529 223.809, 194 225.552 M 253.971 226.039 C 253.162 226.551, 251.488 226.976, 250.250 226.985 L 248 227 250.036 229.036 C 251.157 230.157, 252.468 230.829, 252.951 230.530 C 253.434 230.232, 254.025 230.553, 254.265 231.244 C 254.504 231.935, 255.035 231.005, 255.445 229.178 C 256.304 225.349, 256.020 224.743, 253.971 226.039 M 252.667 227.667 C 251.452 228.881, 251.976 229.947, 253.500 229.362 C 254.325 229.045, 255 228.384, 255 227.893 C 255 226.845, 253.622 226.711, 252.667 227.667 M 323.500 231 C 321.568 231.830, 321.574 231.862, 323.680 231.930 C 325.117 231.976, 326.009 232.768, 326.294 234.250 C 326.608 235.877, 326.765 235.600, 326.864 233.250 C 327.007 229.823, 326.707 229.622, 323.500 231 M 256.813 232.683 C 257.534 232.972, 258.397 232.936, 258.729 232.604 C 259.061 232.272, 258.471 232.036, 257.417 232.079 C 256.252 232.127, 256.015 232.364, 256.813 232.683 M 321.655 234.829 C 320.745 235.835, 320.014 237.072, 320.030 237.579 C 320.047 238.085, 320.525 237.703, 321.092 236.729 C 321.659 235.755, 322.470 235.173, 322.895 235.435 C 323.319 235.697, 323.667 235.257, 323.667 234.456 C 323.667 232.623, 323.648 232.626, 321.655 234.829 M 176.500 235.861 C 170.503 239.565, 169.500 241.544, 169.500 249.677 L 169.500 257.144 173.711 261.072 C 177.769 264.857, 178.174 265, 184.826 265 C 190.320 265, 192.274 264.572, 194.393 262.905 C 197.944 260.112, 201 253.912, 201 249.500 C 201 244.641, 197.607 238.341, 193.710 235.965 C 189.442 233.363, 180.630 233.309, 176.500 235.861 M 252 234.393 C 252 234.609, 252.698 235.054, 253.552 235.382 C 254.442 235.723, 254.843 235.555, 254.493 234.989 C 253.906 234.038, 252 233.583, 252 234.393 M 257.201 235.572 C 255.991 236.420, 255 237.792, 255 238.621 C 255 240.649, 258.981 249.984, 260.960 252.598 C 262.193 254.226, 262.501 256.804, 262.333 264.098 C 262.214 269.269, 261.934 274.175, 261.712 275 C 261.247 276.726, 259.151 281.947, 258.502 282.997 C 258.261 283.386, 258.751 284.559, 259.590 285.603 C 261.025 287.387, 261.093 287.306, 260.731 284.252 C 260.371 281.211, 260.459 281.105, 262.102 282.592 C 263.478 283.837, 264.249 283.934, 265.678 283.042 C 267.305 282.026, 267.259 281.970, 265.250 282.520 C 263.119 283.102, 263 282.849, 263 277.759 C 263 274.758, 263.612 271.546, 264.384 270.489 C 265.523 268.932, 265.547 267.966, 264.519 265.048 C 263.832 263.097, 263.490 260, 263.760 258.166 C 264.101 255.857, 263.659 254.012, 262.324 252.166 C 260.115 249.111, 257.527 243.649, 256.559 240 C 255.910 237.551, 255.930 237.541, 257.552 239.500 C 259.193 241.483, 259.202 241.482, 258.563 239.334 C 258.208 238.143, 258.346 236.904, 258.868 236.581 C 260.070 235.838, 264.847 241.442, 265.470 244.327 C 266.137 247.414, 266.969 258.659, 266.937 264.163 C 266.922 266.728, 267.380 269.117, 267.955 269.472 C 269.709 270.556, 269.223 282.228, 267.308 285.027 C 265.046 288.333, 264.167 288.839, 261.639 288.291 C 259.901 287.914, 259.781 288.027, 261 288.898 C 263.626 290.774, 265.781 290.093, 267.797 286.750 C 270.695 281.944, 271.328 272.924, 269.393 264 C 268.499 259.875, 267.829 254.440, 267.903 251.922 C 268.059 246.674, 265.258 239.530, 261.753 236.238 C 259.583 234.199, 259.234 234.148, 257.201 235.572 M 174.368 239.368 C 170.221 243.516, 170 244.029, 170 249.500 C 170 254.971, 170.221 255.484, 174.368 259.632 C 178.621 263.884, 178.907 264, 185.172 264 C 191.135 264, 191.834 263.761, 194.684 260.750 C 196.376 258.962, 198.264 256.517, 198.880 255.316 C 200.700 251.766, 200.235 245.568, 197.927 242.635 C 196.788 241.186, 196.168 240, 196.550 240 C 196.932 240, 196.689 239.330, 196.009 238.511 C 195.329 237.692, 194.425 237.237, 194 237.500 C 193.575 237.763, 192.671 237.308, 191.991 236.489 C 191.147 235.473, 188.848 235, 184.746 235 C 178.984 235, 178.557 235.180, 174.368 239.368 M 271 236.966 C 269.700 237.814, 269.892 239.045, 272.446 246.222 C 274.716 252.603, 275.489 256.754, 275.815 264.335 C 276.205 273.368, 276.393 274.130, 278.121 273.679 C 279.156 273.408, 279.751 273.595, 279.442 274.093 C 279.134 274.592, 279.290 275, 279.789 275 C 280.288 275, 281.497 273.224, 282.476 271.053 C 283.901 267.892, 284.150 265.449, 283.722 258.803 C 283.105 249.204, 281.888 244.617, 278.705 239.882 C 276.333 236.354, 273.553 235.302, 271 236.966 M 272.200 237.856 C 271.148 238.523, 271.211 239.522, 272.532 243.090 C 275.501 251.109, 276.969 258.412, 276.984 265.250 C 276.998 271.288, 277.207 272, 278.965 272 C 281.862 272, 283 268.968, 283 261.247 C 283 253.392, 281.046 245.840, 277.759 240.989 C 275.245 237.279, 274.116 236.642, 272.200 237.856 M 314.717 241.750 C 311.686 245.918, 306.993 255.122, 307.004 256.877 C 307.011 258.167, 310.982 250.918, 311.586 248.512 C 311.933 247.130, 312.580 246, 313.023 246 C 313.466 246, 314.961 243.975, 316.344 241.500 C 317.727 239.025, 318.704 237, 318.515 237 C 318.325 237, 316.616 239.137, 314.717 241.750 M 414.431 239.112 C 414.053 239.723, 414.364 240.616, 415.122 241.096 C 417.275 242.460, 417.856 242.166, 417.290 240 C 416.711 237.786, 415.486 237.405, 414.431 239.112 M 318.878 244.563 C 317.020 247.623, 314.262 251.735, 312.750 253.701 C 311.238 255.667, 310.018 258.226, 310.039 259.388 C 310.071 261.111, 310.319 260.948, 311.386 258.500 C 312.105 256.849, 313.437 254.882, 314.347 254.127 C 315.256 253.373, 316 252.170, 316 251.454 C 316 250.739, 317.030 248.881, 318.289 247.327 C 320.437 244.674, 323.379 239, 322.606 239 C 322.413 239, 320.736 241.504, 318.878 244.563 M 420.158 241 C 420.158 242.375, 420.385 242.938, 420.662 242.250 C 420.940 241.563, 420.940 240.438, 420.662 239.750 C 420.385 239.063, 420.158 239.625, 420.158 241 M 55.200 244.200 C 54.360 245.040, 54.345 245.711, 55.146 246.676 C 56.568 248.390, 57.650 248.355, 58.334 246.573 C 59.110 244.549, 56.687 242.713, 55.200 244.200 M 55.500 245 C 55.160 245.550, 55.610 246, 56.500 246 C 57.390 246, 57.840 245.550, 57.500 245 C 57.160 244.450, 56.710 244, 56.500 244 C 56.290 244, 55.840 244.450, 55.500 245 M 141.813 247.683 C 142.534 247.972, 143.397 247.936, 143.729 247.604 C 144.061 247.272, 143.471 247.036, 142.417 247.079 C 141.252 247.127, 141.015 247.364, 141.813 247.683 M 146.459 250.067 C 146.096 250.653, 146.014 251.348, 146.276 251.610 C 146.538 251.872, 147.019 251.392, 147.345 250.543 C 148.021 248.781, 147.445 248.471, 146.459 250.067 M 140.693 250.700 C 139.699 250.958, 138.462 252.285, 137.943 253.649 C 136.500 257.444, 136.765 268.560, 138.330 269.859 C 139.126 270.520, 139.478 272.198, 139.207 274.045 C 138.934 275.903, 139.478 278.473, 140.575 280.510 C 142.139 283.413, 142.211 284.238, 141.083 286.345 C 139.950 288.462, 140.076 289.717, 141.998 295.493 C 145.546 306.156, 151.662 311.406, 156.764 308.167 C 158.408 307.124, 149.857 286.233, 146.835 283.907 C 145.303 282.728, 144.953 281.723, 145.488 280.038 C 145.911 278.706, 145.674 276.759, 144.917 275.345 C 143.896 273.437, 143.874 272.237, 144.812 269.643 C 145.465 267.836, 145.997 264.365, 145.994 261.929 C 145.988 257.048, 144.307 249.934, 143.203 250.116 C 142.816 250.180, 141.687 250.443, 140.693 250.700 M 271.232 253 C 271.232 254.925, 271.438 255.713, 271.689 254.750 C 271.941 253.787, 271.941 252.213, 271.689 251.250 C 271.438 250.287, 271.232 251.075, 271.232 253 M 140.135 252.865 C 138.397 254.603, 138 256.198, 138 261.443 C 138 266.829, 138.340 268.125, 140.073 269.339 C 141.349 270.232, 141.739 271.043, 141.087 271.446 C 139.878 272.193, 140.218 276.227, 141.824 280.205 C 142.425 281.693, 142.658 285.089, 142.343 287.752 C 141.321 296.378, 148.791 309.153, 153.906 307.530 C 156.375 306.746, 156.488 305.844, 154.582 302.158 C 153.802 300.650, 152.232 296.765, 151.093 293.524 C 149.954 290.284, 147.938 286.478, 146.614 285.066 C 145.139 283.495, 143.974 280.755, 143.609 278 C 143.282 275.525, 142.861 272.605, 142.675 271.511 C 142.488 270.417, 142.990 268.867, 143.789 268.068 C 145.415 266.442, 145.050 255.699, 143.261 252.502 C 142.330 250.839, 142.139 250.861, 140.135 252.865 M 278 252 C 277.099 252.582, 276.975 252.975, 277.691 252.985 C 278.346 252.993, 279.160 252.550, 279.500 252 C 280.267 250.758, 279.921 250.758, 278 252 M 304.232 262.018 C 302.056 265.800, 301.069 268.988, 303 266 C 303.781 264.791, 303.972 264.771, 303.985 265.896 C 303.994 266.751, 304.968 266.247, 306.500 264.595 C 309.334 261.536, 309.529 260.684, 307.732 259.192 C 306.777 258.400, 305.913 259.098, 304.232 262.018 M 292.828 260.068 C 291.909 260.587, 290.383 263.340, 289.438 266.187 L 287.719 271.362 290.311 273.591 L 292.903 275.821 290.760 277.243 C 288.711 278.604, 288.775 278.662, 292.219 278.583 C 295.014 278.519, 295.585 278.215, 294.769 277.227 C 293.972 276.263, 294.116 276.107, 295.361 276.585 C 298.271 277.702, 301.918 276.059, 303.556 272.893 C 304.431 271.199, 304.902 269.569, 304.602 269.268 C 304.302 268.968, 303.640 269.816, 303.132 271.152 C 301.546 275.325, 299.655 276.254, 295.193 275.052 C 289.523 273.525, 288.601 272.065, 290.114 267.014 C 291.329 262.959, 295 259.398, 295 262.274 C 295 263.013, 295.647 264.491, 296.439 265.559 C 297.753 267.332, 298.017 267.363, 299.488 265.915 C 300.965 264.462, 300.910 264.338, 298.830 264.415 C 297.316 264.472, 296.437 263.835, 296.184 262.500 C 295.644 259.644, 294.740 258.989, 292.828 260.068 M 259.158 262 C 259.158 263.375, 259.385 263.938, 259.662 263.250 C 259.940 262.563, 259.940 261.438, 259.662 260.750 C 259.385 260.063, 259.158 260.625, 259.158 262 M 124.526 263.950 C 120.987 270.794, 123.816 290.982, 129.104 296.611 C 131.761 299.439, 135.625 299.757, 136.432 297.214 C 136.744 296.232, 136.035 292.744, 134.857 289.464 C 133.475 285.616, 132.500 279.851, 132.108 273.213 C 131.661 265.657, 131.102 262.675, 130 261.978 C 127.475 260.383, 126.118 260.872, 124.526 263.950 M 304.964 263.164 C 303.819 265.397, 303.846 265.424, 305.574 263.774 C 306.568 262.824, 307.107 261.773, 306.771 261.438 C 306.436 261.103, 305.623 261.880, 304.964 263.164 M 126.813 262.683 C 127.534 262.972, 128.397 262.936, 128.729 262.604 C 129.061 262.272, 128.471 262.036, 127.417 262.079 C 126.252 262.127, 126.015 262.364, 126.813 262.683 M 124.644 266.196 C 123.500 270.467, 123.989 281.599, 125.551 286.860 C 126.404 289.732, 128.402 293.527, 129.991 295.291 C 132.668 298.265, 133.001 298.380, 134.538 296.867 C 135.932 295.493, 135.996 294.861, 134.941 292.890 C 132.889 289.056, 131.892 284.050, 131.176 274 C 130.514 264.695, 130.446 264.494, 127.881 264.196 C 125.858 263.962, 125.121 264.417, 124.644 266.196 M 268 266.441 C 268 267.784, 268.369 269.110, 268.819 269.388 C 269.270 269.667, 269.443 268.568, 269.206 266.947 C 268.681 263.373, 268 263.087, 268 266.441 M 240.750 267.406 C 239.787 268.129, 239 269.243, 239 269.882 C 239 272.135, 233.293 283.541, 230.538 286.794 C 229.004 288.605, 226.036 290.962, 223.942 292.030 C 218.965 294.568, 218.556 295.424, 221.550 297.027 C 230.554 301.845, 250.086 276.075, 243.750 267.737 C 242.697 266.352, 242.224 266.300, 240.750 267.406 M 294.459 270.067 C 294.096 270.653, 294.014 271.348, 294.276 271.610 C 294.538 271.872, 295.019 271.392, 295.345 270.543 C 296.021 268.781, 295.445 268.471, 294.459 270.067 M 147.109 274 C 147.071 277.582, 147.273 278.135, 148.101 276.712 C 148.802 275.509, 148.818 274.039, 148.150 272.212 C 147.234 269.709, 147.154 269.846, 147.109 274 M 165.200 273.200 C 163.906 274.494, 163.629 277.869, 164.607 280.418 C 166.017 284.093, 174 281.259, 174 277.084 C 174 273.194, 167.899 270.501, 165.200 273.200 M 166.079 274.404 C 164.853 275.882, 165.601 281, 167.043 281 C 169.229 281, 173 278.898, 173 277.680 C 173 276.116, 169.866 273, 168.294 273 C 167.717 273, 166.720 273.632, 166.079 274.404 M 232.813 277.683 C 233.534 277.972, 234.397 277.936, 234.729 277.604 C 235.061 277.272, 234.471 277.036, 233.417 277.079 C 232.252 277.127, 232.015 277.364, 232.813 277.683 M 147 279.726 C 147 280.216, 147.688 281.491, 148.529 282.559 C 150.010 284.439, 150.050 284.423, 149.779 282.078 C 149.522 279.844, 147 277.709, 147 279.726 M 128 282 C 127.175 282.533, 126.950 282.969, 127.500 282.969 C 128.050 282.969, 129.175 282.533, 130 282 C 130.825 281.467, 131.050 281.031, 130.500 281.031 C 129.950 281.031, 128.825 281.467, 128 282 M 285.223 282.557 C 282.595 284.397, 282.230 289.116, 284.566 291.055 C 286.628 292.766, 289 297.424, 289 299.763 C 289 300.788, 287.725 302.848, 286.166 304.341 C 283.565 306.833, 282.883 307.004, 277.881 306.416 C 273.473 305.898, 272.166 306.095, 271.044 307.447 C 267.232 312.040, 276.828 319.930, 286.282 319.977 C 292.618 320.008, 296.732 318.156, 301.109 313.306 C 308.105 305.553, 309.941 294.445, 305.268 288.136 C 300.375 281.529, 290.582 278.803, 285.223 282.557 M 285.655 283.829 C 283.792 285.887, 283.490 288.567, 285.014 289.509 C 286.543 290.453, 290 297.648, 290 299.883 C 290 300.963, 288.810 303.260, 287.357 304.988 C 284.904 307.902, 284.302 308.113, 279.031 307.898 C 271.975 307.610, 270.562 308.312, 272.166 311.311 C 272.811 312.515, 273.262 313.725, 273.169 314 C 273.076 314.275, 273.337 314.521, 273.750 314.548 C 274.163 314.574, 276.075 315.585, 278 316.794 C 286.699 322.259, 298.493 317.839, 304.136 307 C 309.060 297.542, 307.348 289.846, 299.078 284.274 C 294.825 281.407, 288.050 281.183, 285.655 283.829 M 273.200 292.200 C 271.211 294.189, 271.774 298.728, 274.223 300.443 C 277.052 302.425, 279.437 302.420, 281.429 300.429 C 283.601 298.256, 283.402 296.726, 280.548 293.646 C 277.919 290.810, 275.138 290.262, 273.200 292.200 M 215.441 293.555 C 213.577 295.049, 213.589 295.067, 215.750 294.020 C 216.988 293.420, 218 292.720, 218 292.465 C 218 291.700, 217.481 291.921, 215.441 293.555 M 258 293.572 C 258 294.645, 258.538 295.008, 259.552 294.618 C 260.496 294.256, 260.848 294.437, 260.451 295.080 C 260.092 295.661, 259.183 295.900, 258.431 295.612 C 257.679 295.323, 256.798 295.518, 256.473 296.044 C 256.148 296.570, 257.146 296.996, 258.691 296.992 C 260.761 296.986, 261.829 296.276, 262.751 294.292 C 263.598 292.466, 263.630 291.970, 262.847 292.753 C 262.053 293.547, 261.118 293.598, 259.847 292.918 C 258.400 292.143, 258 292.285, 258 293.572 M 274.200 293.200 C 271.334 296.066, 274.941 301.788, 278.836 300.552 C 281.880 299.586, 282.116 297.418, 279.486 294.579 C 276.809 291.691, 275.937 291.463, 274.200 293.200 M 263.115 297.500 C 263.161 299.150, 263.560 301.625, 264 303 C 264.695 305.169, 264.812 304.970, 264.885 301.500 C 264.931 299.300, 264.533 296.825, 264 296 C 263.262 294.857, 263.051 295.215, 263.115 297.500 M 250.174 304.558 C 246.145 307.035, 240.970 309.748, 238.674 310.586 C 236.378 311.424, 232.158 312.953, 229.295 313.985 C 219.232 317.613, 205.198 319.270, 189.746 318.657 C 181.911 318.346, 172.575 317.642, 169 317.093 C 161.526 315.945, 159 316.403, 159 318.907 C 159 320.652, 162.737 323, 165.514 323 C 166.294 323, 169.139 324.959, 171.835 327.353 C 179.218 333.911, 185.654 335.343, 205.108 334.757 C 218.258 334.361, 221.519 333.929, 227.500 331.789 C 239.446 327.516, 246.153 323.520, 252.606 316.830 C 260.238 308.918, 262 306.283, 262 302.777 C 262 298.715, 258.925 299.178, 250.174 304.558 M 250.500 305.879 C 241.134 311.489, 227.346 316.291, 214 318.593 C 206.619 319.865, 200.307 320.125, 185.704 319.756 C 171.483 319.397, 166.980 319.571, 167.204 320.471 C 167.367 321.125, 169.864 323.749, 172.753 326.303 C 180.521 333.169, 185.449 334.313, 204.858 333.756 C 221.754 333.270, 225.498 332.397, 238.313 325.953 C 248.038 321.063, 262.089 306.280, 260.629 302.475 C 259.831 300.395, 259.433 300.529, 250.500 305.879 M 267.309 305.250 C 266.864 305.938, 266.472 308.190, 266.438 310.255 C 266.400 312.520, 266.697 313.512, 267.186 312.755 C 267.632 312.065, 267.736 310.261, 267.418 308.747 C 266.949 306.512, 267.278 305.819, 269.170 305.061 C 270.805 304.405, 270.995 304.108, 269.809 304.063 C 268.879 304.029, 267.754 304.563, 267.309 305.250 M 5.216 306.845 C 3.283 308.072, 4.893 311, 7.500 311 C 10.115 311, 11.384 308.784, 9.722 307.122 C 8.403 305.803, 6.994 305.717, 5.216 306.845 M 288 306.753 C 288 308.981, 293.229 312.001, 296.885 311.885 L 300.500 311.770 296.728 311.039 C 294.654 310.637, 291.841 309.260, 290.478 307.980 C 289.115 306.699, 288 306.147, 288 306.753 M 6.813 308.683 C 7.534 308.972, 8.397 308.936, 8.729 308.604 C 9.061 308.272, 8.471 308.036, 7.417 308.079 C 6.252 308.127, 6.015 308.364, 6.813 308.683 M 159.813 309.683 C 160.534 309.972, 161.397 309.936, 161.729 309.604 C 162.061 309.272, 161.471 309.036, 160.417 309.079 C 159.252 309.127, 159.015 309.364, 159.813 309.683 M 159 313 C 159.589 314.100, 160.295 315, 160.570 315 C 160.845 315, 160.589 314.100, 160 313 C 159.411 311.900, 158.705 311, 158.430 311 C 158.155 311, 158.411 311.900, 159 313 M 153.398 313.501 C 154.968 314.689, 155.077 315.203, 154.026 316.469 C 153.327 317.311, 152.023 318.014, 151.128 318.030 C 149.723 318.057, 149.705 318.177, 151 318.909 C 151.825 319.376, 153.488 320.060, 154.695 320.429 C 156.751 321.057, 156.852 320.859, 156.291 317.300 C 155.708 313.610, 154.556 312.013, 152.500 312.047 C 151.950 312.056, 152.354 312.710, 153.398 313.501 M 231.116 315.857 C 231.050 316.635, 230.360 316.968, 229.500 316.638 C 227.676 315.938, 227.548 317.113, 229.250 318.947 C 229.938 319.687, 230.003 320.016, 229.395 319.678 C 228.788 319.339, 227.239 320.181, 225.953 321.550 C 222.662 325.053, 214.494 330.132, 210.700 331.034 L 207.500 331.795 210.595 331.898 C 212.633 331.965, 215.706 330.673, 219.595 328.114 C 228.915 321.982, 232.305 318.730, 231.732 316.471 C 231.457 315.387, 231.180 315.111, 231.116 315.857 M 256.094 319.841 C 251.451 324.734, 242.014 332, 240.303 332 C 239.792 332, 237.153 333.070, 234.437 334.378 C 222.382 340.185, 198.947 341.942, 197.667 337.135 C 197.290 335.718, 197.217 335.733, 197.116 337.250 C 197.019 338.706, 196.007 339, 191.082 339 C 183.890 339, 182 339.642, 182 342.084 C 182 346.166, 191.017 348.563, 207.750 348.929 C 210.310 348.985, 211 349.425, 211 351 C 211 352.604, 210.333 353, 207.635 353 C 203.753 353, 199 356.283, 199 358.966 C 199 359.967, 198.345 361.037, 197.545 361.344 C 196.745 361.651, 195.161 363.724, 194.025 365.951 C 191.713 370.482, 190.099 370.883, 183.500 368.564 C 179.537 367.172, 179.503 367.116, 179.832 362.580 C 180.091 359.025, 179.792 357.858, 178.499 357.361 C 175.136 356.071, 179.400 354.940, 185.244 355.573 C 189.965 356.084, 191.097 355.910, 191.601 354.597 C 192.038 353.457, 193.687 352.948, 197.357 352.820 L 202.500 352.640 197.644 352.261 C 194.143 351.988, 192.284 352.338, 190.983 353.515 C 189.601 354.766, 188.133 354.993, 184.721 354.481 C 177.724 353.432, 170 358.742, 170 364.600 C 170 372.616, 186.872 380.500, 204.024 380.500 C 212.387 380.500, 213.898 380.226, 216.409 378.250 C 217.983 377.012, 220.054 376, 221.012 376 C 223.536 376, 224.730 374.134, 226.463 367.483 C 228.436 359.905, 228.412 355.587, 226.386 353.906 C 225.499 353.169, 222.078 352.469, 218.786 352.349 C 212.177 352.109, 211.477 351.804, 212.345 349.543 C 212.775 348.421, 214.382 348, 218.225 348 C 221.134 348, 224.934 347.592, 226.671 347.094 C 229.372 346.320, 230.156 346.537, 232.094 348.600 L 234.358 351.010 232.213 362.722 C 230.975 369.477, 229.291 375.505, 228.232 376.966 C 227.222 378.360, 224.169 380.625, 221.448 382 C 217.227 384.132, 214.853 384.549, 205.298 384.835 C 196.979 385.084, 192.617 384.740, 188.350 383.499 C 179.203 380.840, 171.847 376.597, 167.700 371.589 C 165.352 368.753, 163.084 367, 161.763 367 C 160.415 367, 156.908 369.798, 152.271 374.572 L 144.917 382.144 145.569 387.908 C 146.279 394.181, 145.410 396.691, 139.888 404.314 C 136.609 408.840, 132 422.379, 132 427.484 C 132 431.658, 134.560 432.796, 138.900 430.552 C 140.551 429.698, 143.867 429, 146.270 429 C 149.825 429, 151.408 429.658, 154.761 432.528 C 157.028 434.468, 159.143 436.875, 159.461 437.876 C 159.778 438.877, 161.207 440.229, 162.636 440.880 C 165.506 442.188, 165.316 442.337, 171.024 434.320 C 174.119 429.972, 174.906 424.820, 172.905 422 C 172.111 420.881, 171.968 421.611, 172.343 424.879 C 172.768 428.589, 172.359 430.001, 169.672 434.119 C 165.442 440.601, 163.415 441.169, 159.852 436.873 C 156.488 432.818, 156.455 432.545, 159 430 C 161.879 427.121, 161.739 419.393, 158.726 414.922 C 155.297 409.833, 150.450 406.969, 145.602 407.168 L 141.500 407.336 145.500 407.742 C 155.873 408.795, 164.143 422.857, 158 429 C 155.639 431.361, 155.121 431.406, 152.559 429.468 C 150.303 427.762, 141.793 427.505, 138.896 429.055 C 136.021 430.594, 133 429.305, 133 426.538 C 133 422.608, 136.842 411.516, 139.451 407.913 C 140.811 406.036, 143.120 402.270, 144.582 399.545 C 146.904 395.219, 147.164 393.844, 146.629 388.726 L 146.016 382.864 153.668 375.432 C 157.877 371.344, 161.668 368, 162.093 368 C 162.518 368, 164.553 370.059, 166.615 372.576 C 170.789 377.669, 176.144 380.737, 186.355 383.886 C 199.055 387.802, 220.252 386.161, 226.804 380.755 C 229.460 378.564, 231.748 371.827, 233.608 360.729 L 235.412 349.958 232.781 347.326 C 230.204 344.749, 230.030 344.720, 224.325 345.926 C 220.652 346.703, 212.660 347.036, 202.691 346.829 C 187.172 346.506, 186.847 346.454, 184.994 344 L 183.107 341.500 185.804 340.700 C 187.287 340.261, 194.125 340.180, 201 340.520 C 220.340 341.479, 234.565 337.802, 248.731 328.183 C 251.973 325.981, 255.817 322.618, 257.273 320.708 C 261.404 315.293, 264.316 315.115, 269.570 319.958 C 271.982 322.181, 274.796 324, 275.823 324 C 277.848 324, 281 326.940, 281 328.829 C 281 330.495, 279.475 330.277, 277.906 328.386 C 275.997 326.087, 269.165 327.105, 260.556 330.971 C 251.169 335.188, 236 347.691, 236 351.212 C 236 351.730, 237.116 350.828, 238.479 349.207 C 246.039 340.223, 262.659 329.878, 271.908 328.399 C 275.469 327.829, 275.679 327.962, 277.457 331.906 C 279.199 335.768, 279.208 336.113, 277.605 337.884 C 276.669 338.918, 275.482 341.279, 274.965 343.132 C 273.486 348.438, 262.084 362.674, 251.573 372.339 C 246.285 377.200, 241.328 382.398, 240.557 383.890 C 238.373 388.114, 229 423.594, 229 427.638 C 229 432.037, 225.251 448.518, 223.441 452.073 C 221.043 456.786, 219.356 457.540, 215.418 455.662 C 213.501 454.748, 209.924 454, 207.469 454 C 203.745 454, 202.342 454.599, 199.003 457.616 C 195.629 460.665, 195 461.848, 195 465.152 C 195 467.307, 195.727 470.180, 196.615 471.535 C 198.148 473.875, 198.128 474, 196.204 474 C 193.918 474, 189.842 478.429, 186.999 484.003 L 185.093 487.739 187.682 490.119 C 190.170 492.406, 190.227 492.414, 189.136 490.316 C 187.349 486.879, 187.771 484.616, 191.040 480.103 C 195.387 474.103, 197.606 473.565, 202.217 477.391 C 204.278 479.101, 205.972 480.978, 205.982 481.563 C 206.008 483.118, 201.186 487.282, 195.822 490.336 C 188.924 494.264, 184.706 493.942, 179.882 489.118 C 174.916 484.152, 174.830 480.817, 179.411 470.891 C 184.118 460.693, 186 452.676, 186 442.828 C 186 434.070, 187.483 430, 190.673 430 C 191.803 430, 192.067 429.379, 191.630 427.750 C 191.299 426.512, 191.021 425.214, 191.014 424.864 C 191.006 424.513, 188.863 423.911, 186.250 423.525 C 183.637 423.138, 180.795 422.193, 179.934 421.423 C 179.073 420.653, 176.823 419.778, 174.934 419.477 C 171.917 418.997, 172.153 419.238, 176.878 421.465 C 179.836 422.859, 183.072 424, 184.069 424 C 185.066 424, 186.165 424.457, 186.510 425.016 C 186.856 425.575, 187.515 425.800, 187.976 425.515 C 189.147 424.791, 187.970 429.087, 186.345 431.473 C 185.465 432.763, 184.998 436.565, 184.994 442.473 C 184.991 447.438, 184.512 453.300, 183.930 455.500 C 182.316 461.598, 178.770 470.222, 176.781 472.885 C 174.193 476.350, 174.363 484.921, 177.088 488.385 C 183.182 496.131, 193.559 495.594, 203.315 487.028 C 208.382 482.579, 208.080 480.459, 201.500 474.265 C 196.910 469.944, 196 468.520, 196 465.660 C 196 462.930, 196.814 461.497, 200.003 458.616 C 204.447 454.602, 209.376 453.856, 214 456.500 C 217.734 458.634, 220.621 458.297, 222.848 455.466 C 225.143 452.549, 230 433.362, 230 427.217 C 230 424.938, 230.900 420.791, 232 418 C 233.100 415.209, 233.998 411.930, 233.995 410.713 C 233.992 409.496, 234.650 406.475, 235.456 404 C 236.262 401.525, 237.681 396.350, 238.610 392.500 C 240.288 385.545, 240.374 385.426, 252.017 374 C 258.462 367.675, 265.664 360.025, 268.022 357 C 273.070 350.525, 281.965 332.627, 281.986 328.905 C 282.002 326.028, 279.265 323, 276.649 323 C 275.717 323, 273.003 321.200, 270.616 319 C 264.635 313.487, 261.978 313.641, 256.094 319.841 M 161.250 317.662 C 159.202 318.489, 159.819 319.741, 162.786 320.775 C 165.161 321.604, 165.571 321.482, 165.571 319.947 C 165.571 318.957, 165.218 318.365, 164.786 318.632 C 164.354 318.900, 164 318.641, 164 318.059 C 164 316.939, 163.295 316.837, 161.250 317.662 M 143.861 322.129 C 142.351 323.777, 140.198 325, 138.806 325 C 137.473 325, 135.509 325.700, 134.441 326.555 C 132.531 328.085, 132.532 328.096, 134.500 327.187 C 135.600 326.679, 138.182 325.960, 140.238 325.589 C 142.532 325.174, 144.408 324.106, 145.095 322.822 C 145.845 321.421, 146.451 321.111, 146.928 321.883 C 147.320 322.518, 149.080 323.449, 150.840 323.954 C 152.820 324.522, 153.818 324.515, 153.460 323.936 C 153.142 323.421, 152.034 323, 150.998 323 C 149.961 323, 148.524 322.158, 147.803 321.129 C 146.552 319.343, 146.371 319.389, 143.861 322.129 M 149.445 327.068 C 147.765 327.557, 145.359 329.054, 144.099 330.395 C 141.968 332.663, 141.832 333.537, 142.154 342.839 C 142.466 351.868, 142.744 353.107, 145 355.551 C 148.247 359.067, 152.901 361, 158.120 361 C 161.844 361, 162.893 360.412, 167.652 355.652 C 174.176 349.128, 174.619 346.787, 169.250 347.207 L 165.500 347.500 165.519 343.500 C 165.529 341.300, 165.874 337.574, 166.285 335.221 C 166.942 331.462, 166.733 330.642, 164.562 328.471 C 162.584 326.493, 161.135 326.018, 157.295 326.090 C 154.658 326.140, 151.125 326.580, 149.445 327.068 M 150.001 328.123 C 144.077 330.485, 143 332.636, 143 342.098 C 143 350.077, 143.230 351.120, 145.619 353.959 C 149.067 358.057, 153.004 360, 157.859 360 C 161.192 360, 162.541 359.296, 166.408 355.537 C 171.349 350.735, 172.178 348.879, 169.011 349.707 C 167.917 349.993, 167.277 350.739, 167.587 351.364 C 167.898 351.989, 167.163 351.375, 165.954 350 C 163.932 347.701, 163.807 346.823, 164.395 339.098 C 164.932 332.044, 164.767 330.400, 163.363 328.848 C 161.493 326.782, 154.337 326.394, 150.001 328.123 M 278.080 331 C 279.538 334.061, 280 334.628, 280 333.358 C 280 332.821, 279.300 331.509, 278.445 330.441 C 276.978 328.611, 276.958 328.643, 278.080 331 M 127.860 335.452 C 122.736 342.012, 120.131 348.070, 120.056 353.601 C 119.892 365.652, 128.446 374, 140.960 374 C 145.667 374, 147.442 373.558, 149 372 C 151.519 369.481, 151.557 366.467, 149.096 364.404 C 145.631 361.502, 139.544 355.228, 136.582 351.506 C 133.739 347.936, 133.707 347.766, 135.332 345.016 C 136.977 342.230, 137.575 334.662, 136.393 331.582 C 135.239 328.575, 132.129 329.985, 127.860 335.452 M 130.206 335 C 122.488 343.254, 119.291 353.336, 122.061 360.685 C 123.349 364.101, 128.515 369.654, 132.200 371.585 C 135.305 373.212, 145.574 373.498, 146.510 371.984 C 146.856 371.425, 147.464 371.169, 147.862 371.415 C 148.260 371.660, 148.686 370.543, 148.808 368.931 C 149.097 365.145, 147.476 365.179, 145.500 369 C 144.236 371.445, 143.352 371.979, 140.724 371.884 C 138.728 371.812, 138.262 371.599, 139.500 371.323 C 140.600 371.079, 142.748 369.448, 144.273 367.700 L 147.045 364.522 142.773 360.343 C 133.286 351.064, 131.455 347.364, 134.619 343.868 C 135.966 342.380, 136.085 341.103, 135.326 336.289 L 134.414 330.500 130.206 335 M 174 332.367 C 174 333.433, 179.868 336.001, 182.200 335.956 C 184.034 335.921, 183.791 335.645, 181 334.591 C 179.075 333.865, 176.713 332.936, 175.750 332.528 C 174.787 332.120, 174 332.048, 174 332.367 M 168.079 336.583 C 168.127 337.748, 168.364 337.985, 168.683 337.188 C 168.972 336.466, 168.936 335.603, 168.604 335.271 C 168.272 334.939, 168.036 335.529, 168.079 336.583 M 138.813 336.683 C 139.534 336.972, 140.397 336.936, 140.729 336.604 C 141.061 336.272, 140.471 336.036, 139.417 336.079 C 138.252 336.127, 138.015 336.364, 138.813 336.683 M 204.079 337.583 C 204.127 338.748, 204.364 338.985, 204.683 338.188 C 204.972 337.466, 204.936 336.603, 204.604 336.271 C 204.272 335.939, 204.036 336.529, 204.079 337.583 M 210.079 337.583 C 210.127 338.748, 210.364 338.985, 210.683 338.188 C 210.972 337.466, 210.936 336.603, 210.604 336.271 C 210.272 335.939, 210.036 336.529, 210.079 337.583 M 138.813 338.683 C 139.534 338.972, 140.397 338.936, 140.729 338.604 C 141.061 338.272, 140.471 338.036, 139.417 338.079 C 138.252 338.127, 138.015 338.364, 138.813 338.683 M 358.336 339.567 C 357.636 341.391, 359.365 343.510, 360.819 342.612 C 361.993 341.886, 361.178 338, 359.852 338 C 359.349 338, 358.667 338.705, 358.336 339.567 M 139.286 346.500 C 139.294 349.250, 139.488 350.256, 139.718 348.736 C 139.947 347.216, 139.941 344.966, 139.704 343.736 C 139.467 342.506, 139.279 343.750, 139.286 346.500 M 169.750 344.662 C 170.438 344.940, 171.563 344.940, 172.250 344.662 C 172.938 344.385, 172.375 344.158, 171 344.158 C 169.625 344.158, 169.063 344.385, 169.750 344.662 M 179.785 349.881 C 177.978 351.465, 175.600 352.988, 174.500 353.265 C 172.864 353.676, 172.965 353.789, 175.054 353.884 C 176.757 353.961, 178.738 352.834, 181 350.500 C 185.099 346.271, 184.342 345.884, 179.785 349.881 M 207.673 353.969 C 201.083 355.245, 199.537 357.971, 199.101 369.087 C 199.003 371.589, 198.803 371.669, 193.047 371.508 C 189.772 371.417, 187.250 371.603, 187.442 371.921 C 187.633 372.240, 187.165 373.078, 186.401 373.784 C 185.245 374.852, 185.053 374.704, 185.256 372.900 C 185.444 371.226, 184.702 370.455, 182 369.518 C 178.643 368.353, 178.500 368.103, 178.500 363.415 C 178.500 355.839, 174.223 356.248, 171.989 364.039 C 171.479 365.817, 171.345 366.988, 171.692 366.642 C 172.038 366.295, 172.818 367.008, 173.425 368.226 C 174.746 370.875, 180.377 374.836, 183.941 375.623 C 185.348 375.933, 187.924 376.823, 189.665 377.600 C 197.138 380.936, 211.502 380.554, 215.922 376.902 L 218.345 374.900 216.172 372.728 C 214.077 370.632, 213.999 370.625, 213.985 372.528 C 213.976 373.613, 213.556 375.153, 213.052 375.950 C 212.424 376.944, 212.230 376.199, 212.437 373.590 C 212.843 368.473, 215.033 367.172, 216.673 371.074 C 218.149 374.584, 220.663 375.815, 222.415 373.887 C 224.061 372.075, 227 362.537, 227 359.008 C 227 357.488, 226.299 355.663, 225.442 354.952 C 223.641 353.458, 213.275 352.885, 207.673 353.969 M 214.750 359.082 C 212.801 360.215, 212.503 362.721, 214.046 365 C 214.811 366.132, 214.915 365.868, 214.466 363.926 C 213.757 360.854, 216.532 357.616, 217.565 360.309 C 217.889 361.153, 217.596 362.891, 216.913 364.172 C 215.772 366.313, 215.810 366.386, 217.387 365.086 C 219.186 363.601, 219.266 358.880, 217.500 358.359 C 216.950 358.197, 215.713 358.522, 214.750 359.082 M 185.623 361.534 C 183.307 363.227, 184.164 366, 187.003 366 C 188.620 366, 188.997 365.466, 188.739 363.538 C 188.295 360.226, 187.825 359.924, 185.623 361.534 M 152.872 363.750 C 151.629 365.336, 151.664 365.371, 153.250 364.128 C 154.213 363.373, 155 362.585, 155 362.378 C 155 361.555, 154.179 362.084, 152.872 363.750 M 196.538 363.938 C 195.823 365.095, 196.209 371, 197 371 C 197.316 371, 197.647 369.200, 197.735 367 C 197.895 362.967, 197.602 362.217, 196.538 363.938 M 166.872 366.750 C 165.629 368.336, 165.664 368.371, 167.250 367.128 C 168.916 365.821, 169.445 365, 168.622 365 C 168.415 365, 167.627 365.788, 166.872 366.750 M 154 367 C 154.825 367.533, 155.950 367.969, 156.500 367.969 C 157.050 367.969, 156.825 367.533, 156 367 C 155.175 366.467, 154.050 366.031, 153.500 366.031 C 152.950 366.031, 153.175 366.467, 154 367 M 54.200 368.200 C 52.657 369.743, 52.657 373.257, 54.200 374.800 C 57.005 377.605, 62 375.492, 62 371.500 C 62 368.820, 60.180 367, 57.500 367 C 56.345 367, 54.860 367.540, 54.200 368.200 M 193.638 368.500 C 193.322 369.325, 193.499 370, 194.031 370 C 194.564 370, 195 369.325, 195 368.500 C 195 367.675, 194.823 367, 194.607 367 C 194.391 367, 193.955 367.675, 193.638 368.500 M 55.046 369.444 C 52.345 372.699, 56.815 376.614, 59.811 373.618 C 61.084 372.344, 61.215 371.563, 60.376 370.231 C 58.916 367.913, 56.601 367.571, 55.046 369.444 M 155.872 371.750 C 154.629 373.336, 154.664 373.371, 156.250 372.128 C 157.916 370.821, 158.445 370, 157.622 370 C 157.415 370, 156.627 370.788, 155.872 371.750 M 137.813 376.683 C 138.534 376.972, 139.397 376.936, 139.729 376.604 C 140.061 376.272, 139.471 376.036, 138.417 376.079 C 137.252 376.127, 137.015 376.364, 137.813 376.683 M 163.750 379.131 C 160.244 381.995, 160 382.551, 160 387.684 C 160 393.032, 160.154 393.334, 165.999 399.420 C 170.689 404.305, 174.015 406.629, 181.249 410.079 C 190.298 414.395, 190.755 414.499, 202.186 414.849 C 212.752 415.173, 214.646 414.949, 221.947 412.518 C 227.116 410.796, 230.408 409.107, 231.095 407.822 L 232.169 405.815 229.335 407.813 C 227.776 408.912, 223.427 410.802, 219.671 412.013 C 213.946 413.860, 211.116 414.156, 202.171 413.845 C 191.977 413.491, 191.087 413.277, 182.249 409.071 C 175.004 405.622, 171.696 403.312, 166.999 398.420 C 161.568 392.765, 161 391.766, 161 387.879 C 161 384.275, 161.596 382.974, 164.703 379.792 C 169.162 375.225, 168.821 374.988, 163.750 379.131 M 248.031 380.500 C 248.031 381.050, 248.467 382.175, 249 383 C 249.533 383.825, 249.969 384.050, 249.969 383.500 C 249.969 382.950, 249.533 381.825, 249 381 C 248.467 380.175, 248.031 379.950, 248.031 380.500 M 136.750 381.662 C 137.438 381.940, 138.563 381.940, 139.250 381.662 C 139.938 381.385, 139.375 381.158, 138 381.158 C 136.625 381.158, 136.063 381.385, 136.750 381.662 M 134.495 384.250 C 133.340 387.517, 132.046 394.884, 132.024 398.320 C 132.003 401.666, 132.266 402.100, 134.150 401.820 C 138.643 401.152, 142.242 392.086, 140.605 385.560 C 140.128 383.663, 139.311 383, 137.450 383 C 136.068 383, 134.738 383.563, 134.495 384.250 M 135.624 385.176 C 133.992 391.009, 133.002 399.402, 133.846 400.246 C 135.431 401.831, 137.337 400.111, 135.907 398.388 C 134.953 397.238, 135.014 397.068, 136.216 397.529 C 138.262 398.315, 140.225 393.334, 139.818 388.387 C 139.593 385.650, 138.987 384.419, 137.747 384.184 C 136.783 384.002, 135.827 384.448, 135.624 385.176 M 246.092 386.908 C 245.003 387.997, 243.794 390.601, 243.406 392.694 C 243.019 394.787, 241.868 398.933, 240.851 401.907 C 239.833 404.880, 238.975 408.705, 238.944 410.407 C 238.880 413.957, 235.714 422.381, 234.791 421.458 C 234.452 421.119, 234.553 422.518, 235.015 424.567 C 235.780 427.960, 237.323 429.945, 239.227 429.985 C 241.142 430.025, 243.290 424.038, 246.497 409.724 C 251.199 388.734, 251.078 381.922, 246.092 386.908 M 308.064 386.939 C 306.854 387.705, 306.841 388.103, 307.978 389.474 C 309.159 390.897, 309.510 390.918, 310.782 389.646 C 311.582 388.846, 311.932 387.699, 311.559 387.096 C 310.742 385.774, 309.961 385.739, 308.064 386.939 M 246.337 388.435 C 246.640 389.225, 246.350 390.052, 245.694 390.273 C 244.804 390.572, 244.847 391.095, 245.863 392.326 C 247.026 393.736, 246.990 394.067, 245.613 394.595 C 244.726 394.936, 244 395.863, 244 396.657 C 244 397.450, 243.283 399.487, 242.406 401.182 C 241.529 402.878, 240.402 407.156, 239.902 410.690 C 239.401 414.224, 238.319 418.417, 237.496 420.008 C 235.640 423.598, 235.587 426.412, 237.348 427.874 C 239.699 429.825, 241.992 425.816, 243.643 416.866 C 244.493 412.265, 245.810 406.475, 246.572 404 C 248.762 396.878, 249.385 391.169, 248.136 389.663 C 247.521 388.922, 247.313 388.020, 247.675 387.658 C 248.037 387.296, 247.760 387, 247.060 387 C 246.359 387, 246.034 387.646, 246.337 388.435 M 309.079 388.583 C 309.127 389.748, 309.364 389.985, 309.683 389.188 C 309.972 388.466, 309.936 387.603, 309.604 387.271 C 309.272 386.939, 309.036 387.529, 309.079 388.583 M 134 404.393 C 134 404.609, 134.698 405.054, 135.552 405.382 C 136.442 405.723, 136.843 405.555, 136.493 404.989 C 135.906 404.038, 134 403.583, 134 404.393 M 189 428 C 189 428.550, 189.450 429, 190 429 C 190.550 429, 191 428.550, 191 428 C 191 427.450, 190.550 427, 190 427 C 189.450 427, 189 427.450, 189 428 M 202.365 430.919 C 198.047 433.552, 195.808 439.760, 196.197 448.024 C 196.457 453.560, 196.785 454.534, 198.500 454.856 C 200.416 455.217, 200.427 455.151, 198.750 453.287 C 197.607 452.017, 197 449.711, 197 446.639 C 197 436.695, 202.638 430, 211.012 430 C 216.718 430, 220.586 431.297, 223.886 434.317 L 226.271 436.500 225.055 434.165 C 222.396 429.061, 208.639 427.093, 202.365 430.919 M 140.635 435.073 C 136.785 438.101, 137.110 442.012, 141.535 445.896 C 147.546 451.174, 156 449.513, 156 443.054 C 156 439.915, 148.952 433, 145.753 433 C 144.387 433, 142.084 433.933, 140.635 435.073 M 141.580 436.116 C 137.907 439.005, 138.415 442.706, 142.898 445.718 C 146.998 448.472, 151.102 448.650, 153.345 446.171 C 155.812 443.445, 155.395 441.792, 151.208 437.703 C 146.841 433.438, 145.305 433.185, 141.580 436.116 M 133.677 436.750 C 132.985 437.925, 131.706 444.559, 132.279 444 C 132.934 443.360, 134.958 436, 134.478 436 C 134.280 436, 133.919 436.337, 133.677 436.750 M 382 438.500 C 380.945 439.771, 381.173 440, 383.500 440 C 385.827 440, 386.055 439.771, 385 438.500 C 384.315 437.675, 383.640 437, 383.500 437 C 383.360 437, 382.685 437.675, 382 438.500 M 149.687 444.114 C 147.692 446.161, 147.322 447, 148.414 447 C 149.867 447, 153.712 442.343, 152.885 441.583 C 152.673 441.388, 151.234 442.527, 149.687 444.114 M 163 444 C 162.175 444.533, 161.950 444.969, 162.500 444.969 C 163.050 444.969, 164.175 444.533, 165 444 C 165.825 443.467, 166.050 443.031, 165.500 443.031 C 164.950 443.031, 163.825 443.467, 163 444 M 159.624 445.539 C 158.659 448.053, 158.943 448.702, 160.122 446.675 C 160.706 445.671, 160.973 444.639, 160.715 444.382 C 160.458 444.124, 159.966 444.645, 159.624 445.539 M 131.142 446.891 C 130.122 447.537, 129.874 449.884, 130.142 456.321 C 130.486 464.547, 130.640 465.036, 134 468.530 C 138.747 473.468, 142.010 475, 147.776 475 C 151.618 475, 153.125 474.495, 154.888 472.620 C 158.823 468.430, 161.322 456.639, 159.039 453.029 C 158.262 451.801, 157.554 451.760, 154.734 452.779 C 152.877 453.451, 150.362 454, 149.146 454 C 146.159 454, 137.395 449.471, 136.656 447.546 C 136.008 445.857, 133.285 445.533, 131.142 446.891 M 132.081 447.950 C 131.127 448.540, 130.874 450.828, 131.152 456.343 C 131.509 463.408, 131.773 464.172, 135.018 467.548 C 141.936 474.745, 149.536 476.210, 154.226 471.250 C 157.364 467.931, 159.394 460.911, 158.536 456.341 C 157.931 453.118, 155.807 451.885, 154.500 454 C 152.867 456.642, 139.698 453.557, 137.512 450.020 C 136.418 448.249, 133.436 447.112, 132.081 447.950 M 148.836 457.684 C 150.851 461.466, 150.297 468.646, 147.811 470.961 C 146.608 472.082, 146.126 473, 146.740 473 C 147.354 473, 148.564 472.293, 149.429 471.429 C 151.669 469.189, 151.602 458.742, 149.336 456.872 C 147.832 455.632, 147.784 455.710, 148.836 457.684 M 203.693 460.602 C 201.290 461.905, 200.931 462.649, 201.193 465.779 C 201.963 474.950, 218 477.137, 218 468.071 C 218 465.048, 211.861 458.989, 208.850 459.040 C 207.558 459.062, 205.237 459.765, 203.693 460.602 M 205.009 461.489 C 204.329 462.308, 203.442 462.773, 203.037 462.523 C 202.632 462.272, 202.345 463.497, 202.400 465.244 C 202.477 467.682, 203.290 468.952, 205.898 470.710 C 210 473.475, 213.123 473.627, 215.345 471.171 C 217.757 468.506, 217.402 466.782, 213.702 463.196 C 210.141 459.744, 206.973 459.122, 205.009 461.489 M 206.288 463.772 C 204.114 465.471, 204.108 465.541, 205.936 467.940 L 207.795 470.380 207.280 467.684 C 206.997 466.202, 207.323 464.316, 208.005 463.494 C 209.629 461.537, 209.024 461.635, 206.288 463.772 M 131.813 471.683 C 132.534 471.972, 133.397 471.936, 133.729 471.604 C 134.061 471.272, 133.471 471.036, 132.417 471.079 C 131.252 471.127, 131.015 471.364, 131.813 471.683 M 55 474.893 C 55 476.860, 57.506 478.423, 59.090 477.444 C 59.591 477.135, 60 476.009, 60 474.941 C 60 473.537, 59.308 473, 57.500 473 C 55.714 473, 55 473.540, 55 474.893 M 126.355 473.971 C 120.902 476.226, 116 487.367, 116 497.504 C 116 502.740, 116.364 503.994, 118.458 505.960 C 121.982 509.271, 127.480 508.361, 139.492 502.478 C 151.277 496.707, 155.199 493.458, 157.012 487.964 C 159.053 481.780, 157.860 480.608, 148.897 479.992 C 141.876 479.509, 138.384 478.368, 135 475.449 C 132.874 473.616, 128.870 472.931, 126.355 473.971 M 56 474.972 C 56 476.328, 57.777 477.170, 58.425 476.121 C 58.735 475.620, 58.316 474.952, 57.494 474.636 C 56.672 474.321, 56 474.472, 56 474.972 M 123.101 478.694 C 119.154 483.482, 117 489.947, 117 497.004 C 117 501.614, 117.425 503.051, 119.314 504.826 C 122.977 508.267, 129.497 507.317, 136.955 502.256 C 138.905 500.933, 141.761 499.598, 143.303 499.289 C 144.845 498.981, 148.220 496.804, 150.803 494.451 L 155.500 490.173 152.694 489.090 C 150.512 488.248, 149.244 488.340, 146.993 489.503 C 143.246 491.441, 132.767 491.448, 129.029 489.515 C 125.992 487.945, 121.141 482, 122.897 482 C 123.465 482, 124.424 482.924, 125.029 484.054 C 128.151 489.888, 140.175 491.992, 147.894 488.054 C 151.317 486.308, 151.926 486.260, 153.826 487.591 C 155.799 488.972, 155.987 488.900, 156.583 486.524 C 157.612 482.425, 155.572 481.003, 148.628 480.978 C 142.610 480.956, 135.052 478.511, 133.564 476.104 C 133.189 475.497, 131.366 475, 129.514 475 C 126.847 475, 125.512 475.769, 123.101 478.694 M 201 475.378 C 201 475.585, 201.787 476.373, 202.750 477.128 C 204.336 478.371, 204.371 478.336, 203.128 476.750 C 201.821 475.084, 201 474.555, 201 475.378 M 208 477 C 207.099 477.582, 206.975 477.975, 207.691 477.985 C 208.346 477.993, 209.160 477.550, 209.500 477 C 210.267 475.758, 209.921 475.758, 208 477 M 309.494 477.009 C 308.429 478.734, 310.042 482, 311.960 482 C 314.023 482, 315.224 479.748, 314.362 477.500 C 313.711 475.805, 310.443 475.475, 309.494 477.009 M 311.276 477.829 C 310.632 478.227, 310.431 479.080, 310.829 479.724 C 311.227 480.368, 312.080 480.569, 312.724 480.171 C 313.368 479.773, 313.569 478.920, 313.171 478.276 C 312.773 477.632, 311.920 477.431, 311.276 477.829 M 169.103 491.915 C 166.926 493.294, 168.401 499.393, 172.345 505.319 C 176.742 511.924, 188.913 523.689, 192.204 524.515 C 193.589 524.863, 196.248 525.002, 198.112 524.824 C 200.993 524.548, 201.837 523.833, 203.750 520.038 C 208.334 510.948, 205.510 495.954, 199.230 496.035 C 197.728 496.055, 195.375 496.714, 194 497.500 C 188.632 500.569, 181.047 498.916, 176.076 493.595 C 173.558 490.900, 171.492 490.403, 169.103 491.915 M 170.250 492.662 C 168.129 493.518, 168.857 497.382, 172.115 502.554 C 173.828 505.274, 175.398 507.683, 175.605 507.907 C 175.811 508.130, 177.127 507.076, 178.528 505.564 C 180.341 503.608, 181.569 503.039, 182.788 503.591 C 183.730 504.018, 186.899 504.554, 189.832 504.781 C 194.096 505.112, 195.598 504.804, 197.332 503.246 C 201.124 499.838, 202.612 499.571, 199.563 502.845 C 196.970 505.630, 195.995 506, 191.247 506 C 188.289 506, 184.941 505.503, 183.807 504.897 C 182.070 503.967, 181.289 504.250, 178.850 506.688 L 175.955 509.583 179.228 512.542 L 182.500 515.500 180 512.489 C 178.625 510.834, 180.425 512.494, 184 516.179 C 192.551 524.994, 198.153 526.386, 202.353 520.739 C 206.505 515.157, 205.155 499.148, 200.378 497.315 C 199.520 496.986, 197.269 497.455, 195.375 498.358 C 191.155 500.371, 183.833 500.485, 180.200 498.595 C 178.715 497.822, 176.409 496.022, 175.076 494.595 C 172.568 491.910, 172.340 491.819, 170.250 492.662 " stroke="none" fill="black" fill-rule="evenodd"/>
</svg>